<svg width="36" height="36" viewBox="0 0 36 36" fill="none" xmlns="http://www.w3.org/2000/svg">
<path d="M35.4576 22.3545C33.0535 31.9974 23.2863 37.8654 13.6423 35.4613C4.00277 33.0572 -1.86576 23.29 0.538914 13.6476C2.9419 4.00363 12.7085 -1.86547 22.3497 0.538645C31.9932 2.94276 37.8617 12.7111 35.4576 22.3545Z" fill="#F7931A"/>
<path d="M25.9346 15.4359C26.2924 13.0407 24.4688 11.7532 21.9752 10.8943L22.7841 7.64977L20.8086 7.15759L20.0211 10.3166C19.5025 10.1872 18.9692 10.0651 18.4394 9.9442L19.2325 6.7644L17.2587 6.27222L16.4492 9.51558C16.0195 9.4177 15.5976 9.32095 15.1881 9.21914L15.1904 9.20901L12.4668 8.52896L11.9414 10.6383C11.9414 10.6383 13.4067 10.9741 13.3758 10.9949C14.1756 11.1946 14.3208 11.7239 14.296 12.1436L13.3746 15.8397C13.4298 15.8538 13.5012 15.874 13.58 15.9055L13.3718 15.8538L12.0798 21.0316C11.9819 21.2746 11.7338 21.6391 11.1747 21.5007C11.1944 21.5294 9.73922 21.1424 9.73922 21.1424L8.75879 23.4036L11.3294 24.0443C11.8075 24.1641 12.2761 24.2896 12.7368 24.4077L11.9195 27.6899L13.8921 28.182L14.7021 24.9353C15.2404 25.0816 15.7636 25.2166 16.2754 25.3437L15.4688 28.5752L17.4437 29.0674L18.2611 25.792C21.6287 26.4293 24.1616 26.1722 25.2265 23.1269C26.0854 20.6744 25.1843 19.2597 23.4124 18.3367C24.7028 18.038 25.6753 17.1892 25.9346 15.4359ZM21.4217 21.7634C20.8109 24.2159 16.6821 22.8906 15.3428 22.5576L16.4273 18.2101C17.7661 18.5442 22.0579 19.2057 21.4217 21.7634ZM22.032 15.4004C21.4752 17.6313 18.0383 16.4979 16.9229 16.22L17.9061 12.2769C19.0216 12.5547 22.6125 13.0734 22.032 15.4004Z" fill="white"/>
</svg>
