<svg width="36" height="36" viewBox="0 0 36 36" fill="none" xmlns="http://www.w3.org/2000/svg">
<path d="M29.1095 6.15979H6.86719V26.3888H29.1095V6.15979Z" fill="white"/>
<path fill-rule="evenodd" clip-rule="evenodd" d="M36 18C36 27.9412 27.9412 36 18 36C8.05887 36 0 27.9412 0 18C0 8.05887 8.05887 0 18 0C27.9412 0 36 8.05887 36 18ZM12.8993 25.1631H9.40602C8.67197 25.1631 8.30939 25.1631 8.0883 25.0217C7.84951 24.8668 7.70359 24.6104 7.6859 24.3273C7.67263 24.0666 7.85394 23.7481 8.21653 23.1113L16.8419 7.9079C17.2089 7.26229 17.3946 6.93949 17.629 6.82011C17.881 6.69188 18.1817 6.69188 18.4338 6.82011C18.6682 6.93949 18.8539 7.26229 19.2209 7.9079L20.9941 11.0032L21.0031 11.019C21.3995 11.7116 21.6006 12.0629 21.6883 12.4315C21.7856 12.8339 21.7856 13.2584 21.6883 13.6608C21.5999 14.0322 21.4009 14.386 20.9985 15.0891L16.4678 23.0981L16.4561 23.1186C16.0571 23.8169 15.8548 24.1708 15.5746 24.4378C15.2695 24.7297 14.9024 24.9419 14.5 25.0615C14.133 25.1631 13.7218 25.1631 12.8993 25.1631ZM21.721 25.1631H26.7265C27.465 25.1631 27.8365 25.1631 28.0577 25.0174C28.2964 24.8625 28.4467 24.6015 28.4601 24.3187C28.4728 24.0663 28.2955 23.7602 27.9479 23.1605C27.936 23.1401 27.924 23.1193 27.9117 23.0981L25.4044 18.8089L25.3759 18.7606C25.0236 18.1648 24.8458 17.864 24.6173 17.7477C24.3654 17.6194 24.0689 17.6194 23.817 17.7477C23.5871 17.867 23.4014 18.181 23.0343 18.8133L20.536 23.1026L20.5274 23.1173C20.1617 23.7487 19.9789 24.0642 19.9921 24.323C20.0098 24.6061 20.1557 24.8668 20.3945 25.0217C20.6112 25.1631 20.9826 25.1631 21.721 25.1631Z" fill="#E84142"/>
</svg>
