<svg width="70" height="70" viewBox="0 0 70 70" fill="none" xmlns="http://www.w3.org/2000/svg">
<path fill-rule="evenodd" clip-rule="evenodd" d="M34.9993 69.999C15.7497 69.999 0 54.2494 0 34.8248C0.174996 15.5751 15.7497 -0.174529 35.1743 0.000467783C54.4239 0.175464 69.9986 15.7501 69.9986 35.3497C69.8236 54.4244 54.2489 69.999 34.9993 69.999Z" fill="#0090FF"/>
<path fill-rule="evenodd" clip-rule="evenodd" d="M38.3248 30.7998L37.2748 36.3997L47.2496 37.7996L46.5496 40.4246L36.7498 39.0246C36.0498 41.2996 35.6998 43.7495 34.8249 45.8495C33.9499 48.2994 33.0749 50.7494 32.0249 53.0243C30.6249 55.9993 28.175 58.0992 24.8501 58.6242C22.9251 58.9742 20.8251 58.7992 19.2502 57.5742C18.7252 57.2242 18.2002 56.5243 18.2002 55.9993C18.2002 55.2993 18.5502 54.4243 19.0752 54.0743C19.4252 53.8993 20.3002 54.0743 20.8251 54.2493C21.3501 54.7743 21.8751 55.4743 22.2251 56.1743C23.2751 57.5742 24.6751 57.7492 26.075 56.6993C27.65 55.2993 28.525 53.3743 29.05 51.4494C30.1 47.2495 31.1499 43.2245 32.0249 39.0246V38.3246L22.7501 36.9247L23.1001 34.2997L32.7249 35.6997L33.9499 30.2748L23.9751 28.6998L24.3251 25.8999L34.6499 27.2999C34.9998 26.2499 35.1748 25.3749 35.5248 24.4999C36.3998 21.35 37.2748 18.2001 39.3748 15.4001C41.4747 12.6002 43.9247 10.8502 47.5996 11.0252C49.1746 11.0252 50.7495 11.5502 51.7995 12.7752C51.9745 12.9502 52.3245 13.3002 52.3245 13.6501C52.3245 14.3501 52.3245 15.2251 51.7995 15.7501C51.0995 16.2751 50.2245 16.1001 49.5245 15.4001C48.9996 14.8751 48.6496 14.3501 48.1246 13.8251C47.0746 12.4252 45.4996 12.2502 44.2747 13.4751C43.3997 14.3501 42.5247 15.5751 41.9997 16.8001C40.7747 20.475 39.8997 24.3249 38.6748 28.1748L48.2996 29.5748L47.5996 32.1998L38.3248 30.7998Z" fill="white"/>
</svg>
