<svg width="70" height="70" viewBox="0 0 70 70" fill="none" xmlns="http://www.w3.org/2000/svg">
<path d="M35.2279 0.000253536C42.1403 0.0452575 48.8847 2.13616 54.6103 6.00926C60.336 9.88237 64.7866 15.3642 67.4007 21.7635C70.0149 28.1627 70.6756 35.1928 69.2995 41.967C67.9234 48.7413 64.5721 54.9563 59.6683 59.8284C54.7645 64.7005 48.5278 68.0113 41.7448 69.3435C34.9617 70.6756 27.9361 69.9693 21.554 67.3137C15.1718 64.658 9.71898 60.172 5.88311 54.4213C2.04724 48.6706 0.000146507 41.9129 7.86074e-09 35.0002C-9.78084e-05 30.3847 0.912699 25.8148 2.68584 21.5535C4.45899 17.2922 7.05747 13.4236 10.3317 10.1706C13.6059 6.91756 17.4912 4.34424 21.764 2.59878C26.0367 0.853327 30.6125 -0.0297953 35.2279 0.000253536Z" fill="#2B61D1"/>
<path d="M39.3981 55.3029L35.3877 57.5815L26.7744 52.6141L30.6937 50.3354H30.8532L39.3981 55.3029Z" fill="white"/>
<path d="M54.8011 23.9938V28.665L46.3245 23.7659L44.0459 22.4443L41.7672 23.7659L30.9665 30.0094L28.6878 31.3311V34.1794L24.4723 31.6728L22.1937 30.3512L19.915 31.6728L15.9502 33.9287V23.9938L35.3643 12.8057L54.8011 23.9938Z" fill="white"/>
<path d="M54.8011 33.9746V46.4388L44.0231 52.6595L33.2451 46.4388V33.9746L44.0459 27.7539L54.8011 33.9746Z" fill="white"/>
<path d="M28.3916 39.2376V46.4154L22.1709 49.9928L15.9502 46.4154V39.2376L22.1481 35.6602L28.3916 39.2376Z" fill="white"/>
</svg>
