<svg width="76" height="76" viewBox="0 0 76 76" fill="none" xmlns="http://www.w3.org/2000/svg">
<path d="M38.4004 73.3999C57.7304 73.3999 73.4004 57.7299 73.4004 38.3999C73.4004 19.0699 57.7304 3.3999 38.4004 3.3999C19.0704 3.3999 3.40039 19.0699 3.40039 38.3999C3.40039 57.7299 19.0704 73.3999 38.4004 73.3999Z" fill="#002352" stroke="#0066CC" stroke-width="5" stroke-miterlimit="10"/>
<path d="M18.7877 29.3108H43.503C43.503 29.3108 52.0337 29.2311 46.134 40.2334C46.134 40.2334 41.8287 48.8439 31.1454 48.6844L36.9016 33.9828C36.9711 33.8085 36.9974 33.62 36.9783 33.4333C36.9591 33.2466 36.8952 33.0674 36.7918 32.9107C36.6884 32.7541 36.5487 32.6248 36.3846 32.5339C36.2205 32.4429 36.0368 32.3929 35.8492 32.3883L28.2752 32.2607L18.708 55.5409C18.708 55.5409 21.8971 55.8598 23.6511 55.7004L22.6943 58.0922H27.2069C27.332 58.0931 27.4544 58.0553 27.5571 57.9839C27.6599 57.9126 27.7381 57.8111 27.7809 57.6935L28.5941 55.5409L30.5076 55.3814L29.3914 58.0922H33.7923C33.9543 58.0933 34.1127 58.0451 34.2466 57.9539C34.3805 57.8628 34.4834 57.733 34.5417 57.5819L35.7695 54.4247C35.7695 54.4247 49.1636 52.1924 55.2228 41.3496C55.2228 41.3496 63.3549 28.7527 53.7877 24.2881C51.9232 23.4331 49.9294 22.8942 47.888 22.6935L49.0041 19.935C49.038 19.8531 49.0513 19.7642 49.0429 19.676C49.0345 19.5879 49.0045 19.5031 48.9558 19.4291C48.907 19.3552 48.8408 19.2943 48.7631 19.2519C48.6854 19.2094 48.5984 19.1866 48.5098 19.1855H44.38L43.1044 22.5341H41.3504L42.339 19.935C42.3694 19.8518 42.3795 19.7625 42.3686 19.6746C42.3577 19.5867 42.326 19.5026 42.2761 19.4294C42.2262 19.3561 42.1597 19.2958 42.0819 19.2534C42.0041 19.211 41.9173 19.1878 41.8287 19.1855H37.6829L36.4073 22.5341H23.5235C23.1772 22.5329 22.8372 22.6257 22.5395 22.8026C22.2418 22.9796 21.9978 23.2339 21.8333 23.5386L18.7877 29.3108Z" fill="white"/>
</svg>
