<svg width="39" height="36" viewBox="0 0 39 36" fill="none" xmlns="http://www.w3.org/2000/svg">
<path d="M19.0025 0.106531C19.8517 -0.336262 20.8882 0.690947 20.4371 1.53932C20.1751 2.23088 19.1815 2.41478 18.6741 1.88764C18.1364 1.38173 18.3117 0.381791 19.0025 0.106531ZM9.86907 1.09108C10.3849 0.878739 11.0379 1.35134 10.9853 1.91355C11.04 2.52387 10.2937 2.97309 9.76797 2.68303C9.07134 2.41322 9.15102 1.28238 9.86907 1.09108ZM28.5755 2.70017C27.7693 2.60277 27.6418 1.33536 28.4179 1.08017C29.0198 0.786596 29.5721 1.33712 29.6601 1.9077C29.5339 2.39491 29.126 2.84101 28.5755 2.70017ZM11.9473 4.97842C12.8097 4.43296 14.0402 5.2453 13.9076 6.24699C13.8628 7.25842 12.5194 7.84439 11.7614 7.16063C11.0286 6.62355 11.1396 5.39141 11.9473 4.97842ZM25.1124 5.55718C25.4971 4.56563 27.0562 4.53562 27.4941 5.50089C27.9269 6.25205 27.3945 7.18225 26.6233 7.43764C25.6017 7.62835 24.6314 6.524 25.1124 5.55718ZM17.9027 7.38134C17.8943 6.52907 18.6706 5.894 19.4806 5.83595C20.0178 5.94368 20.6034 6.17257 20.8339 6.71472C21.2634 7.46257 20.882 8.49232 20.1059 8.83556C19.751 9.03446 19.3314 8.95985 18.9449 8.93667C18.354 8.6466 17.8565 8.07777 17.9027 7.38134ZM4.31985 8.62323C5.10764 8.13894 6.1705 9.02277 5.87225 9.87855C5.70803 10.6188 4.71296 10.92 4.14413 10.4474C3.53692 10.0046 3.63316 8.93998 4.31985 8.62323ZM33.4871 8.62167C34.1555 8.10271 35.2584 8.69803 35.1788 9.54193C35.2236 10.3114 34.27 10.8917 33.6065 10.4955C32.8758 10.1671 32.8012 9.04284 33.4871 8.62167ZM21.7224 10.1538C22.8254 9.75758 24.1354 10.2317 24.7641 11.2151C25.5934 12.4173 25.1521 14.248 23.8653 14.9378C22.5318 15.7537 20.5847 15.0621 20.0923 13.573C19.5332 12.24 20.3477 10.5717 21.7224 10.1538ZM15.251 10.2849C16.4734 9.7079 18.1185 10.192 18.709 11.4424C19.4038 12.6596 18.8665 14.3544 17.6243 14.9828C16.3804 15.6892 14.6256 15.1537 14.0237 13.8469C13.3487 12.5832 13.9481 10.8668 15.251 10.2849ZM8.77115 12.5002C8.86407 11.7126 9.60706 11.2001 10.3567 11.1471C11.1643 11.2445 11.8095 11.8718 11.8974 12.6892C11.8444 13.4984 11.2191 14.2893 10.3615 14.2845C9.4181 14.3657 8.59095 13.4271 8.77115 12.5002ZM27.9104 11.3184C28.879 10.7546 30.2239 11.5753 30.1808 12.688C30.2473 13.867 28.7588 14.6978 27.7943 14.0063C26.7924 13.4304 26.8705 11.8087 27.9104 11.3184ZM12.6174 15.4736C13.7502 15.1619 15.0454 15.6958 15.601 16.7371C16.2096 17.7851 15.9608 19.2411 15.0156 20.0098C13.8034 21.1373 11.5676 20.6846 10.9224 19.1458C10.181 17.7352 11.0815 15.8449 12.6174 15.4736ZM24.8919 15.4677C25.9931 15.1527 27.2868 15.5772 27.8788 16.5804C28.6616 17.7278 28.2879 19.4392 27.1226 20.1789C25.9019 21.0378 24.0112 20.5868 23.3395 19.2438C22.5252 17.8547 23.3445 15.8914 24.8919 15.4677ZM5.33147 16.7768C6.30998 16.4067 7.39465 17.4865 6.99822 18.4566C6.75608 19.3404 5.5105 19.6671 4.86705 19.0155C4.11413 18.4036 4.3929 17.0421 5.33147 16.7768ZM31.8542 18.1847C31.826 17.3739 32.4192 16.6558 33.2506 16.611C33.9207 16.7172 34.5723 17.2578 34.5194 17.9873C34.5807 18.9508 33.4197 19.6058 32.5988 19.153C32.214 18.9575 32.0167 18.5628 31.8542 18.1847ZM0.520168 17.2527C1.10887 16.9958 1.83705 17.506 1.70264 18.1597C1.67108 18.9 0.57822 19.1846 0.176726 18.5661C-0.178014 18.1365 0.0343235 17.4742 0.520168 17.2527ZM37.639 17.2379C38.0535 16.9428 38.7186 17.1549 38.8828 17.6392C39.1614 18.1681 38.6506 18.8928 38.0553 18.8034C37.2196 18.8795 36.9492 17.6059 37.639 17.2379ZM15.8149 20.7914C17.364 20.3885 19.0292 21.6802 19.0389 23.2753C19.1401 24.8871 17.5 26.3164 15.9143 25.9441C14.6886 25.7468 13.7268 24.5661 13.7665 23.3275C13.7632 22.1429 14.6572 21.0419 15.8149 20.7914ZM21.9497 20.788C23.522 20.3486 25.2369 21.6635 25.2119 23.2954C25.2949 24.8774 23.7061 26.2586 22.1535 25.9447C20.6925 25.7558 19.6144 24.1506 20.0223 22.7328C20.2282 21.788 21.0176 21.0197 21.9497 20.788ZM10.1213 21.7699C11.2093 21.5842 12.2293 22.798 11.7881 23.8311C11.4663 24.9319 9.8642 25.2306 9.15589 24.3314C8.32504 23.4678 8.9453 21.8891 10.1213 21.7699ZM28.1126 21.8184C29.0827 21.412 30.2736 22.2512 30.199 23.3041C30.2379 24.4632 28.7677 25.2625 27.819 24.586C26.7445 23.9786 26.9401 22.191 28.1126 21.8184ZM33.1413 26.8623C32.7614 26.1541 33.4514 25.2156 34.2377 25.3467C34.629 25.3401 34.9027 25.6484 35.1533 25.9071C35.2047 26.3267 35.291 26.8274 34.9427 27.1508C34.4697 27.7494 33.3982 27.5786 33.1413 26.8623ZM4.31653 25.5438C5.05134 25.0547 6.10874 25.7842 5.94355 26.6433C5.85569 27.403 4.89861 27.8373 4.26822 27.4062C3.59166 27.0148 3.6166 25.9005 4.31653 25.5438ZM18.8334 27.1342C19.7954 26.7097 21.0209 27.5472 20.9297 28.6067C21.001 29.7775 19.4853 30.5883 18.5447 29.8853C17.5 29.2816 17.6741 27.5055 18.8334 27.1342ZM12.1097 28.7028C12.9291 28.2717 14.0286 29.0162 13.9539 29.9332C13.9789 30.6861 13.2441 31.3278 12.5011 31.2166C11.8857 31.2033 11.4844 30.6516 11.2871 30.127C11.2972 29.5553 11.5325 28.9184 12.1097 28.7028ZM25.7293 28.716C26.5719 28.1953 27.7693 28.9432 27.6897 29.9238C27.7113 30.9487 26.358 31.6052 25.5735 30.9319C24.814 30.4042 24.9067 29.1356 25.7293 28.716ZM28.0978 34.5713C27.723 34.0042 28.1642 33.321 28.7728 33.1917C29.2621 33.2912 29.7795 33.6592 29.6767 34.2265C29.6054 34.9942 28.4825 35.2297 28.0978 34.5713ZM9.29693 34.0788C9.44615 33.6294 9.80771 33.1827 10.3368 33.2996C11.108 33.3543 11.3369 34.5168 10.6619 34.875C10.0549 35.2843 9.35069 34.7238 9.29693 34.0788ZM18.3673 34.5945C18.5149 33.9296 19.3756 33.6062 19.9428 33.9594C20.3177 34.1203 20.4271 34.5397 20.5234 34.8962C20.4719 35.0819 20.426 35.2677 20.3808 35.4534C20.1486 35.7286 19.8501 36.0039 19.4636 35.994C18.7454 36.0781 18.0975 35.2662 18.3673 34.5945Z" fill="#3CC8C8"/>
</svg>
