<svg width="2241" height="1816" viewBox="0 0 2241 1816" fill="none" xmlns="http://www.w3.org/2000/svg">
<g opacity="0.1">
<path d="M1556 834.418C1571.55 812.901 1588.39 792.316 1606.4 772.812C1614.4 764.141 1622.87 755.513 1633.48 750.35C1660.61 737.153 1693.05 749.965 1718.6 765.996C1742.14 780.761 1763.91 798.337 1783.3 818.23C1802.52 837.944 1819.77 860.218 1843.06 874.909C1866.34 889.6 1898.31 895.033 1920.81 879.167C1934.2 869.727 1942.26 854.06 1945.31 837.965C1948.36 821.87 1946.86 805.255 1944.25 789.083C1941.26 770.567 1936.87 751.252 1942.72 733.431C1948.78 714.983 1966.29 700.851 1985.6 698.83C2013.07 695.955 2037.22 715.083 2060.38 730.148C2089.79 749.288 2123.97 763.533 2159 761.519C2194.04 759.505 2229.44 738.075 2239.95 704.593" stroke="white" stroke-miterlimit="10"/>
<path d="M1559.63 841.605C1574.89 820.439 1591.51 800.26 1609.33 781.217C1617.25 772.752 1625.62 764.348 1636.05 759.268C1657 749.064 1681.12 754.25 1702.74 764.295C1708.63 767.029 1714.34 770.122 1719.74 773.363C1743 787.314 1764.59 804.061 1783.9 823.116C1803.04 841.998 1820.22 863.536 1843.26 877.685C1856.18 885.617 1871.49 891.049 1886.57 892.026C1899.7 892.871 1912.73 890.256 1923.62 882.807C1925.57 881.477 1927.41 880.018 1929.14 878.443C1939.83 868.736 1946.33 854.778 1949.17 840.482C1950.08 835.89 1950.65 831.257 1950.96 826.614C1951.75 814.486 1950.82 802.211 1949.43 790.22C1947.24 771.195 1944.32 751.708 1950.91 733.925C1957.44 716.263 1974.23 702.531 1993.08 700.462C2019.9 697.518 2043.57 715.542 2066.21 729.549C2068 730.653 2069.8 731.738 2071.62 732.802C2099.1 748.881 2130.2 760.034 2161.8 757.476C2195.49 754.75 2229.27 733.432 2239.03 700.71" stroke="#F9F9F9" stroke-miterlimit="10"/>
<path d="M1563.26 848.792C1578.24 827.977 1594.64 808.202 1612.26 789.621C1620.09 781.363 1628.38 773.184 1638.62 768.186C1659.2 758.15 1682.83 762.828 1704.11 772.22C1709.91 774.775 1715.54 777.679 1720.89 780.73C1743.86 793.866 1765.27 809.786 1784.51 828.001C1803.57 846.051 1820.68 866.834 1843.47 880.459C1856.88 888.477 1872.59 894.14 1888.13 895.36C1901.63 896.41 1915.14 893.947 1926.44 886.446C1928.46 885.105 1930.38 883.626 1932.18 882.02C1943.32 872.127 1949.97 857.741 1953.03 842.998C1954.01 838.27 1954.65 833.5 1955.04 828.73C1956.06 816.268 1955.5 803.643 1954.6 791.356C1953.22 771.821 1951.75 752.19 1959.09 734.42C1966.06 717.548 1982.18 704.211 2000.57 702.094C2026.74 699.08 2049.92 716.002 2072.05 728.95C2073.79 729.971 2075.55 730.972 2077.33 731.953C2104.16 746.769 2134.26 756.66 2164.59 753.431C2196.93 749.993 2229.1 728.787 2238.11 696.824" stroke="#F4F4F4" stroke-miterlimit="10"/>
<path d="M1566.88 855.978C1581.58 835.514 1597.77 816.145 1615.2 798.025C1622.94 789.973 1631.13 782.019 1641.2 777.104C1661.39 767.237 1684.54 771.406 1705.48 780.146C1711.2 782.522 1716.75 785.236 1722.03 788.098C1744.73 800.419 1765.95 815.512 1785.11 832.887C1804.09 850.105 1821.16 870.117 1843.68 883.233C1857.58 891.333 1873.69 897.231 1889.68 898.694C1903.56 899.948 1917.55 897.64 1929.25 890.085C1931.35 888.733 1933.34 887.234 1935.22 885.598C1946.8 875.519 1953.61 860.705 1956.89 845.514C1957.94 840.651 1958.65 835.743 1959.13 830.845C1960.37 818.049 1960.18 805.075 1959.77 792.491C1959.19 772.447 1959.14 752.694 1967.27 734.914C1974.63 718.83 1990.13 705.89 2008.06 703.724C2033.58 700.641 2056.27 716.459 2077.88 728.349C2079.59 729.286 2081.31 730.205 2083.04 731.102C2109.23 744.655 2138.32 753.283 2167.39 749.384C2198.39 745.234 2228.94 724.139 2237.2 692.938" stroke="#EEEEEE" stroke-miterlimit="10"/>
<path d="M1570.51 863.166C1584.93 843.053 1600.89 824.087 1618.13 806.43C1625.79 798.584 1633.89 790.856 1643.77 786.022C1663.59 776.324 1686.26 779.984 1706.85 788.071C1712.48 790.268 1717.95 792.793 1723.18 795.464C1745.59 806.971 1766.63 821.235 1785.71 837.771C1804.61 854.156 1821.64 873.384 1843.88 886.007C1858.29 894.185 1874.79 900.322 1891.24 902.028C1905.48 903.487 1919.96 901.33 1932.07 893.722C1934.24 892.359 1936.31 890.84 1938.26 889.174C1950.29 878.908 1957.26 863.667 1960.75 848.028C1961.87 843.029 1962.65 837.985 1963.22 832.959C1964.68 819.829 1964.86 806.505 1964.95 793.624C1965.17 773.071 1966.51 753.211 1975.45 735.405C1983.14 720.105 1998.07 707.565 2015.54 705.352C2040.41 702.199 2062.61 716.916 2083.72 727.748C2085.38 728.602 2087.06 729.436 2088.75 730.25C2114.29 742.54 2142.38 749.907 2170.19 745.338C2199.83 740.475 2228.77 719.493 2236.28 689.051" stroke="#E9E9E9" stroke-miterlimit="10"/>
<path d="M1574.14 870.354C1588.27 850.591 1604.02 832.031 1621.07 814.835C1628.64 807.195 1636.64 799.692 1646.34 794.941C1665.79 785.412 1687.97 788.563 1708.22 795.997C1713.76 798.015 1719.16 800.35 1724.32 802.832C1746.46 813.524 1767.32 826.961 1786.31 842.657C1805.13 858.21 1822.14 876.638 1844.09 888.782C1859 897.033 1875.88 903.414 1892.8 905.363C1907.41 907.027 1922.37 905.022 1934.88 897.361C1937.13 895.987 1939.27 894.448 1941.3 892.752C1953.77 882.3 1960.9 866.631 1964.61 850.544C1965.8 845.41 1966.66 840.228 1967.3 835.075C1968.99 821.61 1969.51 807.936 1970.12 794.76C1971.1 773.695 1973.84 753.742 1983.64 735.899C1991.61 721.375 2006.02 709.244 2023.03 706.983C2047.25 703.761 2068.96 717.375 2089.55 727.148C2091.18 727.918 2092.81 728.669 2094.46 729.399C2119.35 740.426 2146.44 746.531 2172.98 741.292C2201.28 735.717 2228.6 714.847 2235.36 685.164" stroke="#E3E3E3" stroke-miterlimit="10"/>
<path d="M1577.77 877.54C1591.62 858.128 1607.15 839.972 1624 823.238C1631.49 815.804 1639.4 808.526 1648.91 803.858C1667.99 794.497 1689.68 797.14 1709.59 803.922C1715.04 805.761 1720.36 807.907 1725.47 810.199C1747.32 820.077 1768 832.685 1786.92 847.542C1805.65 862.263 1822.64 879.877 1844.3 891.556C1859.72 899.875 1876.98 906.505 1894.36 908.697C1909.34 910.565 1924.78 908.713 1937.7 901C1940.02 899.614 1942.24 898.056 1944.34 896.33C1957.26 885.692 1964.54 869.595 1968.48 853.06C1969.73 847.79 1970.66 842.471 1971.39 837.191C1973.3 823.392 1974.19 809.367 1975.3 795.896C1977.08 774.32 1981.14 754.28 1991.82 736.394C2000.04 722.635 2013.96 710.924 2030.52 708.615C2054.08 705.323 2075.31 717.835 2095.39 726.55C2096.98 727.237 2098.57 727.904 2100.17 728.551C2124.42 738.316 2150.5 743.158 2175.78 737.249C2202.73 730.962 2228.43 710.204 2234.45 681.281" stroke="#DEDEDE" stroke-miterlimit="10"/>
<path d="M1581.4 884.729C1594.96 865.668 1610.28 847.917 1626.94 831.644C1634.33 824.416 1642.15 817.364 1651.48 812.778C1670.18 803.586 1691.4 805.72 1710.96 811.849C1716.33 813.509 1721.57 815.466 1726.61 817.568C1748.19 826.631 1768.68 838.412 1787.52 852.43C1806.17 866.319 1823.16 883.107 1844.5 894.333C1860.44 902.714 1878.08 909.599 1895.92 912.034C1911.27 914.107 1927.19 912.407 1940.51 904.641C1942.91 903.244 1945.2 901.666 1947.37 899.91C1960.74 889.086 1968.19 872.561 1972.34 855.579C1973.66 850.174 1974.66 844.717 1975.48 839.31C1977.61 825.177 1978.86 810.801 1980.47 797.035C1983.05 774.948 1988.4 754.819 2000 736.891C2008.42 723.885 2021.91 712.606 2038 710.249C2060.92 706.888 2081.66 718.297 2101.23 725.953C2102.77 726.556 2104.32 727.141 2105.89 727.703C2129.49 736.205 2154.56 739.785 2178.58 733.206C2204.18 726.207 2228.26 705.561 2233.53 677.398" stroke="#D8D8D8" stroke-miterlimit="10"/>
<path d="M1585.03 891.917C1598.3 873.207 1613.4 855.86 1629.87 840.05C1637.18 833.028 1644.91 826.201 1654.05 821.697C1672.38 812.674 1693.1 814.339 1712.33 819.775C1717.6 821.267 1722.78 823.023 1727.75 824.936C1749.05 833.184 1769.36 844.137 1788.12 857.316C1806.69 870.373 1823.67 886.323 1844.71 897.108C1861.17 905.544 1879.18 912.691 1897.48 915.369C1913.19 917.646 1929.6 916.099 1943.32 908.28C1945.8 906.872 1948.17 905.275 1950.41 903.488C1964.22 892.478 1971.83 875.526 1976.2 858.095C1977.58 852.554 1978.66 846.96 1979.56 841.425C1981.92 826.958 1983.54 812.231 1985.65 798.169C1989.03 775.571 1995.63 755.347 2008.19 737.384C2016.76 725.115 2029.86 714.284 2045.49 711.878C2067.75 708.447 2088 718.754 2107.06 725.352C2108.57 725.872 2110.08 726.373 2111.6 726.852C2134.55 734.091 2158.62 736.409 2181.38 729.16C2205.63 721.449 2228.1 700.914 2232.62 673.512" stroke="#D2D2D2" stroke-miterlimit="10"/>
<path d="M1588.65 899.103C1601.65 880.744 1616.53 863.802 1632.8 848.453C1640.03 841.637 1647.66 835.036 1656.62 830.614C1674.57 821.76 1694.81 822.919 1713.69 827.699C1718.88 829.013 1723.98 830.579 1728.9 832.301C1749.91 839.735 1770.04 849.859 1788.72 862.199C1807.21 874.423 1824.2 889.525 1844.91 899.88C1861.89 908.365 1880.28 915.779 1899.03 918.701C1915.12 921.183 1932.01 919.789 1946.14 911.917C1948.69 910.498 1951.13 908.881 1953.45 907.064C1967.71 895.868 1975.47 878.488 1980.06 860.609C1981.51 854.932 1982.66 849.202 1983.65 843.539C1986.23 828.737 1988.22 813.66 1990.82 799.303C1995 776.194 2002.81 755.861 2016.37 737.876C2025.07 726.327 2037.8 715.961 2052.97 713.507C2074.58 710.007 2094.35 719.211 2112.9 724.75C2114.36 725.186 2115.83 725.603 2117.3 725.999C2139.61 731.975 2162.68 733.031 2184.17 725.112C2207.08 716.689 2227.93 696.266 2231.7 669.623" stroke="#CDCDCD" stroke-miterlimit="10"/>
<path d="M1592.28 906.29C1604.99 888.281 1619.65 871.744 1635.74 856.857C1642.88 850.247 1650.41 843.871 1659.19 839.532C1676.77 830.846 1696.52 831.499 1715.06 835.625C1720.17 836.761 1725.18 838.136 1730.04 839.669C1750.78 846.288 1770.72 855.585 1789.33 867.085C1807.73 878.477 1824.73 892.72 1845.12 902.655C1862.62 911.181 1881.38 918.871 1900.59 922.036C1917.05 924.722 1934.42 923.481 1948.95 915.556C1951.58 914.125 1954.1 912.489 1956.48 910.642C1971.19 899.259 1979.11 881.452 1983.92 863.125C1985.44 857.313 1986.66 851.445 1987.73 845.655C1990.54 830.519 1992.9 815.092 1995.99 800.439C2000.98 776.819 2009.96 756.356 2024.55 738.371C2033.35 727.523 2045.75 717.641 2060.46 715.139C2081.42 711.569 2100.7 719.671 2118.73 724.152C2120.16 724.505 2121.58 724.838 2123.02 725.151C2144.68 729.864 2166.74 729.658 2186.97 721.069C2208.53 711.934 2227.76 691.623 2230.78 665.74" stroke="#C7C7C7" stroke-miterlimit="10"/>
<path d="M1595.91 913.478C1608.34 895.82 1622.78 879.688 1638.67 865.262C1645.72 858.858 1653.17 852.708 1661.76 848.452C1678.97 839.935 1698.24 840.079 1716.43 843.551C1721.45 844.508 1726.39 845.695 1731.18 847.038C1751.64 852.842 1771.4 861.311 1789.93 871.971C1808.25 882.531 1825.26 895.906 1845.33 905.431C1863.36 913.991 1882.47 921.964 1902.15 925.372C1918.97 928.263 1936.83 927.175 1951.76 919.197C1954.47 917.755 1957.06 916.098 1959.52 914.22C1974.67 902.651 1982.75 884.416 1987.78 865.642C1989.37 859.694 1990.66 853.689 1991.82 847.772C1994.85 832.302 1997.58 816.524 2001.17 801.575C2006.96 777.445 2017.06 756.822 2032.73 738.865C2041.6 728.7 2053.69 719.32 2067.94 716.77C2088.25 713.131 2107.04 720.13 2124.57 723.553C2125.95 723.822 2127.34 724.073 2128.72 724.301C2149.74 727.752 2170.79 726.282 2189.76 717.024C2209.97 707.176 2227.59 686.978 2229.86 661.855" stroke="#C2C2C2" stroke-miterlimit="10"/>
<path d="M1599.54 920.667C1611.68 903.36 1625.91 887.632 1641.61 873.668C1648.57 867.47 1655.92 861.545 1664.34 857.371C1681.16 849.023 1699.95 848.659 1717.8 851.478C1722.73 852.256 1727.6 853.252 1732.33 854.405C1752.51 859.395 1772.09 867.036 1790.53 876.858C1808.77 886.586 1825.8 899.083 1845.53 908.207C1864.1 916.791 1883.57 925.057 1903.7 928.708C1920.9 931.804 1939.24 930.867 1954.58 922.837C1957.36 921.384 1960.03 919.708 1962.56 917.8C1978.16 906.045 1986.4 887.382 1991.64 868.16C1993.3 862.076 1994.66 855.934 1995.91 849.889C1999.16 834.085 2002.29 817.965 2006.34 802.712C2012.98 778.084 2024.13 757.253 2040.91 739.361C2049.83 729.858 2061.64 721.001 2075.43 718.402C2095.09 714.694 2113.39 720.59 2130.4 722.954C2131.75 723.14 2133.09 723.307 2134.44 723.452C2154.8 725.64 2174.85 722.908 2192.56 712.979C2211.42 702.419 2227.42 682.333 2228.95 657.969" stroke="#BCBCBC" stroke-miterlimit="10"/>
<path d="M1603.16 927.853C1615.03 910.897 1629.03 895.574 1644.54 882.072C1651.42 876.08 1658.68 870.38 1666.91 866.289C1683.36 858.11 1701.67 857.237 1719.17 859.404C1724.02 860.003 1728.8 860.81 1733.47 861.773C1753.37 865.948 1772.77 872.762 1791.13 881.744C1809.29 890.64 1826.35 902.251 1845.74 910.982C1864.84 919.581 1884.67 928.149 1905.26 932.043C1922.83 935.343 1941.65 934.559 1957.39 926.476C1960.25 925.011 1962.99 923.316 1965.6 921.378C1981.64 909.437 1990.04 890.346 1995.5 870.676C1997.22 864.457 1998.66 858.177 1999.99 852.005C2003.47 835.866 2006.97 819.397 2011.52 803.848C2018.96 778.711 2031.16 757.637 2049.1 739.855C2058.04 730.993 2069.58 722.68 2082.92 720.033C2101.93 716.255 2119.74 721.049 2136.24 722.355C2137.54 722.457 2138.85 722.54 2140.15 722.602C2159.87 723.527 2178.92 719.533 2195.36 708.934C2212.87 697.662 2227.25 677.687 2228.03 654.084" stroke="#B7B7B7" stroke-miterlimit="10"/>
<path d="M1606.79 935.04C1618.37 918.435 1632.16 903.517 1647.47 890.476C1654.26 884.69 1661.43 879.216 1669.48 875.206C1685.56 867.196 1703.38 865.812 1720.54 867.328C1725.3 867.748 1730 868.365 1734.62 869.139C1754.23 872.5 1773.45 878.485 1791.73 886.628C1809.81 894.692 1826.89 905.409 1845.95 913.755C1865.59 922.36 1885.77 931.239 1906.82 935.376C1924.75 938.881 1944.06 938.25 1960.21 930.114C1963.14 928.638 1965.96 926.923 1968.63 924.955C1985.13 912.828 1993.68 893.309 1999.36 873.191C2001.15 866.836 2002.66 860.419 2004.08 854.12C2007.78 837.647 2011.65 820.828 2016.69 804.983C2024.94 779.337 2038.14 757.967 2057.28 740.349C2066.23 732.106 2077.53 724.359 2090.4 721.664C2108.76 717.817 2126.08 721.508 2142.08 721.755C2143.34 721.774 2144.6 721.773 2145.86 721.752C2164.93 721.414 2182.97 716.158 2198.15 704.889C2214.32 692.905 2227.09 673.042 2227.11 650.199" stroke="#B1B1B1" stroke-miterlimit="10"/>
<path d="M1610.42 942.229C1621.71 925.974 1635.29 911.461 1650.41 898.882C1657.11 893.302 1664.19 888.052 1672.05 884.125C1687.75 876.283 1705.1 874.389 1721.91 875.255C1726.58 875.495 1731.21 875.924 1735.76 876.508C1755.1 879.054 1774.13 884.212 1792.34 891.515C1810.33 898.746 1827.44 908.562 1846.15 916.531C1866.34 925.13 1886.87 934.331 1908.38 938.711C1926.68 942.42 1946.47 941.942 1963.02 933.753C1966.03 932.266 1968.92 930.532 1971.67 928.534C1988.61 916.22 1997.32 896.273 2003.22 875.708C2005.08 869.218 2006.67 862.664 2008.16 856.237C2012.09 839.43 2016.32 822.26 2021.86 806.118C2030.91 779.963 2045.08 758.235 2065.46 740.842C2074.42 733.197 2085.48 726.037 2097.89 723.294C2115.59 719.377 2132.43 721.967 2147.91 721.156C2149.13 721.091 2150.35 721.008 2151.57 720.902C2169.99 719.301 2187.03 712.783 2200.95 700.844C2215.77 688.148 2226.92 668.396 2226.2 646.312" stroke="#ABABAB" stroke-miterlimit="10"/>
<path d="M1614.05 949.415C1625.06 933.511 1638.41 919.403 1653.34 907.285C1659.96 901.912 1666.94 896.888 1674.62 893.043C1689.95 885.37 1706.81 882.962 1723.28 883.179C1727.86 883.239 1732.41 883.479 1736.9 883.874C1755.96 885.605 1774.81 889.935 1792.94 896.399C1810.85 902.798 1827.99 911.704 1846.36 919.304C1867.1 927.885 1887.96 937.422 1909.93 942.045C1928.61 945.959 1948.88 945.633 1965.83 937.391C1968.92 935.893 1971.89 934.138 1974.71 932.11C1992.09 919.61 2000.97 899.236 2007.08 878.223C2009.01 871.597 2010.66 864.906 2012.25 858.351C2016.39 841.21 2021 823.691 2027.03 807.253C2036.89 780.588 2051.99 758.431 2073.64 741.336C2082.59 734.267 2093.42 727.716 2105.37 724.925C2122.43 720.939 2138.77 722.426 2153.74 720.556C2154.93 720.408 2156.1 720.241 2157.28 720.052C2175.06 717.189 2191.09 709.408 2203.74 696.799C2217.21 683.391 2226.75 663.752 2225.28 642.428" stroke="#A6A6A6" stroke-miterlimit="10"/>
<path d="M1617.68 956.602C1628.4 941.049 1641.54 927.345 1656.27 915.689C1662.8 910.522 1669.69 905.723 1677.19 901.961C1692.15 894.457 1708.52 891.535 1724.65 891.105C1729.14 890.985 1733.62 891.037 1738.05 891.241C1756.82 892.158 1775.49 895.66 1793.54 901.284C1811.37 906.851 1828.54 914.841 1846.56 922.078C1867.86 930.629 1889.06 940.513 1911.49 945.379C1930.53 949.497 1951.29 949.324 1968.65 941.03C1971.81 939.52 1974.85 937.746 1977.74 935.688C1995.57 923.002 2004.61 902.201 2010.94 880.739C2012.93 873.977 2014.66 867.149 2016.33 860.467C2020.7 842.991 2025.68 825.124 2032.21 808.389C2042.87 781.215 2058.86 758.549 2081.82 741.83C2090.77 735.315 2101.37 729.395 2112.86 726.555C2129.26 722.499 2145.12 722.883 2159.58 719.955C2160.72 719.724 2161.86 719.473 2162.99 719.2C2180.12 715.074 2195.15 706.031 2206.54 692.752C2218.66 678.632 2226.58 659.105 2224.36 638.541" stroke="#A0A0A0" stroke-miterlimit="10"/>
<path d="M1621.3 963.789C1631.75 948.587 1644.67 935.288 1659.21 924.094C1665.65 919.133 1672.45 914.559 1679.76 910.88C1694.34 903.545 1710.23 900.081 1726.02 899.031C1730.43 898.723 1734.82 898.595 1739.19 898.609C1757.69 898.711 1776.17 901.385 1794.14 906.17C1811.89 910.905 1829.1 917.972 1846.77 924.853C1868.62 933.36 1890.16 943.605 1913.05 948.714C1932.46 953.037 1953.7 953.017 1971.46 944.669C1974.7 943.148 1977.82 941.354 1980.78 939.266C1999.06 926.394 2008.25 905.164 2014.8 883.255C2016.86 876.358 2018.67 869.392 2020.42 862.582C2025.01 844.772 2030.36 826.555 2037.38 809.524C2048.84 781.841 2065.7 758.578 2090.01 742.324C2098.95 736.341 2109.31 731.073 2120.35 728.186C2136.1 724.061 2151.47 723.343 2165.42 719.356C2166.52 719.041 2167.61 718.707 2168.7 718.351C2185.18 712.962 2199.21 702.657 2209.33 688.708C2220.11 673.875 2226.41 654.46 2223.44 634.656" stroke="#9B9B9B" stroke-miterlimit="10"/>
<path d="M1624.93 970.978C1635.09 956.127 1647.79 943.232 1662.14 932.5C1668.5 927.745 1675.2 923.397 1682.33 919.799C1696.54 912.632 1711.95 908.66 1727.39 906.957C1731.71 906.47 1736.03 906.152 1740.34 905.977C1758.55 905.265 1776.86 907.111 1794.75 911.057C1812.41 914.96 1829.65 921.098 1846.98 927.629C1869.39 936.077 1891.26 946.698 1914.61 952.05C1934.39 956.577 1956.11 956.71 1974.28 948.309C1977.59 946.777 1980.78 944.963 1983.82 942.844C2002.54 929.786 2011.89 908.129 2018.66 885.772C2020.79 878.739 2022.67 871.636 2024.51 864.699C2029.32 846.555 2035.04 827.988 2042.56 810.66C2054.82 782.468 2072.51 758.514 2098.19 742.818C2107.14 737.346 2117.26 732.753 2127.83 729.817C2142.93 725.622 2157.82 723.802 2171.25 718.756C2172.31 718.358 2173.37 717.94 2174.42 717.5C2190.25 710.848 2203.27 699.28 2212.13 684.662C2221.56 669.117 2226.25 649.814 2222.53 630.77" stroke="#959595" stroke-miterlimit="10"/>
<path d="M1628.56 978.166C1638.44 963.666 1650.92 951.176 1665.08 940.905C1671.35 936.356 1677.96 932.233 1684.91 928.718C1698.74 921.72 1713.66 917.239 1728.76 914.884C1732.99 914.218 1737.24 913.711 1741.48 913.346C1759.42 911.819 1777.54 912.837 1795.35 915.944C1812.93 919.015 1830.2 924.218 1847.18 930.406C1870.16 938.779 1892.36 949.792 1916.17 955.387C1936.32 960.119 1958.52 960.404 1977.09 951.95C1980.48 950.407 1983.75 948.573 1986.86 946.424C2006.03 933.179 2015.54 911.095 2022.52 888.29C2024.72 881.121 2026.67 873.881 2028.59 866.817C2033.63 848.339 2039.72 829.422 2047.73 811.798C2060.8 783.096 2079.31 758.352 2106.37 743.315C2115.34 738.332 2125.2 734.434 2135.32 731.451C2149.77 727.187 2164.16 724.264 2177.09 718.16C2178.11 717.678 2179.12 717.177 2180.13 716.654C2195.31 708.739 2207.33 695.909 2214.93 680.621C2223.01 664.364 2226.08 645.173 2221.61 626.889" stroke="#909090" stroke-miterlimit="10"/>
<path d="M1632.19 985.352C1654.48 952.473 1691.21 930.741 1730.13 922.808C1769.05 914.875 1809.92 920 1847.39 933.178C1870.94 941.46 1893.46 952.881 1917.73 958.719C1942 964.558 1969.3 964.103 1989.9 950C2015.68 932.35 2024.27 899.018 2032.68 868.931C2046.52 819.454 2068.64 766.842 2114.56 743.807C2137.43 732.333 2164.2 729.459 2185.84 715.801C2215.84 696.865 2230.81 657.006 2220.7 623" stroke="#8A8A8A" stroke-miterlimit="10"/>
<path d="M1714.45 1038.97C1685.31 1020.95 1683.94 976.784 1701.04 947.088C1718.13 917.392 1747.9 897.754 1774.36 875.988C1800.82 854.222 1826.26 826.254 1828.44 792.061C1831.24 748.347 1795.09 708.662 1799.72 665.105C1803.33 631.156 1831.06 605.474 1860.2 591.139C1876.67 583.034 1895.72 580.189 1912.77 573.492C1990.11 543.123 2058.87 592.151 2107.06 552.269C2159.23 509.085 2156.57 460.761 2146.93 436.945C2134.58 406.44 2093.22 338.879 2011.77 357.492C1978.69 365.053 1944.73 371.483 1910.86 369.382C1860.14 366.237 1810.82 326.334 1807.58 275.625C1805.36 240.871 1823.39 204.724 1810.84 172.239C1802.41 150.405 1781.05 135.297 1758.27 129.926C1735.49 124.554 1711.46 127.784 1688.95 134.174" stroke="white" stroke-miterlimit="10"/>
<path d="M1716.72 1038.85C1687.64 1019.2 1685 974.244 1702.15 943.304C1718.9 913.104 1748.95 892.976 1775.98 871.662C1802.69 850.6 1828.45 824.079 1831.97 791.08C1836.45 748.903 1803.49 709.545 1808.34 666.218C1812.28 631.766 1838.01 605.243 1866.24 589.279C1882.46 580.108 1901.66 575.866 1919.29 568.664C1994.02 538.136 2061.23 584.714 2108.45 545.761C2159.22 503.847 2157.78 456.763 2148.73 432.791C2137.25 402.414 2097.24 337.515 2018.52 353.684C1986.07 360.35 1952.38 365.757 1918.84 363.516C1869.43 360.314 1821.58 322.182 1817.26 273.301C1814.26 239.482 1830.64 203.82 1818.34 171.637C1809.97 149.598 1789.45 134.046 1767.34 127.583C1745.03 121.06 1721.11 122.645 1698.28 127.831" stroke="#FBFBFB" stroke-miterlimit="10"/>
<path d="M1719 1038.72C1689.97 1017.45 1686.06 971.71 1703.27 939.517C1719.68 908.823 1750.01 888.19 1777.61 867.333C1804.56 846.969 1830.63 821.902 1835.5 790.097C1841.66 749.457 1811.8 710.414 1816.96 667.329C1821.14 632.365 1844.97 604.968 1872.29 587.418C1888.25 577.16 1907.61 571.549 1925.81 563.836C1997.95 533.261 2063.59 577.276 2109.84 539.254C2159.2 498.61 2158.99 452.772 2150.53 428.638C2139.92 398.395 2101.23 336.117 2025.27 349.877C1993.43 355.644 1960.03 360.031 1926.82 357.651C1878.72 354.392 1832.33 318.019 1826.93 270.979C1823.16 238.084 1837.88 202.918 1825.84 171.037C1817.53 148.792 1797.83 132.78 1776.41 125.243C1754.56 117.554 1730.75 117.51 1707.61 121.49" stroke="#F6F6F6" stroke-miterlimit="10"/>
<path d="M1721.27 1038.6C1692.3 1015.7 1687.13 969.187 1704.39 935.734C1720.48 904.553 1751.05 883.405 1779.24 863.008C1806.42 843.336 1832.82 819.729 1839.03 789.117C1846.86 750.014 1820.16 711.293 1825.57 668.443C1830.05 632.972 1851.92 604.655 1878.33 585.559C1894.05 574.193 1913.55 567.244 1932.33 559.009C2001.92 528.488 2065.95 569.839 2111.23 532.748C2159.18 493.373 2160.19 448.787 2152.32 424.485C2142.57 394.384 2105.19 334.68 2032.02 346.07C2000.77 350.934 1967.69 354.211 1934.8 351.786C1888.02 348.336 1843.05 313.845 1836.6 268.658C1832.04 236.676 1845.04 202.046 1833.34 170.438C1825.03 148.008 1806.21 131.495 1785.48 122.903C1764.07 114.031 1740.39 112.375 1716.95 115.15" stroke="#F2F2F2" stroke-miterlimit="10"/>
<path d="M1723.55 1038.48C1694.63 1013.95 1688.21 966.667 1705.51 931.948C1721.29 900.288 1752.08 878.612 1780.86 858.679C1808.27 839.693 1835 817.551 1842.56 788.133C1852.07 750.566 1828.53 712.168 1834.19 669.553C1838.96 633.575 1858.86 604.299 1884.37 583.697C1899.84 571.202 1919.49 562.945 1938.85 554.179C2005.92 523.8 2068.31 562.4 2112.62 526.238C2159.16 488.133 2161.39 444.804 2154.12 420.329C2145.22 390.376 2109.11 333.193 2038.76 342.26C2008.09 346.213 1975.34 348.455 1942.78 345.918C1897.31 342.375 1853.76 309.656 1846.28 266.332C1840.92 235.251 1852.27 201.146 1840.84 169.834C1832.58 147.203 1814.59 130.186 1794.55 120.559C1773.58 110.485 1750.03 107.235 1726.28 108.805" stroke="#EEEEEE" stroke-miterlimit="10"/>
<path d="M1725.83 1038.36C1696.96 1012.2 1689.3 964.158 1706.63 928.166C1722.1 896.033 1753.11 873.816 1782.49 854.354C1810.12 836.048 1837.24 815.397 1846.08 787.154C1857.36 751.147 1836.9 713.047 1842.8 670.667C1847.88 634.182 1865.79 603.912 1890.41 581.839C1905.63 568.195 1925.44 558.659 1945.37 549.353C2009.94 519.196 2070.67 554.964 2114.01 519.733C2159.15 482.897 2162.58 440.83 2155.92 416.178C2147.86 386.379 2112.99 331.658 2045.51 338.454C2015.39 341.487 1982.99 342.705 1950.76 340.053C1906.6 336.421 1864.43 305.46 1855.95 264.011C1849.78 233.82 1859.49 200.251 1848.34 169.235C1840.13 146.403 1822.96 128.861 1803.62 118.219C1783.09 106.924 1759.67 102.1 1735.62 102.465" stroke="#E9E9E9" stroke-miterlimit="10"/>
<path d="M1728.1 1038.24C1699.29 1010.45 1690.39 961.65 1707.75 924.38C1722.92 891.779 1754.13 869.012 1784.11 850.027C1811.96 832.394 1839.43 813.227 1849.61 786.172C1862.58 751.71 1845.28 713.925 1851.42 671.78C1856.8 634.788 1872.71 603.492 1896.45 579.979C1911.41 565.169 1931.38 554.382 1951.88 544.525C2013.99 514.662 2073.03 547.527 2115.4 513.226C2159.13 477.66 2163.76 436.858 2157.71 412.024C2150.49 382.384 2116.83 330.06 2052.26 334.646C2022.67 336.748 1990.64 336.955 1958.73 334.187C1915.89 330.47 1875.08 301.253 1865.63 261.688C1858.62 232.377 1866.72 199.352 1855.83 168.634C1847.67 145.6 1831.33 127.514 1812.69 115.878C1792.6 103.342 1769.32 96.964 1744.95 96.123" stroke="#E5E5E5" stroke-miterlimit="10"/>
<path d="M1730.38 1038.12C1701.63 1008.71 1691.5 959.147 1708.87 920.595C1723.76 887.531 1755.15 864.202 1785.74 845.7C1813.79 828.734 1841.62 811.059 1853.14 785.19C1867.79 752.274 1853.67 714.803 1860.03 672.892C1865.72 635.393 1879.61 603.046 1902.5 578.118C1917.18 562.126 1937.33 550.115 1958.4 539.696C2018.07 510.192 2075.39 540.088 2116.79 506.718C2159.11 472.422 2164.94 432.889 2159.51 407.87C2153.11 378.395 2119.75 320.173 2059 330.838C2030.35 335.87 1998.29 331.208 1966.71 328.321C1925.18 324.524 1885.7 297.038 1875.3 259.365C1867.45 230.925 1873.95 198.453 1863.33 168.033C1855.22 144.797 1839.71 126.147 1821.76 113.536C1802.11 99.7392 1778.96 91.8263 1754.28 89.7812" stroke="#E1E1E1" stroke-miterlimit="10"/>
<path d="M1732.65 1037.99C1703.96 1006.96 1692.62 956.649 1709.98 916.811C1724.6 883.288 1756.16 859.385 1787.36 841.374C1815.62 825.067 1843.81 808.891 1856.67 784.209C1873.01 752.838 1862.06 715.683 1868.65 674.005C1874.65 636.001 1886.49 602.579 1908.54 576.259C1922.93 559.072 1943.28 545.862 1964.92 534.869C2022.18 505.782 2077.75 532.652 2118.19 500.211C2159.09 467.184 2166.11 428.925 2161.31 403.717C2155.72 374.41 2123.66 317.742 2065.75 327.031C2037.53 331.558 2005.95 325.464 1974.69 322.456C1934.47 318.584 1896.29 292.818 1884.98 257.043C1876.26 229.466 1881.19 197.553 1870.83 167.433C1862.78 143.994 1848.1 124.763 1830.83 111.196C1811.63 96.1204 1788.6 86.6914 1763.62 83.4414" stroke="#DCDCDC" stroke-miterlimit="10"/>
<path d="M1734.93 1037.87C1706.29 1005.21 1693.74 954.158 1711.1 913.028C1725.45 879.049 1757.17 854.562 1788.99 837.049C1817.44 821.394 1846 806.725 1860.2 783.23C1878.22 753.405 1870.46 716.566 1877.26 675.12C1883.59 636.61 1893.35 602.097 1914.58 574.401C1928.68 556.008 1949.24 541.623 1971.44 530.043C2026.3 501.425 2080.11 525.216 2119.58 493.706C2159.08 461.949 2167.27 424.966 2163.1 399.565C2158.32 370.43 2127.61 315.394 2072.5 323.225C2044.66 327.181 2013.6 319.725 1982.67 316.592C1943.76 312.65 1906.83 288.597 1894.65 254.722C1885.04 228.002 1888.42 196.653 1878.33 166.834C1870.33 143.191 1856.5 123.365 1839.9 108.856C1821.16 92.4836 1798.24 81.5556 1772.95 77.0996" stroke="#D8D8D8" stroke-miterlimit="10"/>
<path d="M1737.2 1037.75C1708.62 1003.46 1694.87 951.668 1712.22 909.244C1726.3 874.812 1758.17 849.73 1790.62 832.722C1819.26 817.712 1848.18 804.556 1863.72 782.248C1883.43 753.968 1878.86 717.446 1885.88 676.232C1892.52 637.218 1900.19 601.599 1920.62 572.541C1934.41 552.933 1955.21 537.397 1977.96 525.215C2030.45 497.114 2082.47 517.779 2120.97 487.199C2159.06 456.711 2168.42 421.006 2164.9 395.412C2160.91 366.451 2131.59 313.136 2079.25 319.418C2051.73 322.721 2021.25 313.988 1990.65 310.727C1953.05 306.72 1917.34 284.377 1904.33 252.4C1893.8 226.534 1895.66 195.751 1885.83 166.234C1877.88 142.386 1864.91 121.952 1848.97 106.516C1830.7 88.8318 1807.89 76.4208 1782.28 70.7598" stroke="#D4D4D4" stroke-miterlimit="10"/>
<path d="M1739.48 1037.63C1710.95 1001.71 1696.01 949.18 1713.34 905.458C1727.17 870.576 1759.16 844.888 1792.24 828.394C1821.07 814.021 1850.36 802.385 1867.25 781.265C1888.63 754.528 1887.26 718.326 1894.49 677.343C1901.47 637.825 1907.01 601.091 1926.67 570.679C1940.13 549.849 1961.18 533.184 1984.48 520.385C2034.62 492.843 2084.83 510.339 2122.36 480.689C2159.04 451.471 2169.56 417.046 2166.69 391.255C2163.49 362.47 2135.55 320.86 2086 315.607C2058.78 312.721 2028.9 308.25 1998.63 304.858C1962.34 300.791 1927.8 280.158 1914 250.074C1902.53 225.065 1902.9 194.844 1893.33 165.63C1885.44 141.576 1873.33 120.525 1858.03 104.171C1840.26 85.1641 1817.53 71.2801 1791.62 64.4141" stroke="#CFCFCF" stroke-miterlimit="10"/>
<path d="M1741.75 1037.51C1713.28 999.962 1697.16 946.694 1714.46 901.672C1728.04 866.341 1760.15 840.038 1793.87 824.066C1822.88 810.323 1852.54 800.212 1870.78 780.282C1893.83 755.086 1895.67 719.207 1903.11 678.454C1910.41 638.433 1913.82 600.577 1932.71 568.818C1945.83 546.761 1967.16 528.99 1991 515.556C2038.81 488.611 2087.25 502.975 2123.75 474.181C2159.08 446.305 2170.7 413.088 2168.49 387.101C2166.06 358.493 2139.23 318.722 2092.74 311.799C2065.95 307.809 2036.55 302.519 2006.61 298.991C1971.63 294.87 1938.22 275.952 1923.67 247.75C1911.22 223.605 1910.15 193.938 1900.82 165.028C1893 140.768 1881.76 119.091 1867.1 101.829C1849.83 81.4883 1827.17 66.1433 1800.95 58.0723" stroke="#CBCBCB" stroke-miterlimit="10"/>
<path d="M1744.03 1037.39C1715.61 998.215 1698.32 944.215 1715.58 897.889C1728.91 862.112 1761.14 835.181 1795.5 819.741C1824.69 806.621 1854.72 798.041 1874.31 779.303C1899.04 755.646 1904.09 720.092 1911.73 679.569C1919.37 639.045 1920.6 600.064 1938.75 566.96C1951.52 543.673 1973.15 524.819 1997.52 510.731C2043.03 484.418 2089.62 495.541 2125.14 467.677C2159.06 441.07 2171.83 409.134 2170.29 382.951C2168.62 354.521 2142.91 316.474 2099.49 307.994C2073.13 302.845 2044.2 296.796 2014.59 293.128C1980.92 288.958 1948.59 271.768 1933.35 245.43C1919.88 222.163 1917.4 193.036 1908.32 164.43C1900.56 139.963 1890.21 117.657 1876.17 99.4904C1859.42 77.8084 1836.82 61.0094 1810.29 51.7324" stroke="#C7C7C7" stroke-miterlimit="10"/>
<path d="M1746.3 1037.27C1717.94 996.467 1699.48 941.736 1716.7 894.106C1729.79 857.883 1762.13 830.315 1797.12 815.416C1826.49 802.911 1856.9 795.867 1877.84 778.323C1904.23 756.202 1912.5 720.978 1920.34 680.683C1928.32 639.658 1927.37 599.548 1944.79 565.102C1957.2 540.583 1979.16 520.669 2004.04 505.905C2047.26 480.255 2091.97 488.105 2126.53 461.171C2159.04 435.832 2172.94 405.178 2172.08 378.798C2171.17 350.544 2146.6 314.107 2106.24 304.187C2080.31 297.815 2051.85 291.076 2022.57 287.263C1990.21 283.05 1958.92 267.606 1943.02 243.108C1928.5 220.739 1924.64 192.131 1915.82 163.831C1908.13 139.157 1898.67 116.217 1885.24 97.1506C1869.02 74.1216 1846.46 55.8736 1819.62 45.3926" stroke="#C2C2C2" stroke-miterlimit="10"/>
<path d="M1748.58 1037.14C1720.27 994.719 1700.65 939.258 1717.81 890.321C1730.67 853.654 1763.11 825.438 1798.74 811.088C1828.29 799.191 1859.07 793.688 1881.36 777.34C1909.43 756.753 1920.92 721.861 1928.95 681.794C1937.28 640.269 1934.12 599.031 1950.83 563.24C1962.86 537.488 1985.18 516.539 2010.55 501.075C2051.51 476.116 2094.33 480.663 2127.92 454.662C2159.02 430.589 2174.04 401.218 2173.88 374.643C2173.7 346.564 2150.32 311.622 2112.98 300.378C2087.5 292.707 2059.5 285.359 2030.54 281.396C1999.49 277.145 1969.21 263.473 1952.69 240.784C1937.08 219.344 1931.9 191.222 1923.32 163.228C1915.69 138.345 1907.14 114.773 1894.31 94.8068C1878.64 70.4288 1856.1 50.7348 1828.95 39.0488" stroke="#BEBEBE" stroke-miterlimit="10"/>
<path d="M1750.85 1037.02C1722.6 992.971 1701.83 936.783 1718.93 886.537C1731.56 849.427 1764.09 820.551 1800.37 806.762C1830.09 795.465 1861.25 791.508 1884.89 776.36C1914.63 757.303 1929.35 722.749 1937.57 682.908C1946.24 640.884 1940.86 598.518 1956.88 561.382C1968.51 534.398 1991.22 512.442 2017.07 496.249C2055.78 472.005 2096.69 473.223 2129.31 448.157C2159 425.348 2175.14 397.26 2175.67 370.492C2176.23 342.587 2154.1 309.031 2119.73 296.573C2094.74 287.516 2067.15 279.653 2038.52 275.533C2008.78 271.251 1979.47 259.383 1962.37 238.464C1945.63 217.992 1939.15 190.318 1930.82 162.631C1923.26 137.539 1915.62 113.335 1903.38 92.4699C1888.28 66.7409 1865.74 45.6029 1838.29 32.7109" stroke="#BABABA" stroke-miterlimit="10"/>
<path d="M1753.13 1036.9C1724.93 991.22 1703.02 934.307 1720.05 882.75C1732.46 845.197 1765.07 815.653 1802 802.433C1831.9 791.73 1863.4 789.276 1888.42 775.376C1919.8 757.787 1937.78 723.633 1946.19 684.018C1955.21 641.496 1947.59 598.004 1962.92 559.519C1974.16 531.303 1997.29 508.37 2023.59 491.418C2060.07 467.91 2099 465.715 2130.7 441.646C2158.93 420.046 2176.22 393.293 2177.47 366.334C2178.75 338.598 2157.95 306.334 2126.48 292.761C2102.04 282.22 2074.79 273.947 2046.5 269.663C2018.06 265.356 1989.71 255.331 1972.04 236.137C1954.14 216.683 1946.41 189.406 1938.32 162.026C1930.84 136.725 1924.12 111.891 1912.45 90.1242C1897.93 63.0462 1875.38 40.4622 1847.62 26.3652" stroke="#B5B5B5" stroke-miterlimit="10"/>
<path d="M1755.4 1036.78C1727.26 989.473 1704.21 931.836 1721.17 878.967C1733.36 840.972 1766.05 810.748 1803.62 798.108C1833.7 787.992 1865.58 787.103 1891.94 774.396C1925 758.344 1946.21 724.523 1954.8 685.133C1964.18 642.114 1954.31 597.499 1968.96 557.662C1979.79 528.216 2003.38 504.341 2030.11 486.593C2064.38 463.84 2101.35 458.28 2132.09 435.142C2158.92 414.811 2177.3 389.329 2179.27 362.184C2181.26 334.615 2161.89 303.564 2133.22 288.957C2109.42 276.827 2082.44 268.257 2054.48 263.801C2027.34 259.475 1999.92 251.337 1981.72 233.818C1962.62 215.441 1953.67 188.501 1945.81 161.429C1938.41 135.917 1932.62 110.457 1921.52 87.7873C1907.59 59.3613 1885.02 35.3293 1856.95 20.0273" stroke="#B1B1B1" stroke-miterlimit="10"/>
<path d="M1757.68 1036.66C1729.59 987.726 1705.42 929.365 1722.29 875.183C1734.26 836.746 1767.02 805.833 1805.25 793.782C1835.5 784.246 1867.77 784.928 1895.47 773.415C1930.21 758.9 1954.72 725.43 1963.42 686.246C1973.24 642.751 1961.01 596.997 1975 555.802C1985.42 525.129 2009.51 500.351 2036.63 481.765C2068.71 459.782 2103.72 450.842 2133.48 428.635C2158.9 409.574 2178.36 385.358 2181.06 358.03C2183.77 330.622 2165.95 300.733 2139.97 285.149C2116.92 271.321 2090.08 262.573 2062.46 257.934C2036.63 253.596 2010.13 247.395 1991.39 231.494C1971.08 214.262 1960.98 187.577 1953.31 160.827C1946.03 135.091 1941.13 109.022 1930.59 85.4436C1917.27 55.6726 1894.67 30.1906 1866.29 13.6836" stroke="#ADADAD" stroke-miterlimit="10"/>
<path d="M1759.95 1036.54C1731.93 985.977 1706.7 926.918 1723.41 871.399C1735.22 832.537 1768 800.907 1806.88 789.455C1837.3 780.492 1869.95 782.753 1899 772.434C1935.42 759.455 1963.12 726.312 1972.03 687.359C1982.19 643.362 1967.71 596.499 1981.05 553.942C1991.04 522.043 2015.67 496.408 2043.15 476.937C2073.07 455.735 2106.08 443.405 2134.88 422.128C2158.88 404.336 2179.42 381.383 2182.86 353.877C2186.27 326.626 2170.17 297.88 2146.72 281.341C2124.56 265.712 2097.72 256.899 2070.44 252.068C2045.91 247.724 2020.35 243.511 2001.07 229.171C1979.53 213.156 1968.22 186.674 1960.81 160.226C1953.6 134.285 1949.65 107.593 1939.66 83.1028C1926.96 51.9908 1904.31 25.0548 1875.62 7.3418" stroke="#A8A8A8" stroke-miterlimit="10"/>
<path d="M1762.23 1036.41C1734.26 984.228 1707.84 924.424 1724.53 867.614C1736.07 828.293 1768.98 795.971 1808.5 785.128C1839.1 776.733 1872.14 780.578 1902.53 771.452C1940.63 760.01 1971.52 727.194 1980.65 688.471C1991.13 643.971 1974.41 596.005 1987.09 552.082C1996.65 518.961 2021.89 492.521 2049.67 472.109C2077.45 451.697 2108.44 435.967 2136.27 415.62C2158.87 399.098 2180.47 377.401 2184.66 349.723C2188.76 322.623 2174.55 295.046 2153.47 277.533C2132.38 260.02 2105.36 251.237 2078.42 246.202C2055.18 241.86 2030.59 239.684 2010.74 226.848C1987.98 212.126 1975.46 185.772 1968.31 159.625C1961.15 133.478 1958.18 106.168 1948.73 80.761C1936.65 48.312 1913.95 19.917 1884.96 1" stroke="#A4A4A4" stroke-miterlimit="10"/>
</g>
<rect x="1500" y="1" width="652" height="1037.97" fill="url(#paint0_linear_1008_658)"/>
<g opacity="0.1">
<path d="M1043.15 1133.62C1034.05 1172.62 1022.61 1211.06 1008.91 1248.69C1002.82 1265.41 996.066 1282.35 984.309 1295.72C954.254 1329.88 901.659 1330.94 856.769 1323.52C815.423 1316.69 774.897 1304.91 736.323 1288.53C698.098 1272.3 661.131 1251.35 620.174 1244.48C579.219 1237.6 531.584 1248.65 509.516 1283.83C496.386 1304.77 494.295 1331.26 499.425 1355.43C504.555 1379.6 516.314 1401.84 529.365 1422.82C544.309 1446.84 561.662 1471.16 563.905 1499.36C566.227 1528.56 550.095 1558.42 524.404 1572.48C487.856 1592.48 443.111 1579.93 402.124 1572.45C350.054 1562.95 294.2 1563.04 246.63 1586.25C199.058 1609.45 162.285 1659.89 167.166 1712.59" stroke="white" stroke-miterlimit="10"/>
<path d="M1033.92 1125.74C1025.05 1163.86 1013.8 1201.42 1000.27 1238.13C994.262 1254.45 987.588 1270.96 976.131 1284.05C946.847 1317.5 895.958 1319.34 852.311 1312.98C841.947 1311.46 831.631 1309.63 821.38 1307.49C791.861 1301.31 762.888 1292.53 734.913 1281.27C697.565 1266.24 661.365 1246.61 621.345 1240.3C581.331 1233.98 536.189 1245.52 512.884 1278.22C504.116 1290.52 498.13 1303.78 495.596 1318.1C493.864 1327.85 493.492 1337.96 494.507 1348.03C494.967 1352.63 495.7 1357.23 496.699 1361.85C500.706 1380.31 509.237 1398.39 518.574 1415.56C519.5 1417.26 520.433 1418.96 521.371 1420.65C535.973 1447.01 551.393 1473.97 552.236 1503.44C553.047 1531.84 538.064 1560.71 513.041 1574.57C477.439 1594.29 434.015 1582.99 394.357 1576.69C391.23 1576.19 388.091 1575.73 384.942 1575.31C337.341 1568.95 287.569 1571.54 245.098 1593.51C199.817 1616.92 165.228 1666.25 170.706 1717.47" stroke="#F9F9F9" stroke-miterlimit="10"/>
<path d="M1024.68 1117.85C1016.05 1155.1 1004.99 1191.77 991.635 1227.57C985.7 1243.48 979.11 1259.56 967.952 1272.38C939.442 1305.13 890.256 1307.74 847.853 1302.43C837.783 1301.17 827.753 1299.6 817.78 1297.72C789.061 1292.31 760.82 1284.36 733.502 1274C697.03 1260.17 661.599 1241.88 622.513 1236.12C583.44 1230.37 540.524 1242.33 516.248 1272.61C506.458 1284.82 498.453 1296.86 494.188 1310.76C491.271 1320.23 489.633 1330.29 489.584 1340.62C489.554 1345.35 489.842 1350.15 490.467 1355.03C492.995 1374.55 501.473 1394.29 510.633 1412.94C511.542 1414.79 512.455 1416.64 513.372 1418.48C527.631 1447.18 541.156 1476.65 540.561 1507.52C540.03 1535.05 526.028 1563 501.673 1576.66C467.017 1596.09 424.914 1586.05 386.583 1580.92C383.562 1580.52 380.529 1580.15 377.488 1579.82C331.524 1574.84 283.884 1578.6 243.56 1600.76C200.568 1624.38 168.164 1672.62 174.242 1722.34" stroke="#F4F4F4" stroke-miterlimit="10"/>
<path d="M1015.45 1109.96C1007.05 1146.34 996.18 1182.12 982.999 1217C977.14 1232.51 970.633 1248.17 959.775 1260.71C932.036 1292.75 884.556 1296.14 843.396 1291.88C833.62 1290.87 823.877 1289.56 814.181 1287.95C786.259 1283.31 758.754 1276.2 732.09 1266.74C696.494 1254.11 661.831 1237.14 623.682 1231.95C585.55 1226.75 544.606 1239.06 519.614 1266.99C508.735 1279.15 498.779 1289.94 492.782 1303.42C488.681 1312.61 485.774 1322.62 484.664 1333.22C484.145 1338.07 483.987 1343.06 484.239 1348.22C485.287 1368.79 493.711 1390.19 502.696 1410.32C503.587 1412.32 504.482 1414.31 505.374 1416.3C519.293 1447.35 530.972 1479.23 528.888 1511.6C527.173 1538.22 513.994 1565.29 490.306 1578.75C456.597 1597.9 415.814 1589.11 378.812 1585.15C375.895 1584.84 372.969 1584.57 370.037 1584.33C325.708 1580.72 280.202 1585.66 242.025 1608.02C201.324 1631.84 171.103 1678.98 177.78 1727.21" stroke="#EEEEEE" stroke-miterlimit="10"/>
<path d="M1006.21 1102.08C998.052 1137.58 987.37 1172.47 974.362 1206.44C968.58 1221.54 962.157 1236.77 951.599 1249.04C924.632 1280.37 878.856 1284.54 838.94 1281.33C829.459 1280.57 820.002 1279.52 810.584 1278.17C783.462 1274.31 756.689 1268.03 730.682 1259.47C695.96 1248.04 662.069 1232.4 624.853 1227.77C587.664 1223.13 548.457 1235.7 522.983 1261.38C510.95 1273.51 499.106 1283.02 491.378 1296.08C486.091 1304.99 481.919 1314.95 479.746 1325.81C478.737 1330.79 478.133 1335.98 478.014 1341.4C477.583 1363.03 485.952 1386.1 494.761 1407.71C495.634 1409.85 496.509 1411.99 497.381 1414.13C510.957 1447.52 520.853 1481.74 517.218 1515.68C514.469 1541.36 501.963 1567.59 478.945 1580.84C446.181 1599.71 406.719 1592.17 371.045 1589.39C368.232 1589.17 365.413 1588.99 362.588 1588.84C319.894 1586.61 276.521 1592.72 240.492 1615.28C202.08 1639.31 174.043 1685.35 181.319 1732.08" stroke="#E9E9E9" stroke-miterlimit="10"/>
<path d="M996.979 1094.19C989.052 1128.82 978.558 1162.82 965.723 1195.88C960.017 1210.58 953.677 1225.37 943.421 1237.37C917.225 1268 873.155 1272.94 834.482 1270.78C825.295 1270.27 816.124 1269.48 806.984 1268.4C780.661 1265.3 754.621 1259.86 729.27 1252.2C695.425 1241.98 662.301 1227.66 626.022 1223.59C589.774 1219.52 552.102 1232.22 526.348 1255.76C513.099 1267.87 499.431 1276.1 489.971 1288.75C483.498 1297.37 478.061 1307.27 474.824 1318.41C473.325 1323.52 472.277 1328.89 471.783 1334.58C469.872 1357.26 478.188 1382 486.821 1405.09C487.678 1407.38 488.532 1409.66 489.381 1411.95C502.615 1447.68 510.797 1484.19 505.544 1519.76C501.891 1544.48 489.928 1569.88 467.577 1582.93C435.76 1601.52 397.618 1595.22 363.273 1593.62C360.565 1593.49 357.852 1593.4 355.135 1593.35C314.078 1592.5 272.837 1599.78 238.956 1622.53C202.834 1646.77 176.981 1691.71 184.856 1736.95" stroke="#E3E3E3" stroke-miterlimit="10"/>
<path d="M987.747 1086.3C980.053 1120.06 969.75 1153.18 957.086 1185.32C951.457 1199.61 945.2 1213.97 935.244 1225.7C909.82 1255.62 867.455 1261.34 830.026 1260.23C821.133 1259.98 812.249 1259.44 803.388 1258.63C777.864 1256.3 752.559 1251.7 727.862 1244.94C694.894 1235.91 662.539 1222.92 627.193 1219.41C591.887 1215.9 555.577 1228.63 529.717 1250.15C515.195 1262.23 499.761 1269.17 488.567 1281.41C480.91 1289.75 474.205 1299.6 469.908 1311C467.92 1316.24 466.425 1321.81 465.561 1327.77C462.171 1351.5 470.432 1377.91 478.89 1402.47C479.729 1404.9 480.563 1407.34 481.391 1409.78C494.284 1447.85 500.833 1486.61 493.878 1523.83C489.439 1547.59 477.902 1572.17 456.219 1585.02C425.348 1603.32 388.529 1598.28 355.509 1597.85C352.906 1597.82 350.299 1597.82 347.691 1597.85C308.269 1598.39 269.163 1606.84 237.428 1629.79C203.595 1654.23 179.927 1698.08 188.402 1741.82" stroke="#DEDEDE" stroke-miterlimit="10"/>
<path d="M978.512 1078.42C971.053 1111.3 960.938 1143.53 948.447 1174.76C942.893 1188.64 936.722 1202.58 927.065 1214.03C902.411 1243.24 861.75 1249.74 825.566 1249.69C816.969 1249.68 808.368 1249.4 799.786 1248.86C775.062 1247.3 750.49 1243.53 726.449 1237.67C694.357 1229.85 662.77 1218.18 628.361 1215.24C593.995 1212.29 555.015 1220.66 533.082 1244.53C515.346 1253.56 500.085 1262.25 487.16 1274.07C478.317 1282.13 470.347 1291.93 464.987 1303.6C462.509 1308.96 460.569 1314.72 459.332 1320.95C454.462 1345.74 462.67 1373.81 470.951 1399.86C471.771 1402.43 472.587 1405.02 473.393 1407.6C485.943 1448.02 490.949 1489 482.204 1527.91C477.08 1550.71 465.866 1574.46 444.851 1587.11C414.928 1605.13 379.428 1601.34 347.737 1602.09C345.238 1602.14 342.738 1602.24 340.239 1602.36C302.453 1604.28 265.478 1613.9 235.893 1637.05C204.35 1661.69 182.865 1704.45 191.939 1746.7" stroke="#D8D8D8" stroke-miterlimit="10"/>
<path d="M969.278 1070.53C962.054 1102.54 952.128 1133.88 939.808 1164.2C934.332 1177.67 928.244 1191.18 918.887 1202.35C895.006 1230.87 856.05 1238.14 821.109 1239.14C812.806 1239.38 804.492 1239.37 796.187 1239.09C772.262 1238.3 748.424 1235.36 725.039 1230.41C693.823 1223.78 663.005 1213.44 629.53 1211.06C596.107 1208.67 558.362 1216.66 536.447 1238.92C517.293 1247.46 500.409 1255.33 485.753 1266.74C475.724 1274.51 466.489 1284.26 460.065 1296.2C457.097 1301.68 454.712 1307.64 453.101 1314.13C446.751 1339.98 454.905 1369.71 463.011 1397.24C463.815 1399.96 464.61 1402.69 465.393 1405.43C477.602 1448.18 481.16 1491.39 470.528 1531.99C464.809 1553.83 453.83 1576.75 433.483 1589.2C404.505 1606.94 370.327 1604.4 339.965 1606.32C337.571 1606.47 335.177 1606.66 332.785 1606.87C296.634 1610.17 261.793 1620.96 234.354 1644.3C205.101 1669.16 185.802 1710.81 195.473 1751.57" stroke="#D2D2D2" stroke-miterlimit="10"/>
<path d="M960.044 1062.64C953.055 1093.78 943.319 1124.23 931.171 1153.63C925.771 1166.7 919.766 1179.78 910.709 1190.68C887.6 1218.49 850.348 1226.54 816.651 1228.59C808.642 1229.08 800.614 1229.33 792.587 1229.32C769.462 1229.29 746.356 1227.2 723.627 1223.14C693.286 1217.72 663.238 1208.7 630.699 1206.88C598.218 1205.06 561.709 1212.66 539.814 1233.3C519.242 1241.36 500.736 1248.41 484.348 1259.4C473.135 1266.89 462.631 1276.58 455.145 1288.79C451.687 1294.4 448.857 1300.55 446.875 1307.32C439.046 1334.22 447.145 1365.62 455.076 1394.63C455.862 1397.49 456.637 1400.37 457.399 1403.25C469.266 1448.35 471.483 1493.79 458.859 1536.07C452.617 1556.97 441.798 1579.04 422.119 1591.29C394.088 1608.75 361.231 1607.45 332.196 1610.55C329.906 1610.79 327.618 1611.07 325.336 1611.38C290.821 1616.05 258.112 1628.02 232.822 1651.55C205.858 1676.61 188.743 1717.17 199.015 1756.44" stroke="#CDCDCD" stroke-miterlimit="10"/>
<path d="M950.811 1054.76C944.057 1085.02 934.509 1114.58 922.533 1143.07C917.209 1155.73 911.289 1168.38 902.532 1179.01C880.194 1206.11 844.647 1214.94 812.195 1218.04C804.48 1218.79 796.739 1219.29 788.989 1219.54C766.663 1220.29 744.292 1219.03 722.218 1215.87C692.753 1211.66 663.472 1203.96 631.869 1202.71C600.328 1201.44 565.057 1208.66 543.182 1227.69C521.192 1235.25 501.062 1241.48 482.943 1252.06C470.545 1259.27 458.775 1268.91 450.226 1281.39C446.279 1287.12 443.003 1293.47 440.648 1300.5C431.339 1328.46 439.384 1361.52 447.139 1392.01C447.906 1395.02 448.662 1398.05 449.401 1401.08C460.926 1448.51 461.917 1496.21 447.185 1540.14C440.487 1560.12 429.764 1581.33 410.752 1593.38C383.667 1610.56 352.13 1610.51 324.424 1614.78C322.239 1615.12 320.058 1615.49 317.884 1615.89C285.004 1621.94 254.43 1635.08 231.286 1658.81C206.612 1684.08 191.681 1723.54 202.551 1761.31" stroke="#C7C7C7" stroke-miterlimit="10"/>
<path d="M941.576 1046.87C935.056 1076.26 925.698 1104.93 913.894 1132.51C908.647 1144.77 902.81 1156.99 894.353 1167.34C872.787 1193.74 838.945 1203.33 807.735 1207.49C800.314 1208.49 792.86 1209.25 785.389 1209.77C763.863 1211.29 742.225 1210.87 720.805 1208.61C692.217 1205.59 663.705 1199.22 633.037 1198.53C602.438 1197.83 568.403 1204.66 546.546 1222.07C523.138 1229.15 501.387 1234.56 481.535 1244.72C467.951 1251.66 454.916 1261.24 445.303 1273.98C440.866 1279.84 437.145 1286.39 434.418 1293.68C423.629 1322.7 431.622 1357.43 439.199 1389.39C439.949 1392.55 440.687 1395.72 441.403 1398.9C452.587 1448.68 452.473 1498.68 435.512 1544.22C428.41 1563.29 417.73 1583.62 399.386 1595.47C373.247 1612.36 343.031 1613.57 316.652 1619.01C314.572 1619.44 312.497 1619.9 310.432 1620.39C279.189 1627.83 250.747 1642.14 229.751 1666.07C207.366 1691.54 194.62 1729.9 206.089 1766.18" stroke="#C2C2C2" stroke-miterlimit="10"/>
<path d="M932.343 1038.98C926.058 1067.5 916.889 1095.29 905.257 1121.95C900.086 1133.8 894.332 1145.59 886.175 1155.67C865.382 1181.36 833.244 1191.73 803.279 1196.95C796.152 1198.19 788.984 1199.21 781.791 1200C761.064 1202.29 740.159 1202.7 719.396 1201.34C691.683 1199.53 663.94 1194.48 634.206 1194.35C604.55 1194.21 571.75 1200.66 549.913 1216.46C525.088 1223.05 501.713 1227.64 480.131 1237.39C465.362 1244.04 451.06 1253.56 440.386 1266.58C435.458 1272.57 431.292 1279.3 428.192 1286.87C415.924 1316.94 423.862 1353.33 431.265 1386.78C431.998 1390.08 432.714 1393.4 433.41 1396.73C444.251 1448.85 443.165 1501.21 423.842 1548.3C416.382 1566.48 405.699 1585.92 388.023 1597.57C362.831 1614.18 333.935 1616.63 308.885 1623.25C306.909 1623.77 304.941 1624.32 302.983 1624.91C273.375 1633.72 247.066 1649.2 228.218 1673.33C208.123 1699.01 197.56 1736.27 209.629 1771.06" stroke="#BCBCBC" stroke-miterlimit="10"/>
<path d="M923.108 1031.1C917.057 1058.74 908.078 1085.64 896.618 1111.39C891.523 1122.83 885.855 1134.19 877.997 1144C857.975 1168.99 827.542 1180.13 798.821 1186.4C791.988 1187.89 785.107 1189.17 778.192 1190.23C758.264 1193.29 738.092 1194.53 717.985 1194.08C691.147 1193.46 664.174 1189.74 635.376 1190.18C606.661 1190.59 577.225 1200.65 553.28 1210.84C528.488 1221.4 502.039 1220.72 478.725 1230.05C462.77 1236.42 447.202 1245.89 435.465 1259.18C430.047 1265.29 425.436 1272.22 421.964 1280.05C408.216 1311.18 416.1 1349.24 423.326 1384.16C424.041 1387.61 424.738 1391.08 425.41 1394.56C435.911 1449.02 433.991 1503.82 412.169 1552.38C404.385 1569.7 393.665 1588.21 376.657 1599.66C352.411 1615.98 324.838 1619.69 301.114 1627.48C299.242 1628.1 297.381 1628.74 295.531 1629.41C267.558 1639.61 243.383 1656.26 226.683 1680.58C208.878 1706.47 200.499 1742.64 213.167 1775.93" stroke="#B7B7B7" stroke-miterlimit="10"/>
<path d="M913.874 1023.21C908.058 1049.98 899.268 1075.99 887.98 1100.83C882.961 1111.86 877.376 1122.8 869.818 1132.33C850.568 1156.61 821.84 1168.53 794.362 1175.85C787.823 1177.6 781.228 1179.14 774.591 1180.46C755.463 1184.28 736.025 1186.37 716.572 1186.81C690.611 1187.4 664.406 1185 636.543 1186C608.769 1186.98 580.181 1196.33 556.643 1205.23C530.245 1215.22 502.364 1213.8 477.318 1222.71C460.18 1228.8 443.345 1238.22 430.544 1251.77C424.638 1258.01 419.58 1265.13 415.736 1273.24C400.508 1305.42 408.337 1345.14 415.389 1381.55C416.086 1385.14 416.763 1388.75 417.414 1392.38C427.573 1449.19 424.968 1506.52 400.497 1556.46C392.419 1572.94 381.633 1590.5 365.292 1601.75C341.991 1617.79 315.739 1622.75 293.344 1631.72C291.578 1632.43 289.822 1633.16 288.082 1633.92C261.745 1645.5 239.703 1663.32 225.149 1687.84C209.633 1713.93 203.438 1749 216.705 1780.8" stroke="#B1B1B1" stroke-miterlimit="10"/>
<path d="M904.642 1015.32C899.061 1041.22 890.459 1066.34 879.343 1090.26C874.402 1100.9 868.899 1111.4 861.641 1120.66C843.163 1144.23 816.14 1156.93 789.906 1165.3C783.662 1167.3 777.353 1169.1 770.994 1170.69C752.665 1175.28 733.96 1178.2 715.163 1179.55C690.079 1181.34 664.643 1180.26 637.715 1181.82C610.882 1183.36 583.153 1191.94 560.013 1199.61C531.987 1208.91 502.693 1206.87 475.914 1215.38C457.59 1221.18 439.488 1230.55 425.626 1244.37C419.229 1250.73 413.726 1258.05 409.509 1266.42C392.802 1299.66 400.577 1341.05 407.453 1378.93C408.134 1382.67 408.791 1386.43 409.419 1390.21C419.235 1449.35 416.101 1509.34 388.826 1560.54C380.474 1576.21 369.599 1592.79 353.927 1603.84C331.573 1619.6 306.641 1625.8 285.573 1635.95C283.911 1636.75 282.262 1637.58 280.63 1638.43C255.929 1651.39 236.019 1670.38 223.615 1695.1C210.388 1721.39 206.378 1755.37 220.245 1785.67" stroke="#ABABAB" stroke-miterlimit="10"/>
<path d="M895.407 1007.44C890.06 1032.47 881.648 1056.7 870.704 1079.7C865.84 1089.93 860.42 1100 853.462 1108.99C835.756 1131.86 810.438 1145.33 785.447 1154.75C779.497 1157 773.474 1159.06 767.394 1160.92C749.864 1166.28 731.893 1170.04 713.752 1172.28C689.544 1175.27 664.876 1175.52 638.883 1177.65C612.991 1179.75 586.149 1187.5 563.379 1194C533.716 1202.47 503.016 1199.95 474.507 1208.04C454.997 1213.56 435.631 1222.88 420.705 1236.97C413.818 1243.45 407.87 1250.96 403.281 1259.6C385.093 1293.9 392.814 1336.95 399.514 1376.31C400.177 1380.2 400.815 1384.11 401.421 1388.03C410.896 1449.52 407.391 1512.29 377.152 1564.61C368.543 1579.51 357.565 1595.08 342.561 1605.93C321.153 1621.41 297.542 1628.86 277.803 1640.18C276.246 1641.08 274.703 1641.99 273.178 1642.94C250.113 1657.28 232.336 1677.44 222.078 1702.35C211.142 1728.86 209.317 1761.73 223.781 1790.54" stroke="#A6A6A6" stroke-miterlimit="10"/>
<path d="M886.174 999.547C881.062 1023.7 872.839 1047.05 862.067 1069.14C857.278 1078.96 851.943 1088.6 845.287 1097.32C828.352 1119.48 804.739 1133.73 780.992 1144.2C775.336 1146.7 769.6 1149.02 763.798 1151.14C747.067 1157.28 729.829 1161.87 712.345 1165.01C689.013 1169.2 665.113 1170.78 640.056 1173.47C615.107 1176.13 589.185 1183 566.748 1188.38C535.45 1195.88 503.346 1193.03 473.104 1200.7C452.409 1205.94 431.777 1215.2 415.787 1229.56C408.411 1236.17 402.018 1243.87 397.055 1252.78C377.388 1288.13 385.057 1332.85 391.58 1373.69C392.224 1377.73 392.843 1381.78 393.426 1385.86C402.559 1449.69 398.847 1515.39 365.482 1568.69C356.622 1582.84 345.533 1597.37 331.196 1608.02C310.736 1623.21 288.445 1631.92 270.033 1644.41C268.581 1645.4 267.145 1646.41 265.728 1647.45C244.298 1663.16 228.656 1684.5 220.545 1709.61C211.898 1736.31 212.257 1768.1 227.321 1795.41" stroke="#A0A0A0" stroke-miterlimit="10"/>
<path d="M876.941 991.66C872.063 1014.95 864.03 1037.4 853.429 1058.58C848.717 1067.99 843.467 1077.21 837.109 1085.65C820.946 1107.1 799.038 1122.13 776.534 1133.66C771.172 1136.41 765.722 1138.98 760.198 1141.37C744.267 1148.28 727.761 1153.71 710.933 1157.75C688.476 1163.14 665.346 1166.04 641.224 1169.29C617.216 1172.52 592.265 1178.47 570.113 1182.77C537.194 1189.16 503.67 1186.11 471.697 1193.36C449.816 1198.32 427.917 1207.53 410.866 1222.16C403 1228.9 396.161 1236.79 390.826 1245.97C369.68 1282.37 377.294 1328.76 383.642 1371.08C384.27 1375.26 384.869 1379.46 385.43 1383.68C394.22 1449.85 390.464 1518.67 353.809 1572.77C344.702 1586.21 333.5 1599.67 319.832 1610.11C300.317 1625.02 279.347 1634.98 262.264 1648.65C260.916 1649.73 259.587 1650.83 258.279 1651.96C238.486 1669.06 224.974 1691.56 219.012 1716.87C212.654 1743.78 215.197 1774.46 230.861 1800.29" stroke="#9B9B9B" stroke-miterlimit="10"/>
<path d="M867.706 983.773C863.064 1006.19 855.219 1027.75 844.791 1048.01C840.156 1057.02 834.988 1065.81 828.931 1073.98C813.54 1094.72 793.336 1110.52 772.077 1123.1C767.01 1126.11 761.846 1128.94 756.598 1131.6C741.467 1139.27 725.696 1145.54 709.522 1150.48C687.942 1157.08 665.581 1161.3 642.394 1165.11C619.327 1168.9 595.404 1173.89 573.481 1177.15C538.964 1182.28 503.997 1179.18 470.293 1186.03C447.225 1190.71 424.06 1199.86 405.945 1214.75C397.589 1221.62 390.306 1229.71 384.598 1239.15C361.972 1276.61 369.532 1324.66 375.705 1368.46C376.314 1372.79 376.894 1377.14 377.434 1381.51C385.883 1450.02 382.244 1522.14 342.139 1576.85C332.782 1589.61 321.469 1601.96 308.468 1612.2C289.9 1626.83 270.25 1638.03 254.496 1652.88C253.253 1654.05 252.03 1655.25 250.831 1656.47C232.672 1674.95 221.295 1698.62 217.481 1724.12C213.413 1751.24 218.14 1780.83 234.402 1805.16" stroke="#959595" stroke-miterlimit="10"/>
<path d="M858.473 975.887C854.064 997.425 846.409 1018.1 836.153 1037.45C831.593 1046.05 826.51 1054.41 820.753 1062.31C806.134 1082.35 787.635 1098.92 767.618 1112.56C762.846 1115.81 757.968 1118.9 752.998 1121.83C738.665 1130.27 723.628 1137.37 708.109 1143.22C687.405 1151.01 665.812 1156.56 643.56 1160.94C621.434 1165.28 598.602 1169.29 576.843 1171.54C540.767 1175.27 504.319 1172.26 468.883 1178.69C444.632 1183.08 420.2 1192.18 401.022 1207.35C392.176 1214.34 384.447 1222.62 378.367 1232.33C354.263 1270.85 361.768 1320.57 367.764 1365.85C368.355 1370.31 368.915 1374.81 369.432 1379.34C377.539 1450.19 374.168 1525.83 330.462 1580.92C320.847 1593.05 309.43 1604.25 297.097 1614.29C279.475 1628.64 261.148 1641.09 246.719 1657.11C245.58 1658.38 244.464 1659.66 243.372 1660.98C226.85 1680.83 217.606 1705.68 215.938 1731.38C214.159 1758.7 221.07 1787.19 237.932 1810.03" stroke="#909090" stroke-miterlimit="10"/>
<path d="M849.239 968C837.38 1026.73 798.932 1078.35 749.401 1112.06C699.869 1145.77 640.021 1162.44 580.212 1165.93C542.625 1168.12 504.647 1165.34 467.48 1171.35C430.31 1177.37 392.586 1193.9 372.142 1225.52C346.557 1265.09 354.01 1316.47 359.83 1363.23C369.402 1440.13 369.268 1526.21 318.794 1585.01C293.653 1614.29 258.08 1633.88 235.927 1665.49C205.212 1709.31 207.595 1773.49 241.476 1814.91" stroke="#8A8A8A" stroke-miterlimit="10"/>
<path d="M1 1120.26C29.9203 1092.57 60.5013 1066.61 92.5242 1042.57C106.76 1031.89 121.672 1021.39 138.819 1016.62C182.653 1004.42 227.292 1032.25 260.842 1062.98C291.743 1091.29 319.262 1123.29 342.626 1158.08C365.78 1192.55 385.306 1230.29 415.857 1258.42C446.408 1286.55 492.351 1303.3 530.05 1285.89C552.48 1275.52 568.702 1254.47 577.605 1231.42C586.509 1208.38 588.807 1183.32 589.332 1158.62C589.934 1130.33 588.681 1100.48 602.204 1075.63C616.203 1049.91 646.025 1033.71 675.223 1035.97C716.762 1039.17 747.393 1074.12 777.643 1102.77C816.073 1139.16 862.906 1169.6 915.43 1176.14C967.954 1182.68 1026.3 1160.52 1051 1113.7" stroke="#8A8A8A" stroke-miterlimit="10"/>
<path d="M4.42773 1131.91C32.8322 1104.66 62.9788 1079.24 94.5899 1055.84C108.64 1045.44 123.353 1035.25 140.207 1030.55C174.06 1021.11 208.431 1035.36 237.772 1056.14C245.769 1061.8 253.395 1067.94 260.536 1074.22C291.245 1101.25 318.717 1131.96 342.191 1165.49C365.45 1198.71 385.071 1235.33 415.41 1262.59C432.419 1277.87 453.652 1290.1 475.755 1295.65C495.01 1300.47 515.049 1300.14 533.236 1292.05C536.485 1290.61 539.612 1288.94 542.615 1287.08C561.116 1275.58 574.544 1256.64 582.65 1236.21C585.252 1229.64 587.356 1222.92 589.072 1216.12C593.555 1198.34 595.507 1179.88 596.701 1161.71C598.632 1132.89 599.608 1103.19 614.21 1078.59C628.712 1054.17 657.358 1038.36 685.888 1040.42C726.479 1043.35 756.686 1076.53 786.466 1103.47C788.813 1105.59 791.192 1107.69 793.599 1109.76C829.997 1141.09 873.108 1166.1 920.681 1170.9C971.4 1176.02 1027.32 1153.58 1050.7 1107.69" stroke="#909090" stroke-miterlimit="10"/>
<path d="M7.85547 1143.56C35.7426 1116.76 65.4578 1091.88 96.6572 1069.11C110.523 1058.99 125.036 1049.11 141.596 1044.48C174.846 1035.19 208.639 1048.55 237.648 1068.28C245.565 1073.65 253.128 1079.49 260.229 1085.47C290.742 1111.2 318.169 1140.65 341.754 1172.9C365.118 1204.86 384.857 1240.35 414.96 1266.76C432.675 1282.31 454.439 1294.98 477.157 1301.02C496.903 1306.25 517.619 1306.27 536.42 1298.21C539.783 1296.78 543.029 1295.1 546.147 1293.21C565.36 1281.56 579.141 1262.03 587.692 1240.99C590.431 1234.24 592.68 1227.34 594.557 1220.37C599.462 1202.16 602.057 1183.28 604.067 1164.8C607.328 1135.44 610.488 1105.92 626.214 1081.55C641.145 1058.42 668.688 1043.02 696.549 1044.88C736.194 1047.53 765.977 1078.94 795.286 1104.17C797.597 1106.16 799.936 1108.12 802.303 1110.06C838.084 1139.34 880.048 1162.2 925.93 1165.66C974.843 1169.36 1028.33 1146.65 1050.4 1101.68" stroke="#959595" stroke-miterlimit="10"/>
<path d="M11.2812 1155.21C38.6525 1128.85 67.9348 1104.51 98.7224 1082.37C112.403 1072.54 126.718 1062.96 142.982 1058.41C175.631 1049.26 208.844 1061.75 237.522 1080.41C245.357 1085.49 252.858 1091.02 259.92 1096.71C290.24 1121.16 317.622 1149.32 341.317 1180.31C364.787 1211.02 384.666 1245.35 414.509 1270.94C432.94 1286.74 455.225 1299.87 478.56 1306.39C498.798 1312.02 520.189 1312.4 539.604 1304.38C543.084 1302.94 546.446 1301.26 549.68 1299.35C569.606 1287.54 583.737 1267.42 592.734 1245.77C595.611 1238.84 598.004 1231.76 600.044 1224.62C605.371 1205.97 608.608 1186.67 611.433 1167.89C616.023 1138 621.32 1108.68 638.217 1084.51C653.503 1062.65 680.019 1047.67 707.21 1049.33C745.909 1051.7 775.268 1081.34 804.106 1104.86C806.379 1106.72 808.679 1108.54 811.006 1110.35C846.171 1137.58 886.989 1158.29 931.178 1160.42C978.285 1162.69 1029.35 1139.71 1050.09 1095.66" stroke="#9B9B9B" stroke-miterlimit="10"/>
<path d="M14.709 1166.86C41.5644 1140.94 70.4123 1117.15 100.79 1095.64C114.286 1086.09 128.401 1076.82 144.372 1072.34C176.419 1063.34 209.053 1074.94 237.399 1092.54C245.154 1097.33 252.59 1102.56 259.615 1107.95C289.742 1131.12 317.077 1158 340.884 1187.73C364.457 1217.17 384.5 1250.33 414.062 1275.11C433.215 1291.16 456.014 1304.75 479.965 1311.76C500.697 1317.8 522.762 1318.54 542.79 1310.54C546.386 1309.11 549.864 1307.42 553.214 1305.48C573.853 1293.52 588.337 1272.81 597.78 1250.56C600.794 1243.45 603.332 1236.18 605.533 1228.87C611.281 1209.79 615.164 1190.07 618.803 1170.99C624.723 1140.56 632.106 1111.46 650.224 1087.47C665.792 1066.87 691.353 1052.32 717.875 1053.79C755.626 1055.88 784.562 1083.75 812.928 1105.56C815.165 1107.28 817.426 1108.98 819.711 1110.64C854.259 1135.83 893.929 1154.4 936.427 1155.18C981.729 1156.03 1030.36 1132.77 1049.79 1089.65" stroke="#A0A0A0" stroke-miterlimit="10"/>
<path d="M18.1367 1178.51C44.4763 1153.04 72.8913 1129.78 102.857 1108.91C116.168 1099.63 130.083 1090.68 145.761 1086.27C177.207 1077.42 209.261 1088.13 237.276 1104.67C244.95 1109.17 252.324 1114.1 259.308 1119.19C289.24 1141.07 316.53 1166.68 340.447 1195.14C364.126 1223.33 384.35 1255.29 413.614 1279.28C433.496 1295.58 456.803 1309.64 481.368 1317.13C502.592 1323.57 525.333 1324.67 545.974 1316.71C549.686 1315.28 553.28 1313.58 556.746 1311.62C578.098 1299.5 592.934 1278.2 602.822 1255.34C605.973 1248.05 608.658 1240.59 611.018 1233.12C617.189 1213.61 621.674 1193.46 626.169 1174.08C633.355 1143.1 642.839 1114.24 662.228 1090.43C678.011 1071.05 702.683 1056.98 728.537 1058.25C765.341 1060.05 793.852 1086.16 821.749 1106.26C823.948 1107.84 826.171 1109.4 828.415 1110.93C862.348 1134.07 900.87 1150.49 941.676 1149.94C985.172 1149.37 1031.38 1125.83 1049.49 1083.64" stroke="#A6A6A6" stroke-miterlimit="10"/>
<path d="M21.5645 1190.16C47.3867 1165.13 75.3689 1142.42 104.924 1122.18C118.051 1113.18 131.768 1104.54 147.149 1100.2C177.994 1091.5 209.468 1101.32 237.152 1116.8C244.744 1121.01 252.057 1125.64 259.001 1130.43C288.74 1151.03 315.985 1175.36 340.012 1202.55C363.797 1229.49 384.216 1260.24 413.165 1283.46C433.785 1299.99 457.592 1314.52 482.774 1322.5C504.489 1329.35 527.905 1330.8 549.16 1322.87C552.988 1321.45 556.7 1319.74 560.28 1317.75C582.343 1305.49 597.532 1283.59 607.865 1260.13C611.153 1252.65 613.983 1245.01 616.505 1237.38C623.098 1217.42 628.223 1196.86 633.537 1177.17C642.046 1145.65 653.52 1117.02 674.234 1093.39C690.168 1075.22 714.015 1061.63 739.2 1062.71C775.057 1064.23 803.144 1088.57 830.57 1106.96C832.733 1108.41 834.915 1109.83 837.119 1111.23C870.435 1132.31 907.81 1146.59 946.925 1144.7C988.617 1142.71 1032.39 1118.9 1049.18 1077.63" stroke="#ABABAB" stroke-miterlimit="10"/>
<path d="M24.9922 1201.81C50.2986 1177.22 77.8478 1155.05 106.991 1135.44C119.933 1126.73 133.45 1118.39 148.539 1114.13C178.782 1105.58 209.677 1114.52 237.029 1128.93C244.542 1132.85 251.791 1137.18 258.696 1141.67C288.242 1160.99 315.44 1184.04 339.579 1209.96C363.467 1235.64 384.099 1265.16 412.718 1287.63C434.083 1304.4 458.382 1319.41 484.179 1327.87C506.387 1335.12 530.478 1336.94 552.347 1329.04C556.291 1327.62 560.119 1325.9 563.814 1323.88C586.591 1311.46 602.13 1288.97 612.91 1264.91C616.335 1257.25 619.31 1249.42 621.993 1241.62C629.006 1221.24 634.774 1200.25 640.904 1180.26C650.74 1148.2 664.149 1119.79 686.239 1096.35C702.265 1079.34 725.348 1066.28 749.863 1067.16C784.772 1068.41 812.436 1090.97 839.391 1107.66C841.517 1108.97 843.661 1110.26 845.824 1111.52C878.523 1130.55 914.752 1142.68 952.175 1139.46C992.061 1136.04 1033.41 1111.96 1048.88 1071.61" stroke="#B1B1B1" stroke-miterlimit="10"/>
<path d="M28.4199 1213.46C53.2105 1189.31 80.3253 1167.69 109.059 1148.71C121.816 1140.28 135.134 1132.25 149.928 1128.06C179.571 1119.66 209.857 1127.76 236.904 1141.06C244.328 1144.71 251.523 1148.72 258.389 1152.91C287.74 1170.94 314.893 1192.72 339.142 1217.37C363.136 1241.79 383.993 1270.08 412.268 1291.8C434.386 1308.79 459.169 1324.3 485.581 1333.25C508.281 1340.9 533.047 1343.07 555.53 1335.2C559.589 1333.79 563.535 1332.06 567.346 1330.02C590.835 1317.44 606.727 1294.36 617.951 1269.69C621.514 1261.85 624.633 1253.84 627.478 1245.87C634.914 1225.05 641.324 1203.65 648.27 1183.36C659.434 1150.75 674.723 1122.54 698.242 1099.31C714.307 1083.44 736.676 1070.93 760.523 1071.61C794.485 1072.58 821.725 1093.38 848.21 1108.35C850.299 1109.53 852.404 1110.69 854.525 1111.81C886.608 1128.8 921.69 1138.78 957.42 1134.22C995.501 1129.37 1034.42 1105.02 1048.58 1065.6" stroke="#B7B7B7" stroke-miterlimit="10"/>
<path d="M31.8477 1225.11C56.1209 1201.41 82.8044 1180.32 111.126 1161.98C123.698 1153.83 136.817 1146.11 151.316 1141.99C180.357 1133.74 210.063 1140.96 236.78 1153.19C244.122 1156.55 251.255 1160.26 258.082 1164.16C287.241 1180.9 314.346 1201.4 338.707 1224.79C362.807 1247.95 383.902 1274.98 411.821 1295.97C434.699 1313.18 459.957 1329.18 486.987 1338.62C510.181 1346.67 535.621 1349.2 558.716 1341.36C562.891 1339.95 566.953 1338.22 570.881 1336.15C595.083 1323.42 611.326 1299.75 622.998 1274.47C626.697 1266.45 629.961 1258.26 632.966 1250.12C640.824 1228.87 647.877 1207.04 655.639 1186.45C668.132 1153.3 685.245 1125.26 710.249 1102.27C726.305 1087.5 748.011 1075.58 771.187 1076.07C804.203 1076.76 831.019 1095.79 857.033 1109.05C859.084 1110.1 861.15 1111.11 863.232 1112.1C894.698 1127.04 928.632 1134.88 962.672 1128.98C998.946 1122.71 1035.43 1098.08 1048.28 1059.58" stroke="#BCBCBC" stroke-miterlimit="10"/>
<path d="M35.2754 1236.76C59.0328 1213.5 85.2819 1192.96 113.193 1175.25C125.581 1167.38 138.5 1159.97 152.705 1155.92C181.144 1147.82 210.272 1154.16 236.656 1165.33C243.918 1168.4 250.986 1171.8 257.775 1175.4C286.739 1190.86 313.801 1210.08 338.272 1232.2C362.476 1254.11 383.82 1279.86 411.372 1300.15C435.018 1317.56 460.745 1334.07 488.389 1343.99C512.074 1352.45 538.191 1355.34 561.9 1347.53C566.191 1346.12 570.371 1344.38 574.413 1342.29C599.327 1329.4 615.923 1305.14 628.039 1279.26C631.876 1271.05 635.285 1262.67 638.453 1254.38C646.732 1232.68 654.43 1210.44 663.006 1189.54C676.83 1155.86 695.716 1127.94 722.254 1105.23C738.26 1091.53 759.343 1080.24 781.85 1080.53C813.919 1080.93 840.311 1098.2 865.854 1109.75C867.869 1110.66 869.896 1111.54 871.936 1112.4C902.785 1125.28 935.573 1130.98 967.92 1123.74C1002.39 1116.05 1036.45 1091.15 1047.97 1053.57" stroke="#C2C2C2" stroke-miterlimit="10"/>
<path d="M38.7012 1248.41C61.9427 1225.59 87.7589 1205.59 115.257 1188.51C127.459 1180.93 140.18 1173.83 154.091 1169.85C181.929 1161.9 210.479 1167.35 236.529 1177.45C243.71 1180.24 250.717 1183.34 257.466 1186.64C286.237 1200.81 313.253 1218.75 337.833 1239.61C362.143 1260.26 383.745 1284.73 410.922 1304.32C435.344 1321.92 461.531 1338.95 489.793 1349.36C513.971 1358.22 540.761 1361.47 565.084 1353.69C569.492 1352.29 573.787 1350.54 577.946 1348.42C603.573 1335.38 620.521 1310.52 633.082 1284.04C637.056 1275.65 640.61 1267.09 643.937 1258.62C652.639 1236.5 660.981 1213.83 670.37 1192.63C685.527 1158.41 706.129 1130.56 734.256 1108.18C750.178 1095.51 770.671 1084.89 792.51 1084.98C823.631 1085.11 849.6 1100.6 874.672 1110.45C876.65 1111.22 878.639 1111.97 880.638 1112.69C910.872 1123.52 942.511 1127.07 973.168 1118.49C1005.83 1109.38 1037.46 1084.21 1047.67 1047.55" stroke="#C7C7C7" stroke-miterlimit="10"/>
<path d="M42.1289 1260.06C64.8531 1237.69 90.2364 1218.23 117.324 1201.78C129.342 1194.48 141.863 1187.69 155.48 1183.78C182.715 1175.98 210.688 1180.55 236.405 1189.59C243.506 1192.08 250.449 1194.88 257.158 1197.88C285.734 1210.77 312.706 1227.43 337.397 1247.02C361.812 1266.42 383.681 1289.59 410.471 1308.49C435.678 1326.28 462.32 1343.84 491.195 1354.73C515.865 1364 543.331 1367.6 568.268 1359.86C572.791 1358.46 577.203 1356.7 581.477 1354.56C607.817 1341.36 625.117 1315.91 638.123 1288.82C642.235 1280.25 645.934 1271.51 649.422 1262.88C658.546 1240.31 667.575 1217.25 677.736 1195.73C694.291 1161 716.494 1133.12 746.259 1111.14C762.069 1099.47 782.001 1089.54 803.17 1089.44C833.345 1089.29 858.889 1103.01 883.491 1111.15C885.432 1111.79 887.381 1112.4 889.338 1112.98C918.955 1121.77 949.449 1123.17 978.413 1113.26C1009.27 1102.72 1038.47 1077.27 1047.36 1041.54" stroke="#CDCDCD" stroke-miterlimit="10"/>
<path d="M45.5566 1271.71C67.765 1249.78 92.7154 1230.86 119.391 1215.04C131.224 1208.03 143.545 1201.55 156.868 1197.71C183.504 1190.05 210.899 1193.74 236.281 1201.71C243.302 1203.92 250.181 1206.42 256.851 1209.12C285.234 1220.73 312.159 1236.11 336.96 1254.43C361.482 1272.57 383.626 1294.44 410.024 1312.66C436.026 1330.62 463.108 1348.72 492.601 1360.1C517.763 1369.77 545.905 1373.73 571.454 1366.02C576.094 1364.63 580.622 1362.86 585.012 1360.69C612.065 1347.34 629.716 1321.3 643.168 1293.6C647.416 1284.85 651.262 1275.92 654.91 1267.13C664.455 1244.13 674.128 1220.65 685.105 1198.82C702.991 1163.55 726.813 1135.6 758.266 1114.1C773.941 1103.38 793.335 1094.19 813.835 1093.89C843.063 1093.46 868.184 1105.42 892.314 1111.84C894.217 1112.35 896.128 1112.83 898.045 1113.27C927.045 1120.01 956.391 1119.27 983.664 1108.01C1012.72 1096.06 1039.49 1070.33 1047.06 1035.53" stroke="#D2D2D2" stroke-miterlimit="10"/>
<path d="M48.9844 1283.36C70.6769 1261.88 95.1944 1243.49 121.459 1228.31C133.107 1221.58 145.23 1215.4 158.258 1211.64C184.292 1204.13 211.111 1206.93 236.158 1213.85C243.099 1215.76 249.915 1217.96 256.546 1220.36C284.736 1230.68 311.614 1244.79 336.527 1261.84C361.151 1278.73 383.577 1299.27 409.576 1316.84C436.378 1334.95 463.896 1353.61 494.005 1365.47C519.66 1375.55 548.476 1379.87 574.639 1372.19C579.393 1370.8 584.04 1369.02 588.544 1366.82C616.309 1353.32 634.312 1326.69 648.211 1298.39C652.597 1289.45 656.587 1280.34 660.397 1271.38C670.364 1247.94 680.681 1224.05 692.473 1201.91C711.687 1166.11 737.084 1137.99 770.271 1117.06C785.798 1107.27 804.667 1098.85 824.498 1098.35C852.779 1097.64 877.476 1107.83 901.135 1112.54C903.002 1112.91 904.874 1113.26 906.75 1113.57C935.135 1118.25 963.333 1115.36 988.914 1102.77C1016.16 1089.39 1040.5 1063.4 1046.76 1029.52" stroke="#D8D8D8" stroke-miterlimit="10"/>
<path d="M52.4121 1295.01C73.5888 1273.97 97.6719 1256.13 123.526 1241.58C134.989 1235.13 146.912 1229.26 159.647 1225.57C185.078 1218.21 211.321 1220.12 236.035 1225.98C242.896 1227.6 249.649 1229.5 256.24 1231.6C284.236 1240.64 311.07 1253.47 336.093 1269.26C360.824 1284.88 383.534 1304.1 409.129 1321.01C436.743 1339.26 464.687 1358.49 495.41 1370.84C521.556 1381.32 551.048 1386 577.825 1378.35C582.696 1376.96 587.459 1375.18 592.079 1372.96C620.557 1359.3 638.912 1332.08 653.256 1303.17C657.778 1294.05 661.914 1284.76 665.885 1275.63C676.274 1251.76 687.234 1227.44 699.84 1205C720.385 1168.66 747.313 1140.28 782.275 1120.02C797.643 1111.12 815.998 1103.5 835.159 1102.81C862.493 1101.81 886.766 1110.23 909.955 1113.24C911.785 1113.48 913.617 1113.69 915.453 1113.86C943.221 1116.5 970.272 1111.46 994.162 1097.53C1019.6 1082.73 1041.52 1056.46 1046.45 1023.5" stroke="#DEDEDE" stroke-miterlimit="10"/>
<path d="M55.8398 1306.66C76.4991 1286.06 100.151 1268.76 125.593 1254.85C136.872 1248.67 148.595 1243.12 161.035 1239.5C185.865 1232.29 211.533 1233.31 235.911 1238.11C242.692 1239.44 249.381 1241.04 255.934 1242.84C283.736 1250.6 310.524 1262.15 335.658 1276.67C360.493 1291.03 383.497 1308.91 408.68 1325.18C437.115 1343.55 465.475 1363.38 496.815 1376.21C523.453 1387.1 553.621 1392.13 581.012 1384.52C585.998 1383.13 590.878 1381.34 595.614 1379.09C624.804 1365.28 643.512 1337.47 658.301 1307.95C662.96 1298.65 667.24 1289.17 671.373 1279.88C682.183 1255.58 693.787 1230.84 707.209 1208.09C729.082 1171.21 757.507 1142.45 794.282 1122.98C809.489 1114.93 827.331 1108.15 845.824 1107.26C872.21 1105.99 896.06 1112.64 918.778 1113.94C920.571 1114.04 922.365 1114.11 924.16 1114.15C951.311 1114.74 977.216 1107.56 999.414 1092.29C1023.05 1076.07 1042.53 1049.52 1046.15 1017.49" stroke="#E3E3E3" stroke-miterlimit="10"/>
<path d="M59.2656 1318.31C79.4091 1298.15 102.626 1281.4 127.658 1268.11C138.752 1262.22 150.277 1256.98 162.422 1253.43C186.651 1246.37 211.742 1246.49 235.785 1250.24C242.486 1251.28 249.11 1252.58 255.625 1254.09C283.234 1260.55 309.975 1270.83 335.22 1284.08C360.16 1297.19 383.46 1313.72 408.228 1329.36C437.492 1347.83 466.26 1368.27 498.215 1381.59C525.347 1392.88 556.188 1398.27 584.193 1390.68C589.296 1389.3 594.291 1387.5 599.144 1385.23C629.047 1371.26 648.106 1342.86 663.34 1312.74C668.137 1303.25 672.562 1293.59 676.856 1284.13C688.089 1259.39 700.336 1234.24 714.573 1211.19C737.777 1173.77 767.665 1144.5 806.284 1125.94C821.334 1118.71 838.66 1112.81 856.484 1111.72C881.923 1110.17 905.348 1115.05 927.596 1114.64C929.352 1114.61 931.107 1114.54 932.86 1114.45C959.396 1112.99 984.153 1103.66 1004.66 1087.05C1026.49 1069.4 1043.55 1042.59 1045.85 1011.48" stroke="#E9E9E9" stroke-miterlimit="10"/>
<path d="M62.6934 1329.96C82.321 1310.25 105.105 1294.03 129.726 1281.38C140.635 1275.77 151.96 1270.83 163.812 1267.36C187.44 1260.45 211.959 1259.63 235.662 1262.37C242.285 1263.11 248.844 1264.12 255.319 1265.33C282.734 1270.51 309.432 1279.5 334.786 1291.49C359.832 1303.35 383.431 1318.51 407.782 1333.53C437.885 1352.09 467.051 1373.15 499.622 1386.96C527.245 1398.65 558.762 1404.4 587.381 1396.84C592.6 1395.47 597.712 1393.65 602.68 1391.36C633.296 1377.24 652.706 1348.24 668.388 1317.52C673.322 1307.85 677.892 1298 682.347 1288.38C694.002 1263.2 706.892 1237.63 721.945 1214.27C746.478 1176.32 777.81 1146.39 818.294 1128.89C833.196 1122.45 849.997 1117.45 867.151 1116.17C891.643 1114.34 914.645 1117.45 936.422 1115.33C938.14 1115.16 939.856 1114.96 941.57 1114.73C967.489 1111.22 991.098 1099.75 1009.91 1081.81C1029.94 1062.74 1044.56 1035.65 1045.55 1005.46" stroke="#EEEEEE" stroke-miterlimit="10"/>
<path d="M66.1211 1341.61C85.2314 1322.34 107.583 1306.67 131.793 1294.65C142.517 1289.32 153.642 1284.69 165.2 1281.3C188.226 1274.53 212.166 1272.82 235.537 1274.5C242.079 1274.95 248.577 1275.66 255.013 1276.57C282.235 1280.47 308.885 1288.18 334.35 1298.9C359.501 1309.5 383.401 1323.3 407.332 1337.7C438.286 1356.33 467.838 1378.04 501.024 1392.33C529.14 1404.43 561.332 1410.53 590.563 1403.01C595.898 1401.64 601.127 1399.82 606.21 1397.5C637.539 1383.22 657.301 1353.63 673.428 1322.3C678.499 1312.45 683.214 1302.42 687.831 1292.63C699.908 1267.02 713.44 1241.03 729.308 1217.37C755.169 1178.88 787.933 1148.16 830.294 1131.85C845.063 1126.17 861.324 1122.11 877.808 1120.63C901.353 1118.51 923.931 1119.86 945.237 1116.03C946.919 1115.73 948.596 1115.4 950.268 1115.03C975.569 1109.47 998.033 1095.85 1015.15 1076.57C1033.38 1056.07 1045.57 1028.71 1045.24 999.445" stroke="#F4F4F4" stroke-miterlimit="10"/>
<path d="M69.5469 1353.26C88.1413 1334.43 110.06 1319.3 133.858 1307.91C144.398 1302.87 155.324 1298.55 166.587 1295.23C189.011 1288.61 212.372 1286.02 235.411 1286.63C241.873 1286.8 248.307 1287.2 254.704 1287.81C281.731 1290.43 308.336 1296.87 333.913 1306.32C359.168 1315.66 383.373 1328.08 406.882 1341.87C438.695 1360.55 468.624 1382.92 502.427 1397.7C531.035 1410.2 563.903 1416.66 593.747 1409.17C599.197 1407.81 604.544 1405.97 609.743 1403.63C641.784 1389.2 661.899 1359.02 678.471 1327.09C683.679 1317.05 688.539 1306.84 693.317 1296.88C705.815 1270.84 719.993 1244.43 736.675 1220.46C763.867 1181.43 798.058 1149.76 842.299 1134.81C856.958 1129.86 872.655 1126.76 888.471 1125.09C911.068 1122.69 933.223 1122.27 954.058 1116.73C955.702 1116.29 957.34 1115.82 958.972 1115.32C983.659 1107.71 1004.97 1091.95 1020.4 1071.33C1036.82 1049.41 1046.59 1021.77 1044.94 993.432" stroke="#F9F9F9" stroke-miterlimit="10"/>
<path d="M72.9766 1364.91C114.984 1322.19 175.389 1299.95 235.289 1298.76C295.188 1297.58 354.427 1316.3 406.435 1346.05C439.118 1364.74 469.414 1387.81 503.832 1403.07C538.251 1418.33 578.884 1425.09 613.277 1409.77C656.319 1390.59 678.142 1343.48 698.804 1301.13C732.783 1231.49 779.912 1159.46 854.305 1137.77C891.359 1126.97 931.857 1129.99 967.677 1115.61C1017.34 1095.68 1050.39 1040.62 1044.63 987.418" stroke="white" stroke-miterlimit="10"/>
</g>
<rect x="1" y="1027" width="562" height="788" fill="url(#paint1_linear_1008_658)"/>
<rect x="339" y="1532" width="562" height="788" transform="rotate(-90 339 1532)" fill="url(#paint2_linear_1008_658)"/>
<defs>
<linearGradient id="paint0_linear_1008_658" x1="1826" y1="1" x2="1826" y2="911" gradientUnits="userSpaceOnUse">
<stop offset="0.583485" stop-color="#121923" stop-opacity="0"/>
<stop offset="1" stop-color="#121923"/>
</linearGradient>
<linearGradient id="paint1_linear_1008_658" x1="282" y1="1027" x2="282" y2="1717.85" gradientUnits="userSpaceOnUse">
<stop offset="0.583485" stop-color="#121923" stop-opacity="0"/>
<stop offset="1" stop-color="#121923"/>
</linearGradient>
<linearGradient id="paint2_linear_1008_658" x1="620" y1="1532" x2="620" y2="2222.85" gradientUnits="userSpaceOnUse">
<stop offset="0.583485" stop-color="#121923" stop-opacity="0"/>
<stop offset="1" stop-color="#121923"/>
</linearGradient>
</defs>
</svg>
