<svg width="255" height="75" viewBox="0 0 255 75" fill="none" xmlns="http://www.w3.org/2000/svg">
<path fill-rule="evenodd" clip-rule="evenodd" d="M0.00315732 37.5564C-0.0523422 16.8624 16.579 1.42246 35.5488 0.76757C56.0688 0.0571759 72.9592 16.3 73.7953 35.8618C74.7166 57.4363 57.9077 73.6385 38.653 74.693C18.2662 75.8066 -0.27804 58.9459 0.00315732 37.5564ZM36.7402 3.59805C17.7778 3.59805 2.69673 19.0861 2.69673 37.6637C2.69673 56.33 17.9739 71.8329 36.5589 71.8662C55.6692 71.8995 71.0685 56.6408 71.1314 37.8561C71.198 18.742 55.5212 3.39825 36.7402 3.59805Z" fill="#F4A641"/>
<path fill-rule="evenodd" clip-rule="evenodd" d="M9.58995 37.3083C9.54555 20.9693 22.8617 10.8314 36.1927 10.6575C50.9889 10.4688 63.4652 22.4641 63.4615 37.0863C63.4578 52.0601 52.2617 63.6077 37.558 64.1664C23.2909 64.7066 9.74165 53.5697 9.58995 37.3083ZM46.0679 35.5509C46.5674 35.2364 46.9115 35.0033 47.2741 34.7961C50.9482 32.676 50.8927 26.8078 48.6875 24.4029C47.2778 22.8637 45.4723 22.2088 43.5224 21.8499C42.2459 21.6131 40.9472 21.4947 39.5634 21.3097C39.5634 19.53 39.5634 17.7614 39.5634 15.9965C38.1944 15.9965 36.9216 15.9965 35.5452 15.9965C35.5452 17.7392 35.5452 19.4486 35.5452 21.1506C34.3057 21.1506 33.1699 21.1506 31.9637 21.1506C31.9637 19.4005 31.9637 17.7059 31.9637 16.0002C30.628 16.0002 29.3589 16.0002 28.0047 16.0002C28.0047 17.7466 28.0047 19.4597 28.0047 21.2394C25.2334 21.2394 22.5472 21.2394 19.7316 21.2394C19.7316 21.9313 19.6835 22.5566 19.7427 23.1708C19.8204 23.97 20.4494 24.5065 21.2856 24.5509C22.1218 24.5953 22.9616 24.5879 23.7978 24.6619C24.0272 24.6841 24.3713 24.8728 24.4342 25.0614C24.6932 25.8199 25.0336 26.6043 25.041 27.385C25.0891 33.5677 25.0854 39.7466 25.041 45.9293C25.0373 46.5657 24.6932 47.2132 24.4416 47.8274C24.2714 48.2418 23.9236 48.3972 23.4241 48.3676C22.5916 48.3158 21.7481 48.3269 20.9193 48.4009C20.2237 48.4638 19.7686 48.9263 19.7353 49.5552C19.6909 50.3544 19.7242 51.161 19.7242 52.049C22.5361 52.049 25.2445 52.049 28.0343 52.049C28.0343 54.0581 28.0343 55.9858 28.0343 57.9172C29.3811 57.9172 30.6465 57.9172 31.997 57.9172C31.997 55.9377 31.997 54.01 31.997 52.086C33.218 52.086 34.3538 52.086 35.5711 52.086C35.5711 54.0655 35.5711 55.9932 35.5711 57.9394C36.9253 57.9394 38.1944 57.9394 39.5597 57.9394C39.5597 55.9821 39.5597 54.0618 39.5597 52.1082C39.9075 52.0786 40.1665 52.0749 40.4218 52.0268C42.4235 51.6679 44.4511 51.4163 46.412 50.902C48.4692 50.3618 50.3044 49.2999 51.4477 47.413C53.4568 44.0978 53.0868 38.1815 47.3407 36.0134C46.9559 35.8691 46.5711 35.7359 46.0679 35.5509Z" fill="#F4A641"/>
<path d="M64.8965 28.6649C65.5292 28.4429 66.1619 28.2209 66.9019 27.9619C67.6345 30.1597 68.0563 32.4093 68.3153 34.7884C67.4902 34.7884 66.7502 34.7884 66.0324 34.7884C65.6587 32.7756 65.285 30.7591 64.8965 28.6649Z" fill="#F4A641"/>
<path d="M65.333 44.6195C65.6031 42.6511 65.8621 40.7678 66.1285 38.8105C66.8537 38.866 67.6011 38.9252 68.4336 38.9918C68.3633 41.1304 67.923 43.1728 67.3976 45.2596C66.6502 45.0265 65.9657 44.8156 65.333 44.6195Z" fill="white"/>
<path d="M11.9724 53.4882C11.3952 53.9137 10.8069 54.3466 10.1557 54.8239C8.90511 53.0627 7.97272 51.1425 7.20312 49.0816C7.82842 48.8152 8.44631 48.5488 9.10121 48.2676C10.0484 49.9918 10.9882 51.6975 11.9724 53.4882Z" fill="white"/>
<path d="M56.0173 62.7387C55.9211 62.6573 55.8656 62.6314 55.8434 62.5907C55.5326 62.0505 54.9443 61.477 54.9998 60.9775C55.0516 60.5002 55.7731 60.0895 56.2097 59.6603C57.1938 58.6946 58.1817 57.7326 59.2029 56.7373C59.7135 57.1628 60.2315 57.5957 60.8013 58.0693C59.4212 59.8675 57.808 61.3549 56.0173 62.7387Z" fill="white"/>
<path d="M6.46675 27.9736C7.17715 28.2215 7.83204 28.4509 8.46104 28.6692C8.04294 30.6635 7.63225 32.606 7.22155 34.5596C6.54815 34.5596 5.87846 34.5596 5.13477 34.5596C5.31976 32.2804 5.78966 30.127 6.46675 27.9736Z" fill="white"/>
<path d="M64.0524 48.6084C64.7443 48.9155 65.4288 49.2226 66.228 49.5778C65.2845 51.3575 64.3669 53.0928 63.4419 54.8354C62.7611 54.3618 62.1654 53.9475 61.5586 53.5257C62.3763 51.9088 63.194 50.2993 64.0524 48.6084Z" fill="#F4A641"/>
<path d="M7.99858 44.4277C7.35109 44.6423 6.69249 44.8606 5.9784 45.0974C5.38641 43.0217 5.09041 40.9497 5.08301 38.8223C5.81807 38.8223 6.50256 38.8223 7.13649 38.8223C7.42509 40.7203 7.70629 42.5407 7.99858 44.4277Z" fill="#F4A641"/>
<path d="M58.1893 17.2615C56.9609 16.1219 55.603 14.8639 54.1934 13.5578C54.5745 13.0213 54.9888 12.4405 55.5031 11.7227C57.0127 13.0842 58.4594 14.3829 59.969 15.7445C59.2882 16.3254 58.7369 16.7916 58.1893 17.2615Z" fill="#F4A641"/>
<path d="M18.3883 60.766C17.9628 61.3506 17.5299 61.9352 17.0268 62.6271C15.6171 61.1952 14.2148 59.7707 12.7422 58.276C13.3157 57.7876 13.8596 57.3251 14.3739 56.8848C15.7244 58.1909 17.0379 59.4599 18.3883 60.766Z" fill="#F4A641"/>
<path d="M60.6973 20.3141C61.2745 19.8998 61.8591 19.4743 62.5732 18.96C63.524 20.5953 64.4564 22.1974 65.4332 23.8772C64.6747 24.2472 64.0309 24.558 63.3723 24.8762C62.4659 23.3333 61.589 21.8385 60.6973 20.3141Z" fill="white"/>
<path d="M43.5297 66.1572C43.6814 66.9231 43.8146 67.6039 43.9811 68.4623C42.231 68.7065 40.5438 68.9396 38.7123 69.1949C38.6642 68.3809 38.6235 67.6409 38.5791 66.8528C40.2404 66.6197 41.8499 66.394 43.5297 66.1572Z" fill="white"/>
<path d="M34.487 66.7866C34.487 67.6043 34.487 68.2999 34.487 69.1435C32.7591 68.8956 31.1015 68.6588 29.3662 68.4072C29.4957 67.608 29.6104 66.9087 29.7325 66.1465C31.3642 66.3685 32.9256 66.5757 34.487 66.7866Z" fill="#F4A641"/>
<path d="M34.4947 8.23419C32.8852 8.49319 31.3793 8.73739 29.8253 8.98529C29.6884 8.21569 29.5626 7.509 29.4072 6.6358C31.0574 6.37681 32.6484 6.12891 34.306 5.86621C34.3726 6.7357 34.4318 7.4535 34.4947 8.23419Z" fill="white"/>
<path d="M38.4082 5.87695C40.1472 6.13225 41.7567 6.37275 43.4402 6.62065C43.2737 7.46794 43.1331 8.18943 42.9925 8.91093C41.4237 8.67413 39.9363 8.44843 38.4082 8.21533C38.4082 7.49754 38.4082 6.77975 38.4082 5.87695Z" fill="#F4A641"/>
<path d="M17.1637 12.3594C17.6521 13.0624 18.0591 13.6507 18.4513 14.2168C17.2747 15.2971 16.1277 16.3479 14.9178 17.4579C14.4368 17.0324 13.9151 16.5736 13.2861 16.0149C14.5922 14.7866 15.8576 13.5952 17.1637 12.3594Z" fill="white"/>
<path d="M10.4817 19.2559C11.1625 19.7739 11.7397 20.2105 12.3095 20.6433C11.5103 21.9975 10.7333 23.3184 9.92305 24.6985C9.28295 24.4062 8.66136 24.1176 7.94727 23.7883C8.80196 22.2639 9.62335 20.7913 10.4817 19.2559Z" fill="#F4A641"/>
<path d="M51.6215 62.9971C51.899 63.6927 52.1506 64.3143 52.4466 65.0543C50.9703 65.7535 49.5162 66.4491 48.0066 67.1669C47.7143 66.3751 47.4738 65.7239 47.2148 65.0247C48.6726 64.3476 50.1045 63.6927 51.6215 62.9971Z" fill="#F4A641"/>
<path d="M25.851 10.1698C24.4191 10.8691 23.0649 11.5277 21.633 12.2233C21.3444 11.5795 21.0521 10.9283 20.708 10.1587C22.1917 9.44464 23.6088 8.75644 25.1147 8.03125C25.3774 8.80454 25.6105 9.47424 25.851 10.1698Z" fill="#F4A641"/>
<path d="M21.504 62.8164C22.9026 63.5157 24.2235 64.1743 25.5999 64.8588C25.4001 65.5655 25.204 66.2537 24.9783 67.0418C23.4946 66.3129 22.0812 65.6173 20.6123 64.8958C20.9268 64.1595 21.208 63.5046 21.504 62.8164Z" fill="white"/>
<path d="M47.4662 7.84961C48.9536 8.4897 50.3781 9.1002 51.8359 9.72919C51.4474 10.4766 51.1107 11.1167 50.7629 11.7827C49.4494 11.1833 48.1544 10.595 46.8076 9.98079C47.0185 9.3074 47.2294 8.6266 47.4662 7.84961Z" fill="white"/>
<path d="M32.3887 47.1504C32.3887 44.2052 32.3887 41.3377 32.3887 38.4555C32.4109 38.437 32.4516 38.3815 32.4923 38.3815C35.1562 38.4 37.8387 38.0781 40.4657 38.6849C41.3315 38.8847 42.1936 39.2843 42.9373 39.7801C44.8169 41.0343 45.0389 44.7454 42.1973 45.9775C40.8098 46.5806 39.3372 46.7841 37.8498 46.884C36.0553 47.0024 34.2572 47.0616 32.3887 47.1504Z" fill="white"/>
<path d="M32.3672 33.2124C32.3672 30.7149 32.3672 28.3987 32.3672 26.0936C32.4338 26.0456 32.4782 25.9938 32.5189 25.9938C34.9757 25.9161 37.4398 25.831 39.8485 26.4155C40.5922 26.5968 41.347 26.9261 41.9649 27.3664C43.6854 28.5985 43.6151 30.9628 41.8095 32.0839C41.0991 32.5242 40.2333 32.8794 39.4119 32.9423C37.0994 33.1273 34.7722 33.1347 32.3672 33.2124Z" fill="white"/>
<path d="M111.678 52.3931L103.358 39.2731H108.862L117.438 52.3931H111.678ZM106.59 49.1291C104.392 49.1291 102.462 48.6385 100.798 47.6571C99.1337 46.6758 97.8217 45.3211 96.8617 43.5931C95.923 41.8438 95.4537 39.8278 95.4537 37.5451C95.4537 35.2624 95.923 33.2571 96.8617 31.5291C97.8217 29.7798 99.1337 28.4145 100.798 27.4331C102.462 26.4518 104.392 25.9611 106.59 25.9611C108.787 25.9611 110.728 26.4518 112.414 27.4331C114.099 28.4145 115.4 29.7798 116.318 31.5291C117.256 33.2571 117.726 35.2624 117.726 37.5451C117.726 39.8278 117.256 41.8438 116.318 43.5931C115.4 45.3211 114.099 46.6758 112.414 47.6571C110.728 48.6385 108.787 49.1291 106.59 49.1291ZM106.59 44.8091C107.891 44.8091 109 44.5105 109.918 43.9131C110.856 43.3158 111.582 42.4838 112.094 41.4171C112.606 40.3291 112.862 39.0385 112.862 37.5451C112.862 36.0518 112.606 34.7718 112.094 33.7051C111.582 32.6171 110.856 31.7851 109.918 31.2091C109 30.6118 107.891 30.3131 106.59 30.3131C105.331 30.3131 104.232 30.6118 103.294 31.2091C102.355 31.7851 101.63 32.6171 101.118 33.7051C100.606 34.7718 100.35 36.0518 100.35 37.5451C100.35 39.0385 100.606 40.3291 101.118 41.4171C101.63 42.4838 102.355 43.3158 103.294 43.9131C104.232 44.5105 105.331 44.8091 106.59 44.8091ZM127.33 49.1291C125.986 49.1291 124.845 48.8518 123.906 48.2971C122.989 47.7425 122.285 46.9318 121.794 45.8651C121.325 44.7771 121.09 43.4545 121.09 41.8971V32.6171H125.89V41.4171C125.89 42.6118 126.135 43.5291 126.626 44.1691C127.117 44.7878 127.906 45.0971 128.994 45.0971C129.655 45.0971 130.242 44.9478 130.754 44.6491C131.287 44.3505 131.693 43.9131 131.97 43.3371C132.269 42.7611 132.418 42.0571 132.418 41.2251V32.6171H137.218V48.7451H133.026L132.642 46.1851C132.173 47.0598 131.49 47.7745 130.594 48.3291C129.698 48.8625 128.61 49.1291 127.33 49.1291ZM141.439 48.7451V32.6171H146.239V48.7451H141.439ZM143.839 30.7611C142.986 30.7611 142.292 30.5158 141.759 30.0251C141.226 29.5344 140.959 28.9158 140.959 28.1691C140.959 27.4011 141.226 26.7718 141.759 26.2811C142.292 25.7904 142.986 25.5451 143.839 25.5451C144.714 25.5451 145.418 25.7904 145.951 26.2811C146.506 26.7718 146.783 27.4011 146.783 28.1691C146.783 28.9158 146.506 29.5344 145.951 30.0251C145.418 30.5158 144.714 30.7611 143.839 30.7611ZM154.693 48.7451L148.837 32.6171H153.893L157.637 44.2331L161.381 32.6171H166.373L160.549 48.7451H154.693ZM175.931 49.1291C174.374 49.1291 172.977 48.7665 171.739 48.0411C170.502 47.3158 169.521 46.3238 168.795 45.0651C168.07 43.7851 167.707 42.3345 167.707 40.7131C167.707 39.0491 168.07 37.5878 168.795 36.3291C169.521 35.0491 170.502 34.0464 171.739 33.3211C172.998 32.5958 174.395 32.2331 175.931 32.2331C177.51 32.2331 178.918 32.5958 180.155 33.3211C181.393 34.0464 182.374 35.0491 183.099 36.3291C183.825 37.5878 184.187 39.0384 184.187 40.6811C184.187 42.3238 183.825 43.7851 183.099 45.0651C182.374 46.3238 181.393 47.3158 180.155 48.0411C178.918 48.7665 177.51 49.1291 175.931 49.1291ZM175.931 44.9691C176.571 44.9691 177.137 44.8091 177.627 44.4891C178.139 44.1691 178.545 43.6891 178.843 43.0491C179.142 42.4091 179.291 41.6198 179.291 40.6811C179.291 39.7425 179.142 38.9531 178.843 38.3131C178.545 37.6731 178.15 37.1931 177.659 36.8731C177.169 36.5531 176.603 36.3931 175.963 36.3931C175.323 36.3931 174.747 36.5531 174.235 36.8731C173.745 37.1931 173.35 37.6731 173.051 38.3131C172.753 38.9531 172.603 39.7425 172.603 40.6811C172.603 41.6198 172.753 42.4091 173.051 43.0491C173.35 43.6891 173.745 44.1691 174.235 44.4891C174.747 44.8091 175.313 44.9691 175.931 44.9691Z" fill="white"/>
<path d="M185.497 48.7451L191.385 40.6811L185.497 32.6171H190.681L194.393 37.8331L198.105 32.6171H203.257L197.369 40.6811L203.257 48.7451H198.105L194.393 43.4971L190.681 48.7451H185.497Z" fill="#F4A641"/>
</svg>
