<svg width="42" height="32" viewBox="0 0 42 32" fill="none" xmlns="http://www.w3.org/2000/svg">
<path d="M4.16573 28.6385C1.87465 26.1183 0.499996 23.369 0.499996 18.7868C0.499996 10.7681 6.2277 3.66572 14.2465 -1.52588e-05L16.3085 2.97839C8.74789 7.10233 7.14413 12.3718 6.68592 15.8084C7.83146 15.1211 9.43522 14.892 11.039 15.1211C15.1629 15.5793 18.3704 18.7869 18.3704 23.1399C18.3704 25.2019 17.454 27.2639 16.0794 28.8676C14.4756 30.4714 12.6427 31.1587 10.3516 31.1587C7.83146 31.1587 5.54038 30.0131 4.16573 28.6385ZM27.0765 28.6385C24.7855 26.1183 23.4108 23.369 23.4108 18.7868C23.4108 10.7681 29.1385 3.66572 37.1573 -1.52588e-05L39.2193 2.97839C31.6587 7.10233 30.0549 12.3718 29.5967 15.8084C30.7423 15.1211 32.346 14.892 33.9498 15.1211C38.0737 15.5793 41.2812 19.016 41.2812 23.1399C41.2812 25.2019 40.3648 27.2639 38.9902 28.8676C37.3864 30.4714 35.5535 31.1587 33.2625 31.1587C30.7423 31.1587 28.4512 30.0131 27.0765 28.6385Z" fill="#F4A641" fill-opacity="0.3"/>
</svg>
