<svg width="36" height="36" viewBox="0 0 36 36" fill="none" xmlns="http://www.w3.org/2000/svg">
<path d="M18 0C27.94 0 36 8.06 36 18C36 27.94 27.94 36 18 36C8.06 36 0 27.945 0 18C0 8.055 8.06 0 18 0Z" fill="#26A17B"/>
<path d="M20.5346 15.9931V13.3131H26.6597V9.23309H9.98465V13.3131H16.1096V15.9931C11.1346 16.2231 7.38965 17.2081 7.38965 18.3881C7.38965 19.5681 11.1346 20.5531 16.1096 20.7831V29.3581H20.5396V20.7831C25.5096 20.5531 29.2446 19.5681 29.2446 18.3881C29.2397 17.2081 25.5047 16.2231 20.5346 15.9931ZM20.5396 20.0581C20.4146 20.0631 19.7746 20.1031 18.3446 20.1031C17.1996 20.1031 16.3996 20.0731 16.1146 20.0581V20.0631C11.7196 19.8681 8.43465 19.1031 8.43465 18.1881C8.43465 17.2731 11.7146 16.5081 16.1146 16.3131V19.2931C16.4046 19.3131 17.2246 19.3631 18.3646 19.3631C19.7296 19.3631 20.4146 19.3081 20.5447 19.2931V16.3031C24.9347 16.4981 28.2097 17.2631 28.2097 18.1781C28.1996 19.0931 24.9247 19.8581 20.5396 20.0581Z" fill="white"/>
</svg>
