<svg width="70" height="70" viewBox="0 0 70 70" fill="none" xmlns="http://www.w3.org/2000/svg">
<path d="M35 70C54.33 70 70 54.33 70 35C70 15.67 54.33 0 35 0C15.67 0 0 15.67 0 35C0 54.33 15.67 70 35 70Z" fill="#00DCFA"/>
<path d="M42.3894 10.9375C33.9237 10.9375 26.7334 17.4475 25.83 25.8278C17.4453 26.7334 10.9375 33.9238 10.9375 42.3872C10.9398 46.8087 12.6971 51.0484 15.8234 54.1751C18.9496 57.3017 23.1891 59.0596 27.6106 59.0625C36.0763 59.0625 43.295 52.5525 44.17 44.1722C52.5525 43.2666 59.0625 36.0763 59.0625 27.6128C59.0602 23.1913 57.3029 18.9516 54.1766 15.8249C51.0504 12.6983 46.8109 10.9404 42.3894 10.9375ZM55.1556 29.4788C54.7393 32.2133 53.4599 34.7431 51.504 36.699C49.5481 38.6549 47.0183 39.9343 44.2837 40.3506V29.4788H55.1556ZM14.8444 40.5212C15.2551 37.7816 16.5321 35.2453 18.4884 33.2839C20.4448 31.3224 22.9777 30.0388 25.7162 29.6209V40.4928H14.8444V40.5212ZM40.3791 44.2837C39.9274 47.3466 38.3889 50.1448 36.0445 52.167C33.7002 54.1892 30.7066 55.3005 27.6106 55.2978C24.5152 55.3005 21.5221 54.1894 19.1782 52.1676C16.8343 50.1458 15.296 47.3482 14.8444 44.2859H40.3791V44.2837ZM40.5212 29.4788V40.4928H29.4788V29.4788H40.5212ZM55.1556 25.7162H29.6209C30.0726 22.6534 31.6111 19.8552 33.9555 17.833C36.2998 15.8108 39.2934 14.6995 42.3894 14.7022C45.4848 14.6995 48.4779 15.8106 50.8218 17.8324C53.1657 19.8542 54.704 22.654 55.1556 25.7162Z" fill="white"/>
</svg>
