<svg width="70" height="70" viewBox="0 0 70 70" fill="none" xmlns="http://www.w3.org/2000/svg">
<path d="M35 70C54.3305 70 70 54.3305 70 35C70 15.6695 54.3305 0 35 0C15.6695 0 0 15.6695 0 35C0 54.3305 15.6695 70 35 70Z" fill="#070A0E"/>
<path fill-rule="evenodd" clip-rule="evenodd" d="M20.2192 46.7357C19.1727 46.0952 18.5322 44.9577 18.5322 43.7327V36.8937C18.5322 36.0817 19.1937 35.4237 20.0057 35.4272C20.2647 35.4272 20.5202 35.4972 20.7442 35.6267L36.1757 44.6252C37.0787 45.1502 37.6352 46.1162 37.6352 47.1627V54.2467C37.6387 55.2197 36.8512 56.0107 35.8782 56.0107C35.5527 56.0107 35.2307 55.9197 34.9542 55.7517L20.2192 46.7357ZM43.2212 33.7542C44.1242 34.2792 44.6772 35.2487 44.6807 36.2917V50.6697C44.6807 51.0932 44.4532 51.4852 44.0822 51.6917L40.7047 53.5922C40.6627 53.6167 40.6172 53.6342 40.5682 53.6482V45.6647C40.5682 44.6322 40.0257 43.6732 39.1367 43.1412L25.5847 35.0352V26.0227C25.5847 25.2107 26.2462 24.5527 27.0582 24.5562C27.3172 24.5562 27.5727 24.6262 27.7967 24.7557L43.2212 33.7542ZM49.9762 23.1352C50.8827 23.6602 51.4392 24.6297 51.4392 25.6762V46.6762C51.4357 47.1067 51.1977 47.5022 50.8197 47.7087L47.6172 49.4377V34.8182C47.6172 33.7857 47.0747 32.8302 46.1927 32.2982L32.3397 23.9892V15.4422C32.3397 15.1832 32.4097 14.9277 32.5357 14.7037C32.9452 14.0037 33.8447 13.7657 34.5447 14.1717L49.9762 23.1352Z" fill="#00D395"/>
</svg>
