<svg width="70" height="70" viewBox="0 0 70 70" fill="none" xmlns="http://www.w3.org/2000/svg">
<path d="M35 70C54.33 70 70 54.33 70 35C70 15.67 54.33 0 35 0C15.67 0 0 15.67 0 35C0 54.33 15.67 70 35 70Z" fill="#0088CC"/>
<path fill-rule="evenodd" clip-rule="evenodd" d="M25.2503 23.125H44.8753C45.6253 23.125 46.2503 23.25 47.0003 23.625C47.8753 24 48.3753 24.625 48.6253 25.125C48.6253 25.125 48.6253 25.25 48.7503 25.25C49.1253 25.875 49.3753 26.625 49.3753 27.5C49.3753 28.25 49.2503 29 48.7503 29.75L36.3753 51C36.1253 51.5 35.6253 51.75 35.0003 51.75C34.5003 51.75 34.0003 51.5 33.6253 51L21.5003 29.75C21.2503 29.25 20.7503 28.625 20.7503 27.625C20.6253 26.75 20.8753 26 21.2503 25.25C21.6253 24.5 22.2503 23.875 23.1253 23.625C23.8753 23.125 24.7503 23.125 25.2503 23.125ZM33.5003 26.125H25.2503C24.7503 26.125 24.5003 26.125 24.3753 26.25C24.1253 26.375 24.0003 26.5 23.8753 26.75C23.7503 26.875 23.7503 27.125 23.7503 27.375C23.7503 27.5 23.8753 27.625 24.1253 28.125L33.5003 44.375V26.125ZM36.5003 26.125V44.5L46.0003 28.125C46.1253 27.875 46.1253 27.625 46.1253 27.375C46.1253 27.125 46.1253 26.875 46.0003 26.75C45.8753 26.625 45.8753 26.5 45.7503 26.5L45.6253 26.375C45.3753 26.25 45.1253 26.25 44.7503 26.25H36.5003V26.125Z" fill="white"/>
</svg>
