<svg width="70" height="70" viewBox="0 0 70 70" fill="none" xmlns="http://www.w3.org/2000/svg">
<path d="M35 70C54.33 70 70 54.33 70 35C70 15.67 54.33 0 35 0C15.67 0 0 15.67 0 35C0 54.33 15.67 70 35 70Z" fill="black"/>
<path fill-rule="evenodd" clip-rule="evenodd" d="M11.3561 46.7795C9.74598 43.3897 8.89852 39.6608 8.89852 35.6778C8.89852 21.1015 20.6782 9.32186 35.2544 9.32186C43.39 9.32186 50.5934 12.9659 55.4239 18.7286L58.3053 16.271C52.7968 9.66084 44.4917 5.5083 35.2544 5.5083C18.5595 5.5083 5.08496 18.9829 5.08496 35.593C5.08496 40.1693 6.10191 44.4914 7.88157 48.3049L11.3561 46.7795Z" fill="white"/>
<path fill-rule="evenodd" clip-rule="evenodd" d="M35.2545 53.4747C25.424 53.4747 17.3731 45.5086 17.3731 35.5934C17.3731 25.7628 25.3392 17.712 35.2545 17.712C40.763 17.712 45.6782 20.1696 48.9833 24.0679L51.8647 21.6103C47.8816 16.8645 41.9494 13.8984 35.2545 13.8984C23.3053 13.9832 13.5596 23.6442 13.5596 35.5934C13.5596 47.5425 23.2206 57.2035 35.1697 57.2035V53.4747H35.2545Z" fill="white"/>
<path fill-rule="evenodd" clip-rule="evenodd" d="M41.6953 41.0169C40.1699 42.8813 37.797 44.0678 35.1699 44.0678C30.5089 44.0678 26.6953 40.2542 26.6953 35.5932C26.6953 30.9322 30.5089 27.1186 35.1699 27.1186C37.797 27.1186 40.0851 28.3051 41.6953 30.1695L44.9156 27.4576C42.5428 24.661 39.0682 22.8813 35.1699 22.8813C28.136 22.8813 22.458 28.5593 22.458 35.5932C22.458 42.6271 28.136 48.3051 35.1699 48.3051C38.7292 48.3051 41.9495 46.8644 44.3224 44.4068L41.6953 41.0169Z" fill="white"/>
</svg>
