<svg width="36" height="36" viewBox="0 0 36 36" fill="none" xmlns="http://www.w3.org/2000/svg">
<path d="M18 36C27.9411 36 36 27.9411 36 18C36 8.05887 27.9411 0 18 0C8.05887 0 0 8.05887 0 18C0 27.9411 8.05887 36 18 36Z" fill="#988430"/>
<path d="M17.9996 35.4234C27.6223 35.4234 35.423 27.6227 35.423 18C35.423 8.37727 27.6223 0.576538 17.9996 0.576538C8.3769 0.576538 0.576172 8.37727 0.576172 18C0.576172 27.6227 8.3769 35.4234 17.9996 35.4234Z" fill="#7A6A2A"/>
<path d="M17.9997 35.0563C27.4196 35.0563 35.056 27.4199 35.056 18C35.056 8.58004 27.4196 0.943665 17.9997 0.943665C8.57973 0.943665 0.943359 8.58004 0.943359 18C0.943359 27.4199 8.57973 35.0563 17.9997 35.0563Z" fill="#BA9F33"/>
<path fill-rule="evenodd" clip-rule="evenodd" d="M7.87024 16.0777C7.76829 15.9846 7.66058 15.8913 7.56151 15.7982C7.46244 15.705 7.36068 15.6117 7.25872 15.5186L6.95575 15.2306C6.90621 15.1811 6.8538 15.1375 6.80426 15.0878C6.75472 15.0442 6.69655 14.9946 6.64701 14.9509C6.24496 14.5694 5.84061 14.1878 5.44413 13.8062C5.85482 14.1819 6.25687 14.555 6.66756 14.9363L6.81021 15.0791C6.85975 15.1285 6.91216 15.1722 6.9617 15.2218L7.26448 15.5013C7.36644 15.5944 7.46551 15.6878 7.56746 15.7893C7.66941 15.8909 7.76848 15.9844 7.87044 16.0773L7.87024 16.0777ZM2.53437 16.0201C2.53437 16.0201 3.99645 16.1714 4.71012 16.2734C5.37117 16.3667 7.4392 16.684 7.4392 16.684L2.53437 16.0201ZM2.53437 16.0201C2.94506 16.055 3.35575 16.0986 3.76644 16.1424C3.9761 16.1628 4.17712 16.186 4.37815 16.2063L4.68669 16.2415C4.78864 16.2559 4.88772 16.2705 4.98967 16.2851L6.21309 16.4801L6.82461 16.5821C7.02564 16.617 7.22666 16.655 7.43632 16.69C7.2353 16.6696 7.02564 16.6405 6.82461 16.6113L6.21309 16.5239L4.98967 16.3434C4.88772 16.3288 4.78864 16.3083 4.68669 16.2939L4.37796 16.2584C4.17693 16.238 3.96727 16.2088 3.76624 16.1854C3.35556 16.1361 2.94487 16.0835 2.53418 16.0195L2.53437 16.0201ZM7.29367 17.065C7.29367 17.065 5.73252 17.4613 5.20528 17.6127C4.68688 17.7554 3.1169 18.2331 3.1169 18.2331L7.29348 17.0652L7.29367 17.065Z" fill="#CFB66C"/>
<path fill-rule="evenodd" clip-rule="evenodd" d="M7.29377 17.0649C6.94721 17.1669 6.60257 17.266 6.25102 17.3593L5.20827 17.6388C4.86171 17.7408 4.51707 17.8399 4.17147 17.9418L3.65307 18.0845C3.48123 18.134 3.30651 18.1776 3.12891 18.2273C3.30055 18.1697 3.47547 18.1108 3.64731 18.0612L4.16571 17.8953C4.51227 17.7874 4.85691 17.6855 5.20251 17.5778C5.55483 17.4904 5.90158 17.3971 6.2539 17.3126C6.58875 17.2281 6.94126 17.1439 7.29377 17.0651V17.0649ZM3.33569 19.1942C3.50734 19.1301 5.48801 18.207 5.94823 17.9913C6.17863 17.8834 6.84833 17.6457 6.84833 17.6457L3.33569 19.1942Z" fill="#CFB66C"/>
<path fill-rule="evenodd" clip-rule="evenodd" d="M3.33515 19.1943C3.48645 19.1367 3.6293 19.0662 3.77483 18.9992L4.20587 18.7982L5.07102 18.3817C5.35902 18.2448 5.63896 18.0937 5.93599 17.9651C6.08747 17.9011 6.23896 17.8487 6.39026 17.7992L6.62066 17.7264C6.69919 17.7061 6.77215 17.6826 6.85106 17.6623C6.56306 17.7992 6.25989 17.9157 5.97151 18.0496C5.68351 18.1924 5.38898 18.3089 5.09176 18.437L4.21221 18.8243C3.91691 18.9439 3.62891 19.072 3.33496 19.1943H3.33515ZM3.52715 20.0007C3.52715 20.0007 5.3212 18.9493 5.93867 18.6113C6.262 18.4309 7.30763 17.9123 7.30763 17.9123L3.52715 20.0007Z" fill="#CFB66C"/>
<path fill-rule="evenodd" clip-rule="evenodd" d="M3.52734 20.001C3.83013 19.8146 4.13886 19.6253 4.4476 19.4331L4.9084 19.1533C5.06565 19.0602 5.21714 18.9728 5.37746 18.8797C5.5347 18.7864 5.68619 18.6933 5.84632 18.6059C5.92255 18.5589 6.00242 18.518 6.08517 18.4836L6.32978 18.3613C6.6531 18.2041 6.97643 18.0438 7.31723 17.9069C7.0085 18.1021 6.69093 18.2682 6.37355 18.4399C6.2163 18.5272 6.05598 18.6059 5.89874 18.6933C5.74149 18.7807 5.59 18.874 5.42968 18.9584C5.27243 19.0516 5.12094 19.1389 4.96082 19.2234L4.486 19.4826L3.52773 20.001H3.52734ZM7.29323 18.1426C7.29323 18.1426 6.17771 18.999 5.81656 19.2727C5.45541 19.5465 4.3923 20.3155 4.3923 20.3155L7.29323 18.1426Z" fill="#CFB66C"/>
<path fill-rule="evenodd" clip-rule="evenodd" d="M13.6958 25.0485L13.125 23.9679L13.457 22.6164L15.8249 21.7019L14.8171 19.6341L15.3151 17.5457L16.2502 15.6756L19.1396 15.2213L21.2627 13.1971L25.8473 13.5436L26.7472 18.4456L25.0142 24.6174L24.027 27.8127L20.0249 27.9642L18.1667 26.6768L15.991 25.7679L13.6958 25.0485Z" fill="#E2CC85"/>
<path fill-rule="evenodd" clip-rule="evenodd" d="M20.715 25.0136C20.715 25.0136 20.1615 25.267 19.2174 25.2087C18.9442 24.8418 17.0307 24.6699 17.0307 24.6699C17.0307 24.6699 16.7919 24.5972 16.3695 24.7719C15.9444 24.9447 15.5423 24.9234 15.1666 25.0165C14.7908 25.1096 14.4178 24.6204 14.1298 24.5184C13.8418 24.4107 13.4599 24.1515 13.4599 24.1515L12.6535 24.0728L11.0342 23.3883L8.46156 20.8253L7.76249 21.9197L7.54688 23.2741L8.32467 24.879L10.4188 26.7867L14.5023 27.8235L16.9226 27.1104L19.9547 25.8288L20.715 25.0134V25.0136Z" fill="#F1D789"/>
<path fill-rule="evenodd" clip-rule="evenodd" d="M6.20676 15.9554L6.72516 14.3857L7.34282 13.3719L9.33194 13.2058L8.73482 14.9476L7.07191 17.9069L7.76215 20.5487L6.53892 21.1602L6.16298 20.5836L5.8602 19.2613L5.83984 17.7758L6.20676 15.9554Z" fill="#F4ECB4"/>
<path fill-rule="evenodd" clip-rule="evenodd" d="M8.43769 24.9059L8.05619 24.3729C8.05619 24.3729 7.95423 24.1194 8.0126 23.8981C8.0702 23.6738 8.06195 23.6592 8.03296 23.5747C8.00396 23.4902 7.75916 23.199 7.77376 22.9484C7.78816 22.695 7.7534 22.6105 7.93964 22.4097C8.13472 22.2146 8.07654 21.8767 8.07654 21.8767L8.32998 22.0339L8.38758 21.9466C8.38758 21.9466 8.4807 22.0193 8.4807 22.133C8.50105 21.9758 8.41657 21.2475 8.60876 21.0816C8.80096 20.9157 9.14176 21.8592 9.14176 21.8592L8.93209 20.4902L8.39315 19.0865L7.43487 17.8049L7.37727 16.3922V16.2699C7.37727 16.2699 6.9374 16.9457 6.8151 17.4795C6.72774 17.8464 6.9374 18.292 6.89382 18.8193C6.85868 19.3436 6.8151 19.3027 6.94316 19.5105C7.07123 19.7182 7.38304 20.1454 7.26073 20.4542C7.15302 20.7193 6.78592 20.5329 6.78592 20.5329C6.78592 20.5329 6.71315 20.7483 6.61407 20.827C6.57913 20.699 6.54131 20.6174 6.47142 20.539C6.46547 20.5886 6.45107 20.6556 6.45107 20.6556C6.45107 20.6556 6.38694 20.4545 6.32281 20.2011C6.23564 19.8634 6.14233 19.4177 6.05785 19.1789C6.02291 19.3158 5.93555 19.7322 5.93555 19.7322L5.98508 20.3731L6.22393 21.2527L6.45433 21.8287L6.67859 22.5335L6.87347 23.007L7.03072 23.3681L7.16761 24.1809L7.82867 24.8798L8.18118 25.0372L8.43731 24.9061L8.43769 24.9059Z" fill="#F3E19D"/>
<path fill-rule="evenodd" clip-rule="evenodd" d="M6.55339 14.6738C6.55339 14.6738 6.07857 15.4802 5.94187 16.2931C5.80517 17.1061 5.68267 17.9651 5.76907 19.0718C5.85643 20.1875 6.02251 20.8718 6.15652 21.3612C6.38692 22.1739 6.98366 23.304 6.98366 23.304L7.00401 23.2602C6.90371 23.0701 6.82365 22.87 6.76517 22.6631C6.68645 22.3544 6.65726 21.9875 6.58449 21.8214C6.52036 21.6555 6.41265 21.5126 6.36024 21.3087C6.3107 21.1137 6.30264 20.8049 6.15057 20.5749C6.08644 20.4816 6.00773 20.237 5.98449 19.9924C5.95531 19.6253 5.99909 19.2146 5.96414 18.8769C5.90001 18.3147 5.85643 17.9332 5.9146 17.6389C5.97278 17.3445 6.27595 16.5089 6.46238 15.8448C6.58468 15.4195 6.51172 15.0613 6.73598 14.6913C6.96024 14.3244 7.09732 14.001 7.14667 13.7768C7.20427 13.5729 6.55262 14.6738 6.55262 14.6738H6.55339Z" fill="#F2E8B0"/>
<path fill-rule="evenodd" clip-rule="evenodd" d="M8.8047 14.3505C8.8047 14.3505 8.56009 14.4234 8.44355 14.5515C8.32701 14.6738 8.27747 14.7757 8.12022 14.9825C7.96297 15.1893 7.95414 15.3583 7.82589 15.6175C7.69782 15.8709 7.4152 16.2524 7.38025 16.3893C7.34531 16.5262 7.28713 17.1669 7.21437 17.4699C7.15024 17.7729 7.28713 18.1457 7.28713 18.1457L7.45302 18.1106C7.45302 18.1106 7.45302 18.3262 7.6191 18.4719C7.78499 18.6146 7.81417 17.9883 7.81417 17.9883L8.43453 15.8941L9.36937 15.2592L9.47133 14.7466L8.80432 14.3505H8.8047Z" fill="#F5EEC0"/>
<path fill-rule="evenodd" clip-rule="evenodd" d="M9.25947 15.3001C9.25947 15.3001 8.8196 15.3291 8.60417 15.4865C8.51681 15.5504 8.48187 15.6029 8.38875 15.6816C8.21691 15.8242 8.042 15.9554 7.95771 16.1424C7.8644 16.3286 7.76245 16.6112 7.69256 17.1442C7.66337 17.3685 7.66337 17.5753 7.64302 17.7559C7.61384 18.0006 7.57025 18.1956 7.59349 18.3319C7.62267 18.6115 7.91105 18.7572 7.93909 19.0746L8.53621 18.7718L9.09838 16.5552L10.2926 15.8064L9.61678 15.0491L9.2587 15.2987L9.25947 15.3001Z" fill="#E6DB9D"/>
<path fill-rule="evenodd" clip-rule="evenodd" d="M6.10859 30.2264C6.11109 30.2045 6.11358 30.1826 6.11608 30.1602C6.20325 29.4114 6.21803 28.8438 6.28197 28.4884C6.37509 27.9846 6.43921 27.7972 6.42462 27.6087C6.40427 27.3059 6.38104 27.0845 6.41022 26.8514C6.45381 26.5427 6.75678 26.1758 6.74814 25.9223C6.74219 25.7213 6.64024 25.5904 6.55288 25.4681C6.46552 25.3458 6.39563 25.2438 6.39563 25.2438C6.39563 25.2438 6.99275 24.8331 6.98699 23.1786C6.99918 23.1821 7.01092 23.187 7.02193 23.1932L7.31608 24.029L7.5171 24.2736L8.28894 25.7125L9.28216 26.6767L10.75 27.664L11.6704 28.6656L11.7636 31.3365L10.5607 32.8977L10.3637 33.2544C8.79865 32.4687 7.3635 31.4474 6.1084 30.2262L6.10859 30.2264Z" fill="#E5CB7A"/>
<path fill-rule="evenodd" clip-rule="evenodd" d="M9.7832 32.7815C9.7832 32.7815 9.80356 32.4495 10.0773 32.2339C10.1211 32.3067 10.1501 32.3768 10.1415 32.429C10.191 32.3418 10.5376 31.7825 11.3211 31.6368C12.1047 31.4941 12.294 30.9233 12.294 30.9233L13.9569 29.4117L15.8589 27.6612L18.1715 26.8485L19.2523 26.5834C19.2523 26.5834 19.2726 26.6621 19.2319 26.8368C19.4327 26.8224 19.8784 26.7204 20.3415 26.5572C20.5279 26.4845 20.7028 26.4553 20.7959 26.5515C20.9328 26.6795 20.9532 26.9825 20.9618 27.163C21.1861 27.1135 21.4453 26.898 21.653 26.9184C21.9852 26.9533 22.2793 27.3437 22.6173 27.3437C23.0629 27.3437 23.2637 27.0699 23.5755 26.8543C23.762 26.7262 24.0298 26.5663 24.1813 26.4582C24.5424 26.193 28.3638 25.0251 28.3638 25.0251L29.7036 25.1124L29.9192 26.5513L29.804 30.3126C29.7898 30.3262 29.7756 30.3404 29.7612 30.354L23.6694 33.5357L15.2253 34.8301C13.3337 34.5211 11.5084 33.8932 9.82698 32.9733L9.78378 32.7813L9.7832 32.7815Z" fill="#D8C173"/>
<path fill-rule="evenodd" clip-rule="evenodd" d="M6.62109 30.7048C6.74109 30.4539 6.849 30.244 6.86801 30.1689C6.88298 30.3202 6.91044 30.6522 6.96573 31.0051C6.84964 30.9064 6.73476 30.8063 6.62109 30.7046V30.7048Z" fill="#F1D789"/>
<path fill-rule="evenodd" clip-rule="evenodd" d="M12.7894 34.2445L13.8815 33.9408L13.9746 33.9699C13.9746 33.9699 14.0242 33.9991 14.0242 34.098C14.1611 34.0195 14.2776 34.0339 14.3621 33.9817C14.4057 34.0748 14.4493 34.3835 14.6417 34.4213C14.8425 34.4651 15.0581 34.334 15.2766 34.1681C15.492 33.9962 15.7374 33.7806 15.9231 33.6933C15.9912 33.8185 16.0515 33.9479 16.1037 34.0805C16.3483 33.8855 16.7736 33.0933 17.3794 33.1077C17.5545 32.6939 17.847 32.3405 18.2207 32.0912C18.7829 31.7097 19.1352 31.6805 19.5751 31.7155C19.7498 31.4885 19.9651 31.296 20.21 31.1475C20.2828 31.1767 20.4838 31.299 20.7344 31.1825C20.9878 31.0661 21.2731 30.6145 21.6489 30.5564C21.8514 30.5285 22.0572 30.5717 22.2314 30.6787C22.2314 30.6787 23.3258 29.5921 24.0809 29.231C24.0518 29.1436 23.9936 28.8145 24.8789 28.0863C24.9284 28.1301 24.8935 28.2524 24.9284 28.2591C24.9428 28.2591 25.1588 28.166 25.4322 27.9561C25.7702 27.7029 26.1749 27.4377 26.4195 27.365C26.8803 27.2281 27.3691 27.5076 27.3691 27.5076C27.4107 27.4785 27.457 27.4568 27.506 27.4435C27.6224 27.4231 27.7069 27.4085 27.771 27.3859C27.7652 27.5374 27.8497 27.7966 27.771 28.0208C27.8622 28.0721 27.9588 28.1131 28.059 28.1431C28.0097 28.2508 27.9017 28.5246 27.7213 28.6558C27.8726 28.7285 27.8929 28.813 28.1085 28.8862C28.0212 29.0085 27.8781 29.2183 27.8144 29.347C27.7503 29.4839 27.5201 30.0518 27.4181 30.2672C27.3104 30.4828 27.1649 30.8789 27.0948 30.9584C27.0247 31.0379 26.7714 31.3749 26.5764 31.5408C26.7492 31.4766 27.4561 31.2612 27.756 31.1796C27.6667 31.3105 27.2142 31.982 26.7791 32.6277C24.696 33.8762 22.3707 34.6665 19.9582 34.9458C17.5457 35.2251 15.1014 34.987 12.7881 34.2474L12.7894 34.2445Z" fill="#E0CD81"/>
<path fill-rule="evenodd" clip-rule="evenodd" d="M9.33068 15.2214C9.33068 15.2214 9.07743 15.2213 9.0279 15.2563C8.97836 15.2912 9.28133 15.3642 9.37445 15.3991C9.46757 15.4341 9.6686 15.5942 9.72101 15.7225C9.77055 15.8448 11.5414 16.5582 11.5414 16.5582L12.7938 16.4941L13.2256 15.8976L12.4042 15.1782L12.9802 13.4801L12.2172 13.6024L10.3823 14.6968L9.46181 15.0493L9.33068 15.2214Z" fill="#DFC57C"/>
<path fill-rule="evenodd" clip-rule="evenodd" d="M12.082 15.7835C12.1001 15.8128 12.1256 15.8369 12.1559 15.8532C12.1862 15.8696 12.2203 15.8776 12.2548 15.8766C12.514 15.8766 12.7526 15.9408 12.8517 16.0717C13.0178 16.2816 13.478 16.9515 13.478 16.9515L14.5789 17.3476L14.65 16.0512L13.4471 15.2154L12.0781 15.7192V15.7833H12.0812L12.082 15.7835Z" fill="#E5CC7C"/>
<path fill-rule="evenodd" clip-rule="evenodd" d="M11.8659 16.2641C11.8659 16.2641 12.0667 16.2787 12.3202 16.1854C12.5736 16.0921 12.9901 15.8913 13.1707 15.97C13.424 16.0777 13.3716 16.4156 13.6456 16.7188C13.8114 16.9052 14.1144 16.8995 14.2863 17.1005C14.4581 17.3015 15.0493 17.2082 15.0493 17.2082L15.2735 18.4178L14.3736 19.5713L14.0793 21.0042H12.8624L11.7507 20.5632L11.2031 19.2384L11.4769 17.8986L11.8659 16.2641Z" fill="#D2C281"/>
<path fill-rule="evenodd" clip-rule="evenodd" d="M14.2194 16.3223C14.2496 16.3316 14.2809 16.3365 14.3125 16.3369C14.2775 16.3661 14.2046 16.43 14.2338 16.5961C14.263 16.7622 14.3561 16.9719 14.2775 17.0999C14.3402 17.1685 14.387 17.25 14.4144 17.3388C14.464 17.4816 14.4786 17.6126 14.8017 17.6331C14.7551 17.6618 14.7121 17.696 14.6736 17.7351C14.6736 17.7351 14.8979 17.9301 15.0116 18.1106C15.1279 18.1056 15.4367 18.0096 15.4367 18.0096L15.5008 18.0534L15.6377 17.9958C15.6377 17.9958 15.5096 17.9463 15.6027 17.6346C15.6901 17.3608 15.7688 17.3754 15.7755 17.3551C15.7823 17.3347 15.8397 17.0464 15.8397 16.9298C15.8832 16.7785 15.9182 16.3183 15.9182 16.3183L15.8251 15.3018L15.3009 14.9843L14.8747 14.5728L14.4726 15.3301L14.2079 15.5941L14.1875 16.2494L14.2194 16.3223Z" fill="#E2C270"/>
<path fill-rule="evenodd" clip-rule="evenodd" d="M15.4805 15.4719C15.4805 15.4719 15.5736 15.7369 15.6087 15.9408C15.6211 15.9012 15.628 15.86 15.6291 15.8185C15.6291 15.8185 15.7018 16.2205 15.7162 16.3866C15.7454 16.3807 15.7738 16.372 15.7804 16.401C15.7869 16.43 15.8533 16.7535 15.838 16.934C15.9593 16.7339 16.1271 16.5661 16.3272 16.4448C16.4437 16.3718 16.5806 16.2933 16.7235 16.2874C16.9477 16.2816 17.1107 16.4302 17.3788 16.4302C18.0252 16.4302 18.6108 15.9554 19.0419 15.8099C19.3593 15.7019 19.633 15.6234 19.8252 15.4485C19.9185 15.37 20.0846 15.1953 20.2359 14.9359C20.4369 14.5903 20.6466 14.2894 20.8565 14.2516C20.7615 14.269 20.6649 14.2758 20.5685 14.2719C20.5685 14.2719 20.6326 14.2078 20.7413 14.1204C20.8499 14.0331 20.9801 13.9254 21.1664 13.9254C21.4985 13.9254 21.6644 13.9747 21.8508 13.9747C22.0373 13.969 22.145 13.9254 22.145 13.9254C22.145 13.9254 22.3402 14.0623 22.7799 14.0623C23.2198 14.068 23.5139 14.1059 23.7441 14.1264C23.9744 14.1469 24.746 14.0623 24.9674 14.0688C25.1117 14.0744 25.2534 14.109 25.384 14.1707L24.6704 12.0971L22.1068 9.85651L20.5806 10.9371L18.2328 13.2847L15.961 14.1264L15.4862 14.6594V15.4719H15.4805Z" fill="#CCB360"/>
<path fill-rule="evenodd" clip-rule="evenodd" d="M20.5775 14.2835C20.5775 14.2835 20.6416 14.2195 20.7492 14.1322C20.8567 14.0448 20.9882 13.9369 21.1744 13.9369C21.5064 13.9369 21.6725 13.9864 21.8589 13.9864C22.0454 13.9807 22.1531 13.9369 22.1531 13.9369C22.1531 13.9369 22.3485 14.0736 22.788 14.0736C23.2279 14.0794 23.522 14.1172 23.7522 14.1375C23.9824 14.1579 24.7541 14.0736 24.9755 14.0799C25.1198 14.0854 25.2614 14.1201 25.3919 14.1819L25.0686 13.2469L24.693 12.5334L23.6211 11.3595C23.6211 11.3595 22.3347 10.6022 22.3249 10.5965C22.3192 10.5907 21.8793 10.4742 21.8793 10.4742L20.7142 11.179L19.6571 13.9141L19.6367 14.4901L20.321 14.8134C20.4928 14.5254 20.6823 14.295 20.8599 14.2658C20.6996 14.2833 20.5773 14.2833 20.5773 14.2833L20.5775 14.2835Z" fill="#D5B457"/>
<path fill-rule="evenodd" clip-rule="evenodd" d="M20.5632 14.4787C20.4612 14.4845 20.377 14.4641 20.3535 14.3914C20.2662 14.1468 20.1963 14.1118 20.1231 14.1118C20.05 14.1118 19.9513 14.2691 19.8927 14.2835C19.8342 14.2979 19.7647 14.103 19.7647 14.103L19.7005 14.0738C19.7005 14.0738 19.3248 14.3184 19.0598 14.6068C18.7949 14.8952 18.3608 15.3846 18.1657 15.4717C17.9706 15.5589 17.3005 15.5883 17.0713 15.6378C16.842 15.6874 16.5878 15.8534 16.5529 15.8913C16.5179 15.9291 16.655 15.9698 16.6754 16.0076C16.6957 16.0426 16.4509 16.028 16.4306 16.0652C16.4162 16.0944 16.4882 16.2603 16.5239 16.3448C16.5864 16.3137 16.655 16.2968 16.7247 16.2952C16.949 16.2895 17.1122 16.4381 17.38 16.4381C18.0267 16.4381 18.6121 15.9633 19.0431 15.8175C19.3607 15.7098 19.6345 15.6311 19.8267 15.4564C19.9198 15.3779 20.0859 15.2029 20.2374 14.9437C20.348 14.7661 20.4559 14.6001 20.5638 14.4778L20.5632 14.4787Z" fill="#D2B257"/>
<path fill-rule="evenodd" clip-rule="evenodd" d="M11.2893 28.8933C11.2893 28.8933 11.2317 28.6777 10.6979 28.1215C10.5465 27.9642 10.4533 27.8335 10.3514 27.74C10.0979 27.5009 9.94933 27.437 9.76885 27.3001C9.37276 27.006 8.94172 27.0059 8.60975 26.6448C8.27778 26.2836 7.8909 25.5936 7.6221 24.8884C7.35714 24.1836 7.28418 23.9593 7.28418 23.9389C7.28418 23.9186 7.35714 23.7817 7.45026 23.802C7.54338 23.8224 7.54338 24.0029 7.5668 24.0467C7.6132 24.1181 7.66582 24.1853 7.72405 24.2475C7.86095 24.4049 8.05602 24.5931 8.15509 24.8738C8.13474 24.6349 8.05314 24.37 8.05314 24.37C8.05314 24.37 8.56578 24.6933 9.00258 25.031C9.44245 25.369 9.62293 25.4855 9.75138 25.7009C9.87983 25.9163 10.1824 26.4845 10.3274 26.6506C10.4723 26.8166 12.4586 27.4428 12.4586 27.4428L13.4034 28.1472L13.8725 29.1754L13.5054 29.7514L12.8005 29.9028L11.6558 29.3902L11.2893 28.8931V28.8933Z" fill="#D2B159"/>
<path fill-rule="evenodd" clip-rule="evenodd" d="M8.74609 25.3515C8.74609 25.3515 8.98494 25.733 9.56747 26.0941C10.0918 26.4117 10.9218 26.7001 11.6618 26.8719C12.0869 26.9739 12.5122 27.0524 12.8937 27.0584C13.9218 27.0728 14.6296 26.7788 15.5064 26.6826C15.9812 26.6331 16.5638 26.5953 17.1695 26.4522C17.9471 26.2658 18.4073 26.0559 19.0336 25.761C19.4879 25.5513 19.9046 25.3941 20.2423 25.1931C20.7171 24.9135 21.0637 24.6019 21.4657 24.5088C21.4162 24.6457 21.3638 24.8903 20.9677 25.1437C21.1773 25.1378 21.4657 25.1234 21.4657 25.1234C21.4657 25.1234 21.1862 25.2893 20.6939 25.6621C20.3909 25.8925 19.989 26.2825 19.5784 26.5417C19.3132 26.7078 19.0248 26.8297 18.8355 26.9291C18.3747 27.1826 18.1888 27.3106 17.8861 27.6203C17.9938 27.6146 18.0026 27.6203 18.0026 27.6203C18.0026 27.6203 17.6209 27.6699 17.3473 27.8154C17.2897 27.8154 17.1899 27.7951 17.0152 27.8446C16.8783 27.8882 16.6976 27.9874 16.5113 28.0397C16.2462 28.1184 16.159 28.0834 16.159 28.0834L16.2026 28.1708C16.2026 28.1708 15.857 28.1649 15.7418 28.1766C15.7622 28.1823 15.7564 28.1912 15.7564 28.1912C15.7362 28.1945 15.7167 28.2014 15.6988 28.2115C15.6434 28.2474 15.5824 28.274 15.5183 28.29C15.4834 28.2958 15.4542 28.2958 15.4104 28.3046C15.425 28.3396 15.5387 28.535 15.5911 28.6502C15.5475 28.6794 14.892 29.1746 14.892 29.1746C14.9123 29.2066 14.929 29.2408 14.9415 29.2765C14.9619 29.3405 14.9707 29.4338 14.9911 29.4774C15.0404 29.5647 15.0696 29.5793 15.0696 29.5793C15.0696 29.5793 14.9911 29.5939 14.854 29.6289C14.7376 29.658 14.5948 29.7074 14.3932 29.7366C14.3313 29.7446 14.2691 29.7495 14.2068 29.7512C14.236 29.8153 14.364 30.0599 14.128 30.3423C13.8921 30.6248 13.8193 30.6658 13.7465 30.8463C13.7099 30.8186 13.6709 30.7942 13.63 30.7734C13.5515 30.7384 13.4436 30.6862 13.4057 30.6161C13.3837 30.7095 13.3545 30.801 13.3184 30.8899C13.2456 31.085 13.1379 31.2774 13.1175 31.4229C13.0388 31.3355 12.8933 31.1637 12.6923 31.1986C12.4912 31.2336 12.3311 31.5074 12.2962 31.5861C12.2962 31.5366 12.2612 31.4987 12.2526 31.5569C12.2466 31.621 12.136 32.2907 11.5186 32.8326C11.5128 32.6957 11.5128 32.3927 11.4982 32.2938C11.4406 32.3514 11.3702 32.4365 10.9506 32.6171C10.54 32.7976 10.605 32.9783 10.605 32.9783C10.605 32.9783 10.5701 32.6903 10.7915 32.3869C11.0157 32.0841 11.1526 31.9413 11.1526 31.9181C11.149 31.8944 11.1389 31.8722 11.1234 31.8539C11.0943 31.8248 11.0361 31.7898 11.0361 31.7666C11.071 31.7522 11.4176 31.5861 11.3972 31.2422C11.3769 30.9337 11.2459 30.7734 11.1526 30.6599C11.1382 30.6453 11.2897 30.5376 11.2692 30.5026C11.2546 30.4823 11.0683 30.3452 11.0449 30.2722C11.0504 30.2287 11.0602 30.1858 11.0741 30.1442C11.0944 30.0801 11.109 30.0363 11.1033 29.9927C11.0887 29.9199 11.01 29.7189 10.9867 29.6985C11.0071 29.7043 11.1526 29.6985 11.1526 29.6985C11.1526 29.6985 11.0363 29.5121 11.0157 29.4248C10.9952 29.3374 10.9516 29.1072 10.9284 29.0636C10.9779 29.0694 11.1002 29.078 11.1002 29.0636C11.1062 29.0198 10.9925 28.9471 11.0426 28.8908C11.0775 28.8966 11.1446 28.9257 11.2085 29.0073C11.1735 28.914 11.1154 28.7336 10.9929 28.6608C11.0505 28.6404 11.2463 28.5878 11.4182 28.6898C11.59 28.7917 11.6486 28.9344 11.6486 28.9344C11.6486 28.9344 11.7505 29.0131 11.9079 29.1297C12.0884 29.2723 12.3184 29.4753 12.6855 29.6189C12.7643 29.6626 12.9651 29.6626 13.1108 29.6335C13.1743 29.6183 13.2351 29.5938 13.2913 29.5607C13.3116 29.5487 13.3331 29.539 13.3554 29.5315C13.3241 29.4687 13.2881 29.4083 13.2477 29.3508C13.2973 29.3508 13.3554 29.3568 13.3554 29.3568C13.3554 29.3568 13.3904 29.2781 13.2331 29.1264C13.2681 29.0914 13.3119 29.0688 13.3119 29.0098C13.2623 29.0041 13.175 28.9313 13.1546 28.9021C13.1836 28.8818 13.2274 28.8148 13.2769 28.7944C13.2331 28.7595 13.1254 28.6137 13.0759 28.5993C13.1232 28.5818 13.169 28.5603 13.2128 28.5352C13.2128 28.5352 12.9682 28.4711 12.8895 28.4187C12.8107 28.3611 12.6944 28.2614 12.6245 28.2322C12.5515 28.2031 12.4235 28.1887 12.3711 28.1303C12.4204 28.1449 12.4991 28.1303 12.5575 28.1303C12.6011 28.1303 12.6216 28.1361 12.636 28.1361C12.6303 28.1157 12.6303 28.0719 12.7439 28.0575C12.7986 28.0493 12.8516 28.0326 12.9012 28.008C12.9012 28.008 12.7933 28.0022 12.6708 27.8857C12.5483 27.7691 12.4465 27.676 12.3766 27.6614C12.3039 27.6468 12.167 27.711 12.0825 27.705C11.9659 27.6906 11.9164 27.6322 11.9164 27.6322C11.9164 27.6322 11.5291 27.6672 10.6699 27.143C9.92709 26.6886 9.60376 26.2867 9.60376 26.2867C9.53424 26.2615 9.46704 26.2303 9.40293 26.1934C9.12337 26.0479 8.73592 25.7449 8.74763 25.3486L8.74609 25.3515Z" fill="#C2A44D"/>
<path fill-rule="evenodd" clip-rule="evenodd" d="M19.4624 7.86989C19.5297 7.89178 19.5896 7.93216 19.6352 7.98644C19.772 8.14369 19.8594 8.44071 19.5478 8.75828C19.6701 8.80186 19.7206 8.81588 19.8273 8.80186C19.7196 8.93012 19.475 9.20391 19.4604 9.44276C19.4458 9.63783 19.5681 9.6962 19.5681 9.6962C19.5681 9.6962 19.3817 9.91162 19.3731 10.2722C19.4611 10.1729 19.5575 10.0813 19.6611 9.99841C19.8767 9.82657 20.1737 9.63149 20.3747 9.50919C20.372 9.56045 20.3789 9.61177 20.3951 9.66049C20.3951 9.66049 20.7706 9.35175 21.0863 9.48884C21.2289 9.55297 21.1648 9.7538 21.1648 9.7538C21.1648 9.7538 21.3601 9.68103 21.497 9.81793C21.6339 9.95482 21.8274 10.3079 21.9267 10.4448C21.9703 10.5089 22.0839 10.6312 22.2003 10.8205C22.3592 11.0856 22.492 11.3655 22.5966 11.6563C22.6023 11.5048 22.6401 11.2691 23.0714 11.4175C23.5024 11.569 23.9916 11.8865 24.4023 12.5119C24.813 13.1372 24.9148 13.8432 25.1216 14.112C25.3312 14.3712 25.5468 14.8022 25.5614 14.9829C25.576 15.1636 25.4973 15.7459 25.9283 17.3217C26.0506 16.8325 26.2371 15.7459 26.2371 15.7459L26.339 14.7877L26.4556 11.8226L23.3594 9.25037L20.939 7.49396L19.3633 7.64545L19.4622 7.8697L19.4624 7.86989Z" fill="#CAA13E"/>
<path fill-rule="evenodd" clip-rule="evenodd" d="M25.2151 12.2824C25.2151 12.2824 25.1713 11.9944 24.4432 11.5048C23.715 11.0213 23.147 11.0213 22.6229 10.6106C22.2208 10.2873 21.8015 9.54446 21.5285 9.29985C21.2633 9.05813 21.2197 8.35905 21.2197 8.35905L22.1139 7.61025L23.4437 5.68814L24.5678 4.45032L25.1066 5.19912L25.8554 6.07867L26.2718 7.84373L26.4233 10.4273L25.2137 12.2826L25.2151 12.2824Z" fill="#B59544"/>
<path fill-rule="evenodd" clip-rule="evenodd" d="M26.1143 15.3792C26.1364 14.9874 26.088 14.5948 25.9715 14.2201C25.7795 13.623 25.3599 12.5627 25.1651 12.1657C25.0863 11.7258 25.1447 11.6909 25.2292 11.6413C25.3137 11.5918 25.6312 11.4109 25.8052 10.7764C25.9791 10.1418 26.5189 10.1211 26.5189 10.1211L26.8508 9.87646L27.3548 11.1375L27.7945 12.2765L27.9314 13.1474L28.0334 13.89L27.7945 15.46L26.615 16.526L26.1141 15.3792H26.1143Z" fill="#C89D3A"/>
<path fill-rule="evenodd" clip-rule="evenodd" d="M9.65527 32.8779V32.8456C9.67978 32.8303 9.70142 32.8108 9.71921 32.788C9.73956 32.7588 9.75434 32.7239 9.76874 32.7153C9.79793 32.7007 9.93482 32.6577 10.0076 32.6715C10.0804 32.6853 10.2727 32.7646 10.3747 32.7588C10.5844 32.7531 10.829 32.5928 11.2164 32.6657C11.799 32.7734 11.9358 33.1695 12.2738 33.3938C12.5042 33.5512 12.7426 33.4812 12.7776 33.4812H12.8561C12.8707 33.4812 12.9784 33.3588 13.0368 33.3648C13.1533 33.3706 13.1648 33.4667 13.2376 33.4725C13.4094 33.4929 13.7416 33.3851 13.9077 33.4289C13.9569 33.4444 14.0017 33.4715 14.0382 33.5079C14.0747 33.5444 14.1019 33.5892 14.1174 33.6384C14.1523 33.7461 14.1231 33.883 14.0386 33.9617C13.8582 34.1276 13.6863 34.2851 13.6514 34.4225C13.6958 34.4564 13.7385 34.4926 13.7792 34.5308C12.3381 34.1636 10.9516 33.6085 9.65527 32.8796V32.8779Z" fill="#CEB052"/>
<path fill-rule="evenodd" clip-rule="evenodd" d="M25.165 27.0584C25.165 27.0584 25.6193 26.4526 25.7768 26.1525C25.934 25.8432 25.2787 21.9264 25.2787 21.9264L26.5952 17.6129L26.5601 16.209C26.5601 16.209 26.6242 14.9128 26.7757 14.3506C26.9564 14.674 27.5186 15.0643 27.6409 15.2711C27.6985 14.8748 27.8941 14.039 27.8651 13.1478C27.9728 13.3137 28.232 14.9827 28.232 14.9827L28.4912 16.1069L28.8292 17.3011L29.2049 18.5624L29.4292 19.4333L29.5572 19.6429L29.6651 20.0098L29.7671 20.4061L30.0612 21.3352L30.234 22.0982L30.3709 23.4818C30.4007 23.5877 30.4221 23.6958 30.4351 23.8051C30.4408 23.9566 30.4147 24.044 30.4147 24.0703C30.4147 24.0966 30.4642 24.4022 30.4439 24.6324C30.4147 24.8628 30.4147 25.0431 30.234 25.2084C30.0534 25.3737 29.9399 26.3618 29.9399 26.3618L29.6166 26.1464C29.6166 26.1464 29.6807 25.852 29.5292 25.5842C29.3777 25.3163 29.0836 25.2609 28.9175 25.3046C28.7516 25.3396 28.4196 25.3918 28.3117 25.4851C28.2098 25.5782 27.9594 25.8666 27.7292 25.9978C27.4412 26.1706 26.9719 26.1842 26.7216 26.2424C26.4681 26.3 26.1886 26.4728 25.8943 26.6734C25.6635 26.8228 25.4198 26.9513 25.1662 27.0574L25.165 27.0584Z" fill="#CCA847"/>
<path fill-rule="evenodd" clip-rule="evenodd" d="M25.165 33.4224C25.165 33.4224 25.1842 33.4349 25.2213 33.4552C27.2906 32.4858 29.1447 31.1115 30.6741 29.4136C30.6574 28.8242 30.6357 28.22 30.6119 27.9961C30.5625 27.5213 30.5975 27.0378 30.5829 26.7583C30.5683 26.4787 30.4111 25.3398 30.3383 25.0456C30.2596 24.7515 30.1079 24.6058 30.0848 24.6058C30.0645 24.6117 29.942 25.1593 29.942 25.297C29.942 25.4346 29.9128 25.766 29.9128 25.8505C29.8925 25.8446 29.8838 25.7929 29.8838 25.7718C29.8546 25.8446 29.8197 25.9728 29.8051 25.9874C29.7905 26.002 29.8255 25.8651 29.8051 25.8359C29.7847 25.8067 29.7475 25.8213 29.7556 25.7486C29.759 25.7054 29.7658 25.6626 29.7759 25.6205C29.7759 25.6205 29.6886 25.7486 29.6246 26.0748C29.5605 26.3981 29.5605 26.4069 29.5373 26.4359C29.5169 26.4711 29.4004 26.5874 29.3944 26.6312C29.3887 26.7097 29.5023 26.7884 29.511 26.832C29.5167 26.905 29.409 27.2427 29.3741 27.408C29.3391 27.5733 29.3537 27.8972 29.3165 28.0633C29.2873 28.2148 29.2589 28.3022 29.1592 28.3661C29.232 28.3807 29.3019 28.401 29.3019 28.401C29.3019 28.401 29.4038 28.8321 29.1446 29.1992C29.0515 29.3272 29.0283 29.3856 28.9292 29.5022C28.7339 29.7176 28.5824 29.963 28.5679 30.1225C28.5578 30.0754 28.551 30.0277 28.5475 29.9797C28.5475 29.9797 28.2447 30.3322 28.1165 30.5332C27.9506 30.7924 27.7204 30.7778 27.6557 30.8419C27.591 30.9061 27.5769 31.0224 27.5981 31.1157C27.5405 31.1301 27.4322 31.1507 27.3592 31.3749C27.3243 31.4913 27.2369 31.6053 27.1 31.6837C26.9631 31.762 26.797 31.7856 26.7126 31.806C26.7853 31.8263 26.8145 31.8263 26.8495 31.8495C26.8059 31.9223 26.6048 32.036 26.3806 32.1817C26.1563 32.3186 26.0484 32.5194 25.9931 32.6506C25.9355 32.7729 25.8505 32.8516 25.7136 32.8662C25.7712 32.9011 25.8564 32.9825 25.9 33.0088C25.8359 33.0234 25.7272 33.0234 25.5331 33.1895C25.3292 33.3585 25.2593 33.408 25.166 33.4226L25.165 33.4224Z" fill="#C39D3C"/>
<path fill-rule="evenodd" clip-rule="evenodd" d="M21.1123 34.7721C21.2238 34.694 21.3446 34.6299 21.4719 34.5815C21.9262 34.401 22.4068 34.366 22.5961 34.3079C22.7767 34.2503 22.9194 34.1708 23.1436 34.1272C23.1377 34.1783 23.1327 34.2263 23.1273 34.2716C22.4662 34.4794 21.7929 34.6466 21.1113 34.7721H21.1123Z" fill="#D2BA6B"/>
<path fill-rule="evenodd" clip-rule="evenodd" d="M29.4915 22.8234C29.4915 22.8234 29.3984 23.3272 29.2323 23.6448C29.0662 23.9623 28.8867 24.402 28.8867 24.402C28.8878 24.3029 28.8995 24.2043 28.9216 24.1077C28.712 24.23 28.2022 24.5243 28.0576 24.6553C27.9207 24.7776 27.6905 24.9932 27.6323 25.0951C27.7692 24.6933 27.9119 24.3321 27.9353 24.1661C27.7257 24.3175 26.7468 25.1243 26.2373 25.6573L24.6498 26.9418C24.4666 27.0406 24.278 27.129 24.0848 27.2064C23.8112 27.3227 23.4878 27.4218 23.249 27.5151C23.3131 27.3433 23.4149 27.1916 23.5577 27.0461C23.7092 26.9034 24.1635 26.4111 24.2334 26.1821C24.2975 25.9432 24.3121 25.8006 24.2276 25.5995C24.1489 25.6199 23.9684 25.6287 23.8461 25.6637C23.7238 25.6986 23.5927 25.8295 23.5927 25.8295C23.5927 25.8295 23.6858 25.2966 23.8868 24.7927C23.7353 24.7985 23.4761 24.8421 23.4761 24.8421C23.4761 24.8421 23.8373 24.2363 24.4553 23.8141C24.266 23.8544 24.0808 23.9119 23.902 23.9858C23.5408 24.1373 23.1447 24.3615 22.8506 24.4838C23.0165 24.2534 24.1815 22.5907 24.8748 21.0411C25.566 19.4945 25.8243 19.0984 25.9758 18.2684C26.0543 17.8577 26.0334 17.2508 26.0543 16.7072C26.0746 16.1683 26.1417 15.6848 26.0981 15.3615C26.2786 15.5858 26.9544 16.2178 26.9776 17.6306C26.998 19.0431 26.3312 20.951 25.6233 21.979C25.7961 22.0285 26.2438 22.0869 26.7038 21.2878C27.1639 20.4887 27.1583 20.2656 27.3244 19.9334C27.3447 20.0995 27.3388 20.1577 27.3388 20.1577C27.3388 20.1577 28.0089 19.3451 28.3262 18.3227C28.3904 18.7626 28.5797 19.1501 28.2825 19.9568C28.0175 20.6849 27.6709 20.8627 27.6709 20.8627C27.6709 20.8627 27.8428 20.8335 28.096 20.682C28.1398 20.7897 28.1312 20.9124 28.2039 20.9558C28.2767 20.9992 28.3758 21.0724 28.3904 21.1422C28.4689 21.0257 28.5912 20.8771 28.6292 20.7665C28.6 20.9969 28.5797 22.0043 28.6868 22.517C28.9113 22.4966 29.1413 22.482 29.2985 22.0771C29.1908 22.4734 29.1908 22.712 29.2636 23.05C29.383 22.9686 29.4907 22.8228 29.4907 22.8228L29.4915 22.8234Z" fill="#C0993A"/>
<path fill-rule="evenodd" clip-rule="evenodd" d="M21.9235 6.76895C21.9235 6.76895 21.6992 6.86207 21.3177 6.86207C20.9858 6.86207 21.0789 6.73401 20.5605 6.73401C19.7625 6.73401 16.9751 7.19481 16.4857 7.18828C16.1681 7.18252 17.5574 7.32518 17.5574 7.32518L21.1081 7.37471L21.8215 7.31711L22.0867 6.77759L21.9235 6.76895Z" fill="#A88F33"/>
<path fill-rule="evenodd" clip-rule="evenodd" d="M12.7169 13.7098C12.7169 13.7098 12.2624 14.0563 12.0703 14.3215C11.8781 14.5866 11.7761 14.7612 11.5576 14.9768C11.6089 14.9787 11.6602 14.9718 11.7091 14.9564C11.7091 14.9564 11.7091 15.014 11.6742 15.0292C11.7044 15.0258 11.7349 15.0292 11.7636 15.0392C11.7923 15.0492 11.8184 15.0654 11.84 15.0868C11.7759 15.1217 11.6012 15.2966 11.7381 15.5034C11.84 15.6607 12.0557 15.6751 12.0557 15.6751C12.0557 15.6751 12.0061 15.8179 12.2129 15.8033C12.6585 15.783 13.1566 15.5877 13.3866 15.6372C13.617 15.6948 13.748 15.716 13.911 15.9986C14.0838 16.2781 14.2343 16.3219 14.2343 16.3219C14.2343 16.3219 14.3362 16.0625 14.313 15.6753C14.3966 15.4665 14.4429 15.2447 14.4499 15.02L14.2984 13.9044L13.6374 13.0685L12.781 13.5433L12.7169 13.7092V13.7098Z" fill="#E3C571"/>
<path fill-rule="evenodd" clip-rule="evenodd" d="M13.5293 13.5437C13.5293 13.5437 13.5934 13.6952 13.8615 13.7096C13.8323 13.7737 13.8323 13.7825 13.8411 13.8319C13.8469 13.8814 13.8555 13.9542 13.8555 13.9542C13.885 13.9399 13.9117 13.9204 13.9342 13.8966C13.9488 13.9607 13.9196 14.0625 13.9342 14.1354C13.9432 14.1798 13.9579 14.2228 13.9778 14.2635C13.9821 14.2535 13.9869 14.2439 13.9924 14.2345C13.9982 14.2199 14.05 14.3918 14.1934 14.5225C14.1933 14.5024 14.1983 14.4826 14.2078 14.4649C14.21 14.5014 14.2221 14.5367 14.2428 14.5669C14.232 14.5617 14.2222 14.5549 14.2138 14.5465C14.2138 14.5465 14.2282 15.0073 14.3069 15.2456C14.3201 15.2302 14.3318 15.2136 14.3418 15.196C14.3418 15.1816 14.3361 15.3243 14.3215 15.4264C14.3011 15.5284 14.3157 15.671 14.3157 15.671C14.3682 15.6297 14.4259 15.5954 14.4874 15.5691C14.5747 15.534 14.7178 15.4262 14.8049 15.1874C14.8555 15.0521 14.8945 14.9128 14.9215 14.771C14.9496 14.8252 14.9691 14.8835 14.9791 14.9438C14.985 15.0165 15.1219 14.9787 15.1219 14.9787L15.1511 14.6611L15.3239 13.9417L15.4812 13.4961L16.2384 12.3166L17.6066 11.2629L18.8008 11.5367L19.8085 10.1678L18.0726 9.125L16.4298 9.29684L14.939 11.3618L13.7449 13.2348L13.5293 13.5435V13.5437Z" fill="#D8B65B"/>
<path fill-rule="evenodd" clip-rule="evenodd" d="M22.1325 10.5554C22.1325 10.5554 22.0305 10.5757 21.7364 10.7282C21.4422 10.8806 21.2383 10.929 21.1247 11.1533C21.011 11.3775 21.0024 11.5553 21.0024 11.5553C21.0024 11.5553 21.2034 11.468 21.3199 11.4388C21.4422 11.4098 21.5791 11.4184 21.5645 11.468C21.5505 11.5019 21.5311 11.5334 21.5069 11.5611C21.5069 11.5611 21.7373 11.5553 21.7312 11.669C21.725 11.7827 21.6876 11.9078 21.644 11.9631C21.6002 12.0207 21.4198 12.106 21.3994 12.173C21.3499 12.3099 21.4198 12.3156 21.3935 12.4262C21.3731 12.5341 21.2771 12.7438 20.9624 13.1107C20.6391 13.4778 20.5016 13.737 20.5016 13.737C20.5016 13.737 20.3444 13.4429 20.2628 13.1894C20.2052 13.2184 19.8959 13.3903 19.8959 13.3903L19.1793 10.8943L19.1937 10.7282C19.1937 10.7282 19.2578 10.6497 19.2724 10.5039C19.1647 10.469 19.1501 10.4398 19.0073 10.3031C18.8644 10.1664 18.7481 10.0001 18.5094 9.88646C18.4745 9.82234 18.4307 9.73517 18.256 9.70003C18.0813 9.6649 17.9764 9.6361 17.9764 9.6361C17.9764 9.6361 18.0696 9.60096 18.1133 9.52819C18.0054 9.54278 17.9183 9.57773 17.6823 9.57197C17.4434 9.56602 17.4171 9.55738 17.2862 9.57773C17.1553 9.59808 16.9982 9.65645 16.9396 9.45542C16.8755 9.40589 16.7386 9.44966 16.6221 9.62131C16.5055 9.79296 16.4648 9.93005 16.2406 9.99706C16.2248 10.0959 16.1902 10.1908 16.1386 10.2766C16.0745 10.3845 15.9725 10.4922 15.8356 10.6524C15.62 10.9058 15.655 11.3222 15.3113 11.6398C14.9647 11.9572 15.3689 10.7601 15.3689 10.7601L15.9222 9.43526L17.498 7.89446L19.9446 7.72858L20.1835 8.99578L21.3777 9.40646L22.1321 10.5569L22.1325 10.5554Z" fill="#D3AE4D"/>
<path fill-rule="evenodd" clip-rule="evenodd" d="M22.5203 10.8349L21.4921 9.35248L20.7727 8.79895C20.7727 8.79895 20.2601 7.85546 20.2251 7.82627C20.1959 7.80592 19.7125 7.75351 19.4038 7.73315L19.4614 7.87581C19.5287 7.8977 19.5886 7.93808 19.6342 7.99235C19.771 8.1496 19.8584 8.44663 19.5468 8.76419C19.6691 8.80778 19.7196 8.82179 19.8263 8.80778C19.7186 8.93603 19.474 9.20983 19.4594 9.44867C19.4448 9.64375 19.5671 9.70192 19.5671 9.70192C19.5671 9.70192 19.3807 9.91754 19.3721 10.2779C19.4601 10.1786 19.5565 10.087 19.6601 10.0041C19.8757 9.83133 20.1727 9.63703 20.3737 9.51472C20.371 9.56605 20.3779 9.61743 20.3941 9.66621C20.3941 9.66621 20.7696 9.35747 21.0853 9.49437C21.2279 9.5585 21.1638 9.75952 21.1638 9.75952C21.1638 9.75952 21.3591 9.68675 21.496 9.82365C21.6329 9.96055 21.8279 10.3129 21.927 10.45C21.9706 10.5141 22.0843 10.6364 22.2006 10.8255C22.3596 11.0906 22.4923 11.3706 22.5969 11.6615C22.6027 11.5449 22.6261 11.3819 22.8273 11.3819L22.5214 10.8343L22.5203 10.8349Z" fill="#CAA13E"/>
<path fill-rule="evenodd" clip-rule="evenodd" d="M7.10656 15.0467C7.10656 15.0467 7.03379 14.866 7.10656 14.5137C7.17933 14.1613 7.29299 13.9953 7.33082 13.4769C7.36864 12.9585 7.70656 12.3118 7.70656 12.3118L8.64141 11.8867L9.30266 12.0672L9.49773 12.9527L8.66176 13.4135C8.66176 13.4135 8.61818 13.6086 8.38221 13.7658C8.14624 13.9231 7.82003 14.0454 7.7415 14.2057C7.69456 14.3039 7.6603 14.4076 7.63955 14.5144C7.63955 14.5144 7.4007 14.4649 7.25805 14.6221C7.10656 14.7825 7.11232 14.9251 7.10656 15.0474V15.0467Z" fill="#F4EFC8"/>
<path fill-rule="evenodd" clip-rule="evenodd" d="M8.99418 14.8107C8.99418 14.8107 8.91546 14.8602 8.85728 14.9835C8.79968 14.8904 8.66202 14.3368 8.65626 13.8388C8.6505 13.3407 8.62074 13.2173 8.73594 13.0456C8.85114 12.874 9.30291 12.6931 9.23878 12.384C9.17466 12.0898 8.90662 11.9675 8.57754 12.052C8.34714 12.1096 8.17568 12.5996 7.93683 12.8442C7.75616 13.0306 7.54074 13.0015 7.48256 13.1034C7.40384 13.2403 7.47661 13.3772 7.45338 13.4646C7.44742 13.4937 7.37466 13.651 7.24352 13.8403C6.97856 14.2218 6.53005 14.7608 6.47168 15.2442C6.49203 14.9704 6.47763 14.9647 6.5504 14.6617L6.50662 14.5889L6.79462 13.6452L6.98106 12.8676L7.3977 11.5655L8.13152 10.2345L8.84518 9.4364L9.58784 9.48594L9.6752 10.6015L10.1005 12.6958L10.9946 13.7967L9.56154 14.7611L8.9936 14.8107H8.99418Z" fill="#EBCC73"/>
<path fill-rule="evenodd" clip-rule="evenodd" d="M9.43995 15.2064C9.43995 15.2064 9.31765 15.2356 9.27387 15.2124C9.23009 15.1891 9.1867 15.1628 9.2011 15.1336C9.2155 15.1045 9.29422 15.0551 9.29422 15.0317C9.29584 15.0105 9.28914 14.9896 9.27556 14.9732C9.26197 14.9569 9.24256 14.9466 9.22145 14.9443C9.15445 14.9357 9.13409 14.9793 9.13409 14.9793C9.13409 14.9793 9.06997 14.9299 9.01774 14.9217C9.04864 14.9179 9.07973 14.9159 9.11086 14.9157C9.03037 14.8793 8.94499 14.8547 8.85742 14.843C8.93019 14.7994 9.07304 14.6711 9.16616 14.6711C9.25928 14.6711 9.31765 14.6567 9.30305 14.6072C9.28846 14.5576 9.21569 14.4849 9.13717 14.4557C9.16616 14.4207 9.1867 14.3683 9.11681 14.2253C9.04385 14.0826 9.07304 13.9864 9.09646 13.9517C9.11681 13.9079 9.18958 13.8294 9.22453 13.7798C9.25947 13.7303 9.28865 13.6633 9.34683 13.6284C9.37601 13.608 9.46913 13.5708 9.56245 13.5352C9.6644 13.5003 9.74888 13.4565 9.80705 13.5003C9.87118 13.5439 9.842 13.6022 9.842 13.6022C9.842 13.6022 10.043 13.5293 10.2235 13.6226C10.4042 13.7098 10.844 13.7653 10.844 13.7653L11.0017 14.0828L9.95893 14.977L9.52789 15.1926L9.44053 15.207L9.43995 15.2064Z" fill="#E5C66B"/>
<path fill-rule="evenodd" clip-rule="evenodd" d="M10.8871 13.7447C10.8871 13.7447 10.5638 13.9603 10.491 14.0389C10.5346 14.0448 10.6073 14.074 10.5782 14.1176C10.5432 14.1612 10.3336 14.3127 10.217 14.4555C10.0947 14.5982 9.97816 14.7788 9.93746 14.8662C9.89387 14.9447 9.56171 15.1749 9.44824 15.2039C9.68709 15.2039 10.1677 14.9098 10.3481 14.9098C10.3424 14.9971 10.3977 15.0962 10.4996 15.1049C10.6016 15.1135 10.8957 15.169 11.2918 14.9244C11.6879 14.6855 11.557 14.5077 11.7229 14.3914C12.0404 14.1815 12.1685 13.9951 12.3432 13.8787C12.5179 13.7624 12.6084 13.7359 12.6084 13.7359C12.6084 13.7359 12.6141 13.6485 12.666 13.6574C12.6802 13.659 12.6936 13.6645 12.7049 13.6732C12.7162 13.6819 12.7249 13.6936 12.7301 13.7069C12.7301 13.7069 13.0331 13.4913 13.4213 13.4331C13.4122 13.4291 13.405 13.4218 13.4009 13.4128C13.4009 13.4128 13.4299 13.3982 13.4359 13.3836C13.4359 13.3836 13.4562 13.3544 13.4708 13.369C13.4854 13.3836 13.5058 13.4913 13.535 13.5351C13.5991 13.5059 13.7214 13.2321 13.7214 13.2321L14.0157 12.3904V11.6214L13.7853 11.6652L12.0573 12.399L11.0086 13.4855L10.8863 13.7447H10.8871Z" fill="#E6BD62"/>
<path fill-rule="evenodd" clip-rule="evenodd" d="M15.8616 9.97286C15.9551 9.95018 16.0447 9.91382 16.1275 9.86495C16.0926 9.95826 16.0926 10.0602 15.9411 10.2816C15.7896 10.503 15.7839 10.535 15.6615 10.765C15.5392 11.0039 15.5247 11.3476 15.4081 11.4989C15.4603 11.4735 15.5164 11.4568 15.574 11.4495C15.574 11.4495 15.4576 11.5515 15.4081 11.6592C15.3586 11.7669 15.2712 11.9912 15.0558 12.1282C14.8404 12.2653 14.5664 12.3525 14.2722 12.6758C13.9779 12.9932 13.6751 13.3953 13.5234 13.5398C13.6022 13.4029 13.7099 13.1291 13.7391 12.9487C13.7682 12.7682 13.7331 12.5524 13.7826 12.3137C13.8322 12.0751 13.8322 11.903 14.0706 11.4864C14.3091 11.0698 14.7173 9.62226 14.7173 9.62226L15.5968 9.34271L15.862 9.9719L15.8616 9.97286Z" fill="#B6933F"/>
<path fill-rule="evenodd" clip-rule="evenodd" d="M15.2271 9.43987C15.2271 9.43987 14.9622 9.82137 14.8894 10.1593C14.8166 10.4972 14.8834 10.468 14.8399 10.6341C14.8138 10.7354 14.8138 10.8416 14.8399 10.9428C14.9316 10.795 15.0573 10.6712 15.2064 10.5815C15.457 10.4302 15.6609 10.3223 15.7824 10.1942C15.9047 10.0573 16.0066 9.83308 16.2716 9.66124C16.1639 9.64665 16.0124 9.59712 15.9836 9.60364C16.0915 9.48134 16.4146 9.29491 16.7409 9.07065C17.0642 8.84025 17.0438 8.74732 17.5682 8.51731C17.3963 8.54649 17.3147 8.50272 17.1719 8.51731C17.2295 8.395 17.4311 8.33664 17.6327 8.1358C17.8343 7.93497 17.5046 7.63776 17.5046 7.63776L15.9686 8.56684L15.226 9.44064L15.2271 9.43987Z" fill="#C49937"/>
<path fill-rule="evenodd" clip-rule="evenodd" d="M11.0596 8.74656L11.0945 8.46701L11.5344 7.76218L11.9946 6.52435V4.83207L11.9597 3.85344L12.0324 3.21255L12.0877 3.00883L12.1461 2.93011L12.5217 3.12519L13.0402 3.83002L13.0898 5.19034L12.5858 7.3369L11.1469 8.90688L11.0596 8.74656Z" fill="#DFC068"/>
<path fill-rule="evenodd" clip-rule="evenodd" d="M12.2036 2.8514C12.2036 2.8514 11.9732 2.85735 11.924 3.81562C11.8749 4.77389 11.8511 5.2777 11.8161 5.75252C11.7812 6.22733 11.6998 6.51552 11.6589 6.79527C11.618 7.07501 11.5948 7.45632 11.4638 7.68941C11.4062 7.79712 11.2831 8.13504 10.9948 8.38848C10.6714 8.66804 10.1884 8.8633 10.1152 8.87789C9.98694 8.90688 9.33741 8.97101 9.07245 9.11674C8.97933 9.16628 8.81901 9.22445 8.64141 9.39053C8.2889 9.70791 7.82003 10.2758 7.48211 10.9603C6.96371 11.9827 6.44531 14.8691 6.44531 14.8691L6.56186 14.674C6.56186 14.674 6.57645 14.4148 6.83565 13.9603C7.08909 13.5061 7.01632 12.9963 7.36864 12.1254C7.50554 11.7934 7.67738 11.3624 7.88704 10.9953C8.2192 10.3981 8.62106 9.88551 9.02598 9.60596C9.68704 9.15168 10.4153 9.05261 10.4153 9.05261L11.1988 8.53421C11.1988 8.53421 11.3357 8.26925 11.5164 7.96628C11.7697 7.54119 12.0924 7.06637 12.1629 6.37613C12.2708 5.35373 12.0114 4.68384 12.026 4.07808C12.0406 3.47232 12.0463 3.02669 12.1688 2.91879C12.2913 2.81088 12.2038 2.85178 12.2038 2.85178L12.2036 2.8514Z" fill="#A88F33"/>
<path fill-rule="evenodd" clip-rule="evenodd" d="M12.2045 7.4243C12.2045 7.4243 12.5501 6.57374 12.7083 5.81938C12.7375 5.66789 12.7956 5.51659 12.8102 5.39429C12.883 4.68062 12.9034 4.38648 12.8102 3.99614C12.7375 3.70814 12.4579 3.44856 12.3122 3.24734C12.1695 3.03749 12.1025 2.95934 12.1317 2.91518C12.1609 2.87102 12.2744 2.79883 12.385 2.80747C12.5025 2.81089 12.6182 2.83819 12.7248 2.8877C12.8315 2.93721 12.927 3.0079 13.0055 3.09547C13.2298 3.35467 13.4074 4.23442 13.4074 4.23442L13.5942 5.39525L14.069 6.85733L12.2049 7.42546L12.2045 7.4243Z" fill="#C99E3D"/>
<path fill-rule="evenodd" clip-rule="evenodd" d="M15.4518 6.53891C15.4518 6.53891 15.3877 6.5679 15.2713 6.53891C15.2763 6.58646 15.2681 6.63446 15.2475 6.67761C15.2269 6.72077 15.1949 6.75742 15.1548 6.78352C15.0325 6.73398 13.8876 6.83306 13.8876 6.83306C13.8876 6.83306 13.3546 6.73974 13.1885 6.03491C13.0722 5.56586 13.2759 4.91939 13.2089 4.49411C13.1069 3.86781 12.9643 3.74531 12.9497 3.55043C12.9351 3.35555 12.9205 3.30582 12.9205 3.18352C12.8564 3.16893 12.8186 3.14858 12.7546 3.14858C12.74 3.09098 12.769 3.04067 12.7051 2.93872C12.74 2.95331 12.9789 2.9825 13.2584 3.24746C13.4888 3.46307 13.4888 3.5416 13.5236 3.58538C13.5672 3.62896 13.9197 3.93098 14.0712 4.23203C14.2226 4.53309 14.5168 5.49309 14.5838 5.65034C14.6041 5.71446 14.6479 5.77859 14.7566 5.92413C14.9256 6.13398 15.173 6.48093 15.4526 6.53853L15.4518 6.53891Z" fill="#B58634"/>
<path fill-rule="evenodd" clip-rule="evenodd" d="M13.5645 3.59998C13.7409 3.885 13.8994 4.18074 14.0391 4.48548C14.2109 4.87274 14.3129 5.19031 14.5285 5.44951C14.4119 5.11178 14.2052 4.44766 14.0829 4.21169C13.946 3.96209 13.6664 3.69329 13.5645 3.60017V3.59998Z" fill="#A88F33"/>
<path fill-rule="evenodd" clip-rule="evenodd" d="M11.5837 8.3885C11.5837 8.3885 11.2895 8.46127 10.7419 8.74965C10.5613 8.84277 10.3896 8.9213 10.2235 8.99426C9.7921 9.18933 9.32938 9.36962 8.96228 9.46907C8.99146 9.50402 9.00586 9.51842 9.00586 9.51842C9.00586 9.51842 9.00586 9.66127 9.08458 9.74267C9.041 9.78645 8.45828 10.1825 8.63031 11.5077C8.74666 11.4641 8.88356 11.4058 8.90391 11.4058C8.93905 11.4117 8.94769 11.5077 8.99127 11.5077C9.03485 11.5077 9.1777 11.4501 9.32919 11.2543C9.32343 11.333 9.23607 12.1252 9.70493 12.6582C9.79229 12.5562 10.0137 12.2183 10.0137 12.2183L10.0194 12.1106C10.0194 12.1106 10.0398 11.7349 10.1623 11.3912C10.2848 11.0475 10.5234 10.7941 10.5234 10.7941L11.7697 9.01442L11.5833 8.38831L11.5837 8.3885Z" fill="#E6C367"/>
<path fill-rule="evenodd" clip-rule="evenodd" d="M10.4189 11.0016C10.3618 11.0419 10.2989 11.0733 10.2324 11.0947C10.2121 11.022 10.1829 10.7714 10.3547 10.5268C10.5558 10.2325 10.9954 9.85096 11.1177 9.5476C11.1965 9.35233 11.1615 8.86312 11.8606 8.23681C12.5597 7.61051 12.8333 7.39508 12.8333 7.39508L13.9634 6.82715L15.3527 7.37473L14.6624 10.08L14.1266 11.3472L11.9954 10.9454L10.4187 11.0016H10.4189Z" fill="#DCBA5A"/>
<path fill-rule="evenodd" clip-rule="evenodd" d="M11.2324 10.267L11.4976 9.93499V9.69902C11.4976 9.69902 11.7917 9.6203 12.1091 9.29697C12.4265 8.97365 12.8663 8.35329 13.2538 8.39112C13.6413 8.43489 13.6791 9.23285 13.6937 9.45729C13.7083 9.68174 13.7578 10.1911 13.8363 10.4651C13.9237 10.7389 12.8926 11.7757 12.8926 11.7757L12.1924 12.3087L11.2324 10.267Z" fill="#E9CE77"/>
<path fill-rule="evenodd" clip-rule="evenodd" d="M12.0527 13.0311C12.0527 13.0311 12.2684 12.6931 12.1103 12.6204C12.2035 12.4107 12.3753 12.1893 12.3753 12.1893C12.3753 12.1893 12.4976 11.8865 12.8937 11.5137C13.2898 11.1408 13.5346 10.8931 13.5987 10.6428C13.6383 10.4796 13.6598 10.3126 13.6628 10.1447C13.7057 10.1797 13.7515 10.2109 13.7997 10.2378C13.8639 10.267 14.1667 10.5174 14.1231 11.0214C14.0795 11.5254 13.8927 11.7351 13.8927 11.7351C13.8927 11.7351 13.7122 11.9155 13.5841 12.0088C13.447 12.102 13.3977 12.2097 13.1675 12.2185C13.1911 12.1997 13.2177 12.1849 13.2462 12.1747C13.2462 12.1747 13.0074 12.1457 12.8791 12.2621C12.7508 12.3784 12.4782 12.7369 12.3413 12.8448C12.2044 12.9322 12.0533 13.0312 12.0533 13.0312L12.0527 13.0311Z" fill="#CDAE50"/>
<path fill-rule="evenodd" clip-rule="evenodd" d="M21.7371 7.3659C21.393 7.24048 21.0314 7.16974 20.6654 7.15623C20.0537 7.13588 19.1595 7.17083 18.2828 7.17659C17.3392 7.18235 16.4828 6.85326 15.2946 6.79508C15.0995 6.67854 14.6034 6.16878 13.0547 7.24935C13.1478 7.24359 14.179 7.01051 14.5371 7.45921C14.8983 7.90484 14.7963 8.66209 14.747 8.84257C14.6537 9.24462 14.3507 9.83002 14.2286 10.2407C14.1065 10.6514 14.1353 10.8672 14.0479 11.1552C13.9605 11.4432 13.7684 11.5862 13.8818 11.9182C14.0333 11.8251 14.1122 11.8251 14.3653 11.2572C14.6183 10.6892 14.5663 10.2843 14.9858 9.80372C15.3965 9.32026 16.0802 8.65902 16.3402 8.49294C16.6002 8.32686 18.6644 7.25511 20.8257 8.27751C21.347 8.22222 21.7373 7.36571 21.7373 7.36571L21.7371 7.3659Z" fill="#D2A83E"/>
<path fill-rule="evenodd" clip-rule="evenodd" d="M13.9254 6.96957C13.9233 6.94768 13.9184 6.92615 13.911 6.90544C13.8908 6.86285 13.8643 6.82356 13.8323 6.7889C13.8323 6.7889 13.3197 6.69578 13.0605 6.72477C12.606 6.77431 12.1953 7.33648 12.0031 7.62487C11.8109 7.91325 11.5721 8.35869 11.3129 8.5889C11.3157 8.56647 11.3105 8.54376 11.2983 8.52477C11.2983 8.52477 11.3129 8.54512 11.2839 8.57431C11.2549 8.60349 11.2547 8.61789 11.2693 8.63191L11.3131 8.67549C11.3275 8.67549 11.7295 8.49482 12.2771 7.98429C12.8596 7.4513 13.3053 7.17789 13.5383 7.0842C13.6627 7.03137 13.7926 6.99291 13.9256 6.96957H13.9254Z" fill="#C29637"/>
<path fill-rule="evenodd" clip-rule="evenodd" d="M23.8693 4.77966C23.8693 4.77966 23.776 4.89601 23.6595 5.02427C23.4003 5.29806 23.0623 5.60661 22.774 5.92417C22.5004 6.22715 22.1916 6.46312 21.8449 6.85922C21.4981 7.25531 21.0961 7.69499 20.9943 7.82325C20.9012 7.9515 20.8284 8.16117 20.8284 8.26888C20.7789 8.23394 20.7207 8.19611 20.7207 8.19611C20.7452 8.24184 20.7745 8.28483 20.8081 8.32437C20.8808 8.42632 20.9943 8.55477 21.0527 8.6331C21.1243 8.73283 21.1757 8.8456 21.204 8.96507C21.2389 8.97083 21.4632 9.01461 21.7429 8.55438C22.0227 8.09416 22.3894 7.59035 22.3894 7.59035L22.9719 6.7252L23.339 5.99137L23.7998 5.17L23.8699 4.77966H23.8693Z" fill="#AC8132"/>
<path fill-rule="evenodd" clip-rule="evenodd" d="M24.4658 4.19135C24.4658 4.19135 24.1133 4.47935 23.9764 4.65215C23.8395 4.82495 23.5156 5.27845 23.5156 5.27845L23.6322 5.26386L24.2235 4.7397L24.4539 4.32901L24.4656 4.19211L24.4658 4.19135Z" fill="#A88F33"/>
<path fill-rule="evenodd" clip-rule="evenodd" d="M24.359 27.338C24.359 27.338 24.3532 27.0991 24.4872 26.9565C24.6241 26.8136 24.9707 26.6039 25.3086 25.8175C25.6465 25.0311 25.6841 24.8535 25.6841 24.8535C25.6841 24.8535 25.0784 25.3719 24.7049 25.4942C24.7923 25.3135 24.8418 25.1854 24.8856 25.0921C24.8361 25.0485 24.6264 24.999 24.6061 24.9758C24.7224 24.8592 24.7865 24.5737 25.0225 24.3844C25.3255 24.154 25.8788 23.7581 26.3089 23.4052C26.739 23.0523 27.5846 22.2315 27.6925 21.9927C27.7566 22.0858 27.771 22.144 27.771 22.144C27.771 22.144 27.3459 22.6975 27.1245 23.0498C26.9293 23.3528 26.9439 23.5246 26.9439 23.5246L27.3459 23.3518C27.3459 23.3518 27.4623 23.7829 26.9352 24.4384C27.1656 24.351 27.2585 24.4034 27.3895 24.3305C27.1739 24.4676 26.8768 24.654 26.5973 25.1664C26.3235 25.6791 25.9506 26.2762 25.3216 26.6489C24.7099 27.0421 24.3574 27.3362 24.3574 27.3362L24.359 27.338Z" fill="#A67A2E"/>
<path fill-rule="evenodd" clip-rule="evenodd" d="M22.7798 7.66905C22.7798 7.66905 22.5409 8.16691 22.506 8.55436C22.5002 8.64767 22.4768 8.72044 22.4768 8.82815C22.471 9.17471 22.4971 9.56217 22.4192 9.74265C22.39 9.66988 22.3754 9.62035 22.3462 9.59135C22.3026 9.71366 22.2239 10.0952 22.1598 10.2378C22.1308 10.1447 22.0667 9.82137 22.0726 9.43987C22.0786 9.05836 22.087 8.9854 22.087 8.90687C22.0726 9.02323 21.9939 9.18067 21.9647 9.27379C21.9211 9.19526 21.8716 9.09331 21.8132 9.00883C21.7783 9.06643 21.7347 9.15148 21.6969 9.19526C21.6909 9.16031 21.6765 9.067 21.6677 8.93606C21.6619 8.78457 21.6531 8.5895 21.6619 8.5486C21.6763 8.47007 21.7988 8.16134 22.058 7.87871C22.3668 7.54079 22.6843 6.89145 22.7775 6.69043C22.8706 6.4894 23.2667 5.65363 23.2667 5.65363H23.5697L23.1298 6.65548C23.1298 6.65548 22.8648 7.20307 22.7279 7.40428C22.591 7.6055 22.3026 8.18207 22.1744 8.40633C22.2675 8.28403 22.3462 8.2199 22.4395 8.10335C22.5298 8.02175 22.7802 7.66943 22.7802 7.66943L22.7798 7.66905Z" fill="#8C6228"/>
<path fill-rule="evenodd" clip-rule="evenodd" d="M24.4719 4.15332C24.4224 4.30564 24.3442 4.44707 24.2415 4.56996C24.0608 4.78558 23.6734 5.07377 23.4843 5.30378C23.3115 5.52804 22.9659 6.13975 23.1229 6.86494C23.1805 6.70769 23.289 6.39607 23.5774 6.04356C23.8658 5.69105 24.1745 5.28631 24.3262 4.97182C24.4775 4.65425 24.4978 4.40388 24.4978 4.40388L24.5554 4.33111L24.5205 4.16503L24.4709 4.15332H24.4719Z" fill="#CBA94C"/>
<path fill-rule="evenodd" clip-rule="evenodd" d="M30.37 23.4728C30.37 23.4728 30.2535 23.1554 30.2185 22.867C30.1836 22.5786 30.2761 22.5214 30.169 22.1914C30.1048 21.9903 29.9885 22.0186 29.9593 21.9903C29.9301 21.9621 29.9098 21.6584 29.9155 21.4923C29.9213 21.3262 29.9098 21.1108 29.8806 21.0175C29.837 20.9825 29.8078 20.9534 29.7437 20.7379C29.6709 20.5223 29.636 20.4146 29.601 20.3507C29.5661 20.2867 29.4639 20.2284 29.4639 20.1642C29.4639 20.036 29.5805 19.9692 29.5805 19.9338C29.5747 19.8611 29.4874 19.9194 29.4639 19.8989C29.435 19.8639 29.5369 19.6543 29.4991 19.6251C29.4845 19.6107 29.3825 19.733 29.3562 19.6981C29.3271 19.6629 29.2921 19.3164 29.2397 19.0863C29.1903 18.8621 29.1377 18.6991 29.132 18.6321C29.1262 18.5679 28.7299 17.4378 28.6339 17.164C28.5566 16.9327 28.4914 16.6974 28.4389 16.4592C28.4097 16.3223 28.3893 16.0426 28.3747 16.0718C28.3601 16.1009 28.369 16.2436 28.3455 16.2378C28.3252 16.2319 28.2524 15.734 28.2292 15.6553C28.2088 15.5766 28.0863 15.3097 28.0564 15.1166C28.0272 14.9213 27.9633 14.4115 27.9195 14.065C27.8757 13.7184 27.8554 13.5758 27.8554 13.489C27.8625 13.2767 27.8508 13.0642 27.8204 12.854C27.7628 12.4869 27.6476 12.0413 27.5466 11.7823C27.3516 11.2929 26.833 10.0405 26.7402 9.72884C26.7402 9.65012 26.8422 9.6939 26.8422 9.6939C26.8422 9.6939 27.0954 10.3288 27.2819 10.8181C27.4625 11.3075 27.6344 11.7385 27.6782 11.7823C27.7131 11.8259 27.9869 12.3064 28.1092 13.0929C28.2315 13.8793 28.2751 14.6045 28.348 15.0879C28.383 15.3183 28.4122 15.5628 28.4849 15.8074C28.5635 16.0725 28.6858 16.3463 28.8461 16.7656C28.983 17.1182 29.0849 17.4123 29.1402 17.6657C29.2044 17.9891 29.2044 18.2337 29.2422 18.394C29.2773 18.5309 29.3295 18.8045 29.452 19.2004C29.5745 19.5963 29.7548 20.1063 29.8771 20.4236C30.1162 21.0586 30.2227 21.5887 30.2588 21.8713C30.2907 22.1626 30.3986 23.1704 30.3694 23.4732L30.37 23.4728Z" fill="#A88F33"/>
<path fill-rule="evenodd" clip-rule="evenodd" d="M24.4863 4.1184L24.4717 4.15334C24.4717 4.15334 24.5153 4.16794 24.5066 4.2263C24.5072 4.30616 24.5024 4.38596 24.492 4.46515C24.4776 4.5671 24.4484 4.64563 24.4427 4.70976C24.4427 4.84666 24.463 5.0039 24.2699 5.39424C24.2123 5.50195 24.1768 5.59507 24.1476 5.6592C24.0748 5.81645 24.0602 5.83987 23.9961 5.91264C24.098 5.85504 24.4651 5.62464 24.6514 5.6592C24.5233 5.73197 24.3281 5.87482 24.2058 6.06125C24.2349 6.06701 24.3572 6.09043 24.5514 6.06125C24.8747 6.01171 25.2358 5.89517 25.5532 5.9184C25.9 5.93875 25.7631 5.50195 25.7631 5.50195L25.3629 4.6224L24.6057 4.0896L24.4863 4.11859V4.1184Z" fill="#BE9C44"/>
<path fill-rule="evenodd" clip-rule="evenodd" d="M26.4611 10.7069C26.4611 10.7069 26.1232 10.3689 25.9863 9.20926C25.8494 8.0442 25.8786 6.32926 25.8786 6.32926L25.6048 5.65937C25.6048 5.65937 25.5472 5.21374 25.4038 5.04785C25.2603 4.88196 24.9787 4.60222 24.8504 4.46532C24.7222 4.32843 24.5766 4.14199 24.4893 4.11281C24.5328 4.04004 24.7281 3.62935 25.4765 3.62359C26.2249 3.61783 26.4557 4.03428 26.5339 4.18577C26.612 4.33726 26.9649 4.99217 27.0958 6.24017C27.2182 7.48663 27.2241 7.57995 27.2038 8.01099C27.1892 8.24983 27.1104 8.80318 26.9734 9.39435C26.8482 9.89547 26.7113 10.4548 26.4607 10.708L26.4611 10.7069Z" fill="#A17C34"/>
<path fill-rule="evenodd" clip-rule="evenodd" d="M25.4016 11.7001C25.5142 11.7082 25.6267 11.6828 25.725 11.6271C25.8327 11.6213 26.223 11.6709 26.5229 11.2894C26.5433 11.3765 26.5959 11.6127 26.4588 11.8224C26.5317 11.7494 26.6395 11.7204 26.654 11.7001C26.6598 11.8078 26.7618 12.1397 26.3307 12.9465C26.4471 12.8185 26.584 12.8242 26.7063 12.8096C26.7122 12.9611 26.7936 13.4707 26.5782 13.7447C26.4355 13.9311 26.2025 13.8727 26.2025 13.8727C26.2059 13.832 26.2059 13.7911 26.2025 13.7504C26.1967 13.6717 26.1675 13.5932 26.1881 13.5408C26.0754 13.4893 25.9728 13.4183 25.8851 13.3309C25.6316 13.0921 25.3026 12.6844 25.2793 12.3815C25.2501 12.0435 25.5531 11.9708 25.5531 11.9708C25.5277 11.9481 25.5061 11.9215 25.489 11.8921C25.4744 11.8427 25.4598 11.764 25.4016 11.7001Z" fill="#8C6228"/>
<path fill-rule="evenodd" clip-rule="evenodd" d="M23.1556 8.03599C23.1556 8.03599 23.141 8.01563 23.0625 8.10875C23.0771 8.01563 23.0917 7.92808 23.0974 7.8436C23.1346 7.76539 23.1827 7.69286 23.2403 7.62818C23.1965 7.71535 23.1673 7.79407 23.1673 7.79407C23.1673 7.79407 23.2752 7.59304 23.4325 7.47074C23.5402 7.38338 23.6771 7.34267 23.7353 7.26107C23.7994 7.17371 23.7848 7.15912 23.7994 7.14453C23.7994 7.14453 23.9422 7.05141 24.1607 6.77743C24.1897 6.74248 24.2335 6.70466 24.2627 6.66971C24.312 6.64936 24.4286 6.59695 24.5655 6.52687C24.7083 6.44834 24.8685 6.34063 24.9675 6.29647C25.1626 6.20911 25.3696 6.21794 25.4656 6.08085C25.5383 6.0605 25.6169 5.842 25.6025 5.65576C25.7102 5.69935 26.2635 6.04303 26.453 6.79451C26.5899 7.32751 26.3451 8.14888 26.2432 8.54517C26.1412 8.94146 26.1268 9.23541 25.984 9.41589C25.8033 9.65493 25.221 9.99189 25.0781 10.1587C24.9558 10.2956 24.5889 10.6422 24.6033 10.8926C24.6179 11.079 24.8479 11.1806 24.8976 11.2159C24.9474 11.2512 24.947 11.2946 25.0403 11.2735C25.1336 11.2524 25.1684 11.2094 25.2064 11.2094C25.25 11.2151 25.25 11.224 25.2703 11.224C25.2851 11.2235 25.2997 11.2215 25.3141 11.218C25.3141 11.218 25.2995 11.4832 24.6791 11.5636C24.6354 11.5696 24.5918 11.584 24.5363 11.5928C24.6093 11.5578 24.6528 11.5578 24.7316 11.4501C24.6442 11.4355 24.3936 11.4209 24.3295 11.4006C24.3499 11.3656 24.4169 11.2723 24.4722 11.2288C24.5217 11.1852 24.4664 11.1712 24.4228 11.1938C24.3478 11.2449 24.2758 11.3003 24.2072 11.3597C24.1344 11.4238 24.0703 11.5112 23.9538 11.5901C23.9188 11.4736 23.9246 11.2522 24.0617 11.092C24.0265 11.0978 23.9595 11.1998 23.8956 11.1794C23.884 11.0732 23.8909 10.9657 23.9159 10.8618C23.9509 10.7307 24.1402 10.5007 24.1402 10.5007L25.0547 8.86658L25.2498 7.62875L23.1556 8.0356V8.03599Z" fill="#92723A"/>
<path fill-rule="evenodd" clip-rule="evenodd" d="M23.106 8.10589C23.106 8.10589 23.0564 8.14083 23.1555 8.20784C23.1409 8.22819 23.106 8.30096 23.0622 8.3505C23.0129 8.4081 22.9603 8.44381 22.9399 8.49335C22.8963 8.5953 22.8614 8.66519 22.8614 8.70896C22.8614 8.75274 22.8468 9.03229 22.7245 9.21277C22.6807 9.2769 22.6312 9.38461 22.5962 9.45738C22.5235 9.58544 22.4593 9.68778 22.4447 9.74538C22.4157 9.84733 22.3954 10.1269 22.3954 10.1269C22.3954 10.1269 22.4595 10.0482 22.4827 10.0192C22.4476 10.0919 22.4098 10.1705 22.3545 10.2288C22.3894 10.1997 22.4914 10.1269 22.6632 9.97539C22.9021 9.77456 23.2749 9.43664 23.7294 9.16899C23.5923 9.21853 23.476 9.21853 23.3828 9.23312C23.4556 9.16035 24.1109 8.39139 24.4546 8.31863C24.4755 8.29217 24.4858 8.25895 24.4838 8.22531L24.1894 8.19632L23.5923 8.32439L23.5051 7.86359L23.106 8.10531V8.10589Z" fill="#B18E3E"/>
<path fill-rule="evenodd" clip-rule="evenodd" d="M24.055 10.7272C24.055 10.7272 23.9763 10.8057 23.9035 11.001C23.8475 10.9425 23.7994 10.8768 23.7607 10.8057C23.6529 10.6252 23.4871 10.395 23.0996 10.5262C23.0938 10.4039 23.085 10.3397 23.0996 10.2524C23.1637 10.238 23.3588 10.0807 23.5539 9.85052C23.691 9.69328 23.819 9.5126 23.9064 9.28259C23.964 9.23881 24.0636 9.16604 24.1944 9.08156C24.3808 8.9535 24.6051 8.77859 24.64 8.58352C24.5527 8.61846 24.3662 8.70582 24.0865 8.69142C24.1944 8.64188 24.3603 8.58947 24.3399 8.37385C24.3837 8.34467 24.4186 8.32432 24.4186 8.32432C24.3858 8.31337 24.3513 8.30842 24.3167 8.30972C24.3107 8.28937 24.3021 8.26038 24.2526 8.27478C24.203 8.28918 24.195 8.28937 24.1884 8.30972C24.1681 8.31568 24.1011 8.30972 24.0515 8.34486C24.002 8.38 23.8651 8.49616 23.8127 8.51651C23.833 8.48156 23.862 8.42934 23.862 8.42934C23.862 8.42934 23.7194 8.44374 23.6174 8.48694C23.431 8.55107 23.2156 8.66761 22.9971 8.78108C23.0174 8.74614 23.0263 8.72348 23.0407 8.71696C23.0551 8.71043 23.0902 8.70256 23.0902 8.6966C23.0902 8.69065 23.0758 8.639 23.0844 8.61808C23.1497 8.47969 23.2268 8.34717 23.3148 8.22198C23.4168 8.08489 23.4371 7.88982 23.4371 7.88982L23.8828 7.66556L25.1352 7.37756L25.9479 7.4271L25.846 7.98928L25.366 8.97078L24.9553 9.86492L24.4862 10.4127L24.0552 10.7272H24.055Z" fill="#543E26"/>
<path fill-rule="evenodd" clip-rule="evenodd" d="M26.0854 8.29442C26.0854 8.29442 25.596 8.90018 25.4591 8.99349C25.5464 8.80706 26.0854 7.6973 26.2804 7.38856C26.2368 7.35362 26.1785 7.35362 26.3154 6.81256C26.199 7.08616 26.1581 7.22901 26.0621 7.30178C25.9661 7.37454 25.9542 7.35131 25.8893 7.35131C25.9016 7.32915 25.9066 7.30371 25.9037 7.27854C25.9037 7.27854 25.493 7.22901 25.2125 7.22901C24.932 7.22901 24.3768 7.3805 24.0678 7.5028C23.8232 7.60475 23.6863 7.60475 23.599 7.66869C23.5116 7.74146 23.4621 7.82018 23.4183 7.84053C23.3833 7.86088 23.2175 7.9133 23.1794 7.96859C23.1445 8.02619 23.0863 8.0909 23.0863 8.10549C23.0863 8.12008 23.0717 8.14062 23.1155 8.12584C23.1299 8.12008 23.2378 8.06171 23.3601 7.98894C23.526 7.89582 23.727 7.78811 23.8728 7.72399C24.2892 7.55791 24.4203 7.58709 24.6066 7.55214C24.8016 7.5172 25.0814 7.4356 25.2676 7.4356C25.4541 7.42984 25.8066 7.4356 25.8882 7.45019C25.8532 7.47938 25.824 7.51432 25.8386 7.63662C25.8386 7.67157 25.8095 7.70939 25.781 7.79387C25.6939 8.03272 25.5278 8.42882 25.4354 8.62984C25.3074 8.90344 25.1618 9.13365 25.0898 9.2763C25.0178 9.41896 24.8594 9.7947 24.7026 9.99573C24.5457 10.1968 24.4637 10.3191 24.4146 10.3628C24.3654 10.4066 24.0125 10.6656 24.0388 10.7589C24.103 10.7386 24.5079 10.5861 24.8018 10.2551C25.0958 9.92411 25.1544 9.72213 25.3844 9.54146C25.6144 9.36079 25.7951 9.058 25.9028 8.80763C25.993 8.57455 25.9727 8.50178 26.0861 8.29499L26.0854 8.29442Z" fill="#806031"/>
<path fill-rule="evenodd" clip-rule="evenodd" d="M15.5392 12.8156C15.5392 12.8156 15.4751 13.0806 15.3294 13.2117C15.1867 13.34 14.9333 13.4506 14.9043 13.6662C14.8694 13.8816 15.1577 13.9895 15.1577 13.9895C15.1577 13.9895 15.0003 14.2487 15.0003 14.4438C15.0003 14.6448 14.9945 14.6826 15.0149 14.8748C14.9918 14.8897 14.9722 14.9093 14.9573 14.9324C14.9573 14.9324 14.9717 15.1188 15.1145 15.2352C15.2574 15.3515 15.3795 15.4216 15.4523 15.3924C15.4634 15.4162 15.4731 15.4405 15.4815 15.4654C15.4815 15.4654 15.5894 15.1916 15.6621 14.9528C15.7349 14.7082 15.799 14.7429 15.828 14.4138C15.857 14.0847 16.1736 13.5197 16.1736 13.5197L16.3896 13.0368L16.0373 12.763L15.5392 12.8154V12.8156Z" fill="#B6903C"/>
<path fill-rule="evenodd" clip-rule="evenodd" d="M16.1942 13.2902C16.1216 13.3648 16.0545 13.4446 15.9936 13.5291C15.9005 13.6573 15.8277 13.7737 15.6908 13.8234C15.5539 13.8731 15.4666 13.8727 15.4752 14.0098C15.4838 14.1469 15.6121 14.2049 15.6849 14.2748C15.7636 14.3476 15.8277 14.4699 15.7928 14.607C15.8363 14.5866 15.9151 14.5632 15.9878 14.4059C16.0606 14.2487 16.5696 13.2904 16.5696 13.2904H16.1942V13.2902Z" fill="#685026"/>
<path fill-rule="evenodd" clip-rule="evenodd" d="M18.2014 11.0795C18.2014 11.0795 18.245 10.9632 18.2014 10.8787C18.1576 10.7913 17.8926 10.7621 17.7615 10.6631C17.6246 10.5611 17.4585 10.4903 17.3216 10.535C17.342 10.4855 17.4236 10.3776 17.3566 10.3543C17.2925 10.334 17.0538 10.4417 16.9897 10.4912C16.9255 10.5408 16.7798 10.5989 16.7508 10.6341C16.7218 10.6692 16.6721 10.736 16.6429 10.7068C16.6137 10.6865 16.5993 10.6341 16.5498 10.6631C16.5003 10.6921 16.2618 10.8873 16.2178 11.001C16.1739 11.1147 16.075 11.3681 15.778 11.6563C15.4809 11.9445 15.3527 12.1311 15.44 12.2388C15.5274 12.3465 15.5683 12.268 15.5829 12.3611C15.5941 12.4525 15.5892 12.5452 15.5683 12.6349C15.5333 12.7864 15.4752 12.9291 15.5537 12.9582C15.7547 13.0224 15.95 12.9006 15.9936 12.9379C16.0809 13.0164 15.944 13.299 16.1508 13.3543C16.3607 13.4119 16.5675 13.3048 16.5675 13.3048L17.3305 12.8941L18.0645 12.5068L18.44 11.764L18.2386 11.1436L18.2002 11.0795H18.2014Z" fill="#D4B968"/>
<path fill-rule="evenodd" clip-rule="evenodd" d="M17.4819 12.8534C17.4819 12.8534 17.3536 12.6583 17.511 12.4863C17.6685 12.3143 17.8926 12.2417 17.9799 12.134C17.9633 12.1135 17.941 12.0983 17.9158 12.0904C17.9738 11.9866 18.0622 11.9032 18.1692 11.8514C18.1256 11.8078 18.0673 11.7728 18.0033 11.7728C17.8605 11.7728 17.7729 11.8602 17.642 11.8602C17.5139 11.8602 17.4993 11.7961 17.4993 11.7961C17.4993 11.7961 17.715 11.7757 17.6944 11.6795C17.6741 11.5776 17.6368 11.5776 17.6368 11.5776C17.6368 11.5776 18.0533 11.4048 18.126 11.3126C18.1988 11.2205 18.1902 11.1116 18.2047 11.068C18.2541 11.068 18.5425 10.9165 18.659 10.9807C18.7756 11.0448 18.694 11.2195 18.694 11.2195C18.694 11.2195 19.0467 10.9543 19.2264 10.6944C19.3836 10.709 19.4568 10.5867 19.572 10.5867C19.7148 10.5867 19.9391 10.7817 19.9827 11.1982C20.0118 11.437 20.0554 11.5739 20.0119 11.9963C19.9915 12.2352 19.9973 12.7451 20.0695 12.9982C20.1188 13.1992 20.2353 13.1789 20.2353 13.1789C20.2175 13.2401 20.182 13.2948 20.1334 13.3361C20.0547 13.4089 20.046 13.6013 20.0547 13.674C20.0663 13.7272 20.0809 13.7797 20.0984 13.8313C20.0984 13.8313 20.0053 13.939 19.9819 14.0119C19.9615 14.0847 19.8655 14.1343 19.7955 14.1343C19.7254 14.1343 19.7605 14.1283 19.6674 14.1343C19.5743 14.1402 19.5451 14.1546 19.4867 14.1343C19.4284 14.1139 19.3848 14.0905 19.4082 13.9039C19.4286 13.7174 18.6888 13.2835 18.6888 13.2835L17.4792 12.8525L17.4819 12.8534Z" fill="#CCA849"/>
<path fill-rule="evenodd" clip-rule="evenodd" d="M16.0928 14.6941C16.0928 14.6941 16.3577 15.0466 17.4471 15.0466C17.9655 15.0466 18.1462 14.9971 18.2535 14.9679C18.3701 14.9387 18.8069 14.7671 19.2467 14.2485C19.6428 13.7796 19.5555 13.5874 19.5555 13.5874L19.3251 13.5525L18.5763 13.6544L16.3606 14.5981L16.0918 14.6941H16.0928Z" fill="#585136"/>
<path fill-rule="evenodd" clip-rule="evenodd" d="M16.9046 14.7816C16.9046 14.7816 15.9609 14.9914 15.9609 14.3943C15.9609 13.8118 16.5435 13.2001 16.6892 13.0923C16.8407 12.9844 17.2018 12.8619 17.2018 12.8619H18.0727L18.2386 13.3018L18.1659 14.2513L16.9046 14.7814V14.7816Z" fill="#252211"/>
<path fill-rule="evenodd" clip-rule="evenodd" d="M17.7762 13.0399C17.7762 13.0399 17.5957 12.8738 17.185 13.0975C16.7743 13.3212 16.4421 13.7887 16.4218 14.2132C16.4014 14.5888 16.7305 14.8685 17.2432 14.8831C17.6247 14.8975 17.8549 14.8539 17.9714 14.8255C17.9422 14.7906 17.7908 14.6012 17.7908 14.6012L17.7764 13.0401L17.7762 13.0399Z" fill="#C3B378"/>
<path fill-rule="evenodd" clip-rule="evenodd" d="M17.5977 13.1328C17.5977 13.1328 17.5541 13.0978 17.4249 13.1677C17.3172 13.2253 17.16 13.3776 17.0377 13.4853C16.9589 13.5494 16.9094 13.5784 16.8649 13.6279C16.6842 13.8435 16.5327 14.1961 16.6203 14.3708C16.7078 14.5455 16.996 14.7465 17.73 14.6096L17.5956 13.133L17.5977 13.1328Z" fill="#E6D89C"/>
<path fill-rule="evenodd" clip-rule="evenodd" d="M17.3594 13.4942C17.3594 13.4942 17.2428 13.6748 17.2428 13.9632C17.2428 14.2574 17.4089 14.7262 18.0206 14.7612C18.4895 14.7904 18.804 14.0855 19.1448 13.8117C19.404 13.6021 19.5612 13.5961 19.5612 13.5961C19.5612 13.5961 19.2963 13.3081 18.5886 12.9351C17.8895 12.5593 17.1059 12.5098 16.6807 13.0866C16.8817 13.072 17.5312 12.9059 17.5312 12.9059L17.8488 13.0078L17.3594 13.4944V13.4942Z" fill="#252211"/>
<path fill-rule="evenodd" clip-rule="evenodd" d="M18.2737 13.8757C18.2534 13.8321 18.2388 13.7737 18.3233 13.7593C18.4078 13.7449 18.4456 13.7534 18.4748 13.8169C18.5039 13.8805 18.5324 13.9334 18.4892 13.9598C18.4456 13.983 18.3319 13.9598 18.2735 13.8753L18.2737 13.8757ZM18.1368 13.465C18.1368 13.465 18.1077 13.4853 18.1222 13.4446C18.128 13.3953 18.166 13.3077 18.2591 13.3283C18.3523 13.3488 18.3321 13.4506 18.3167 13.4798C18.3014 13.5089 18.2236 13.5583 18.1653 13.5374C18.1579 13.5355 18.151 13.5318 18.1453 13.5268C18.1395 13.5218 18.135 13.5155 18.1322 13.5084C18.1294 13.5013 18.1282 13.4936 18.1289 13.486C18.1296 13.4784 18.132 13.4711 18.1361 13.4646L18.1368 13.465Z" fill="#6F674D"/>
<path fill-rule="evenodd" clip-rule="evenodd" d="M10.2529 13.6512C10.2529 13.6512 10.4833 13.824 10.751 13.8173C11.0159 13.8113 11.3567 13.5377 11.514 13.3628C11.6071 13.2609 11.6868 13.1531 11.7732 13.0687C11.8461 12.9959 11.8955 12.9609 11.9304 12.9114C11.98 12.8538 12.0324 12.7455 12.0587 12.7104C11.9946 12.7599 11.9014 12.8475 11.8052 12.9057C11.7121 12.9633 11.5111 13.0715 11.4295 13.1007C11.351 13.1299 10.5354 13.5615 10.5354 13.5615L10.2529 13.6512Z" fill="#AC924C"/>
<path fill-rule="evenodd" clip-rule="evenodd" d="M10.6045 11.4991C10.6045 11.4991 10.7326 11.4117 10.9802 11.3562C11.2191 11.2986 11.6997 11.2543 11.6997 11.2543L12.0958 11.4271L12.253 12.0242L11.965 12.6447L11.5981 12.8751L11.1815 12.2052L10.6055 11.5002L10.6045 11.4991Z" fill="#9F8E57"/>
<path fill-rule="evenodd" clip-rule="evenodd" d="M10.0863 12.0321L9.94922 12.1344C9.94922 12.1344 9.98435 12.0703 10.0133 11.8752C10.0423 11.6801 10.194 11.2053 10.4154 10.9315C10.6368 10.6577 10.631 10.6723 10.631 10.6723C10.6106 10.6686 10.5897 10.6693 10.5696 10.6743C10.5495 10.6793 10.5307 10.6885 10.5145 10.7013C10.5437 10.6368 10.7301 10.4064 10.9165 10.2912C11.1029 10.176 11.1757 10.1397 11.3708 10.2336C11.5659 10.3275 11.6154 10.3763 11.7582 10.3705C11.9011 10.3647 12.0232 10.2133 12.0232 10.2133C12.0232 10.2133 12.0524 10.3064 11.9447 10.522C11.837 10.7376 11.4117 11.1773 11.4117 11.1773L10.5262 11.783L10.0863 12.0326V12.0321Z" fill="#EAC970"/>
<path fill-rule="evenodd" clip-rule="evenodd" d="M10.741 11.4264C10.741 11.4264 11.3819 11.5137 11.577 11.3332C11.5827 11.3536 11.6062 11.3536 11.6062 11.3682C11.6046 11.3792 11.5995 11.3894 11.5916 11.3972C11.6128 11.3938 11.6342 11.3919 11.6557 11.3914C11.6813 11.399 11.7077 11.4039 11.7344 11.406C11.7559 11.4055 11.7773 11.4035 11.7985 11.4C11.7965 11.4145 11.7916 11.4284 11.7841 11.441C11.7766 11.4535 11.7666 11.4644 11.7548 11.473C11.7839 11.473 11.8124 11.4788 11.8124 11.502C11.8124 11.5252 11.8181 11.5953 11.7832 11.6099C11.7542 11.6179 11.7234 11.6158 11.6958 11.604C11.6981 11.6591 11.7131 11.713 11.7396 11.7614C11.7972 11.8691 11.9201 11.9918 12.0852 11.9565C12.0852 11.9565 12.1724 12.1661 11.8055 12.6321C11.7561 12.6962 11.7035 12.7836 11.6396 12.8564C11.6143 12.9114 11.595 12.969 11.582 13.0282C11.582 13.0282 12.2025 12.7894 12.3801 12.2447C12.5608 11.6971 12.5957 11.1583 12.5608 10.6545C12.5548 10.5117 12.5316 10.4099 12.4967 10.3369C12.4093 10.1563 12.1645 10.1855 12.0656 10.2874C11.9228 10.4303 11.6839 10.7855 11.3519 11.0301C11.014 11.2747 10.9996 11.3181 10.7402 11.4264H10.741Z" fill="#D7BC6B"/>
<path fill-rule="evenodd" clip-rule="evenodd" d="M9.97306 12.2128C9.97306 12.2128 9.85076 12.2855 9.78663 12.5584C9.7225 12.8379 9.84423 13.1787 9.91469 13.2864C9.98516 13.3941 10.1451 13.6885 10.4769 13.7031C10.559 13.7026 10.6402 13.6858 10.7157 13.6535C10.8315 13.6004 10.9402 13.5329 11.039 13.4525C11.1819 13.3448 11.2982 13.2517 11.2837 13.2428C11.2487 13.2282 10.4041 12.5292 10.4041 12.5292L10.0865 12.1747L9.97287 12.2131L9.97306 12.2128Z" fill="#585136"/>
<path fill-rule="evenodd" clip-rule="evenodd" d="M10.7706 13.3718C10.7706 13.3718 10.9424 13.3574 11.0444 13.2933C11.1463 13.2292 10.4473 12.5361 10.4473 12.5361L10.4968 13.2849L10.7706 13.3718Z" fill="#453A25"/>
<path fill-rule="evenodd" clip-rule="evenodd" d="M10.0277 12.1601C10.0277 12.1601 9.94038 12.3262 9.94038 12.37C9.92579 12.5126 9.96957 12.9611 10.0045 13.1038C10.0395 13.2553 10.2288 13.4853 10.4736 13.4853C10.6249 13.4853 10.8347 13.3922 10.8347 13.369C10.8347 13.3398 10.6191 13.3114 10.5609 13.2029C10.526 13.1453 10.5114 13.002 10.5033 12.8573C10.4976 12.7642 10.4976 12.6622 10.5325 12.6269C10.6112 12.5395 10.6256 12.289 10.6256 12.289L10.9052 11.7696H10.5375L10.0976 12.0434L10.0277 12.1601Z" fill="#84754B"/>
<path fill-rule="evenodd" clip-rule="evenodd" d="M9.91992 12.3204C9.91992 12.3204 10.2079 11.9389 10.4675 11.8514C10.7271 11.7638 10.8433 11.8164 10.8433 11.8164L10.6918 12.2039L10.4761 12.4427L10.4907 12.565C10.4907 12.565 10.4556 12.8884 10.6712 13.1126C10.8868 13.3369 11.047 13.3282 11.1403 13.3282C11.2336 13.3282 11.5014 13.2495 11.6383 12.9262C11.7606 12.6234 11.8626 12.235 11.618 11.8456C11.3789 11.4582 10.9567 11.4432 10.8751 11.4432C10.7935 11.4432 10.1528 11.4752 9.91992 12.3198V12.3204Z" fill="#252211"/>
<path fill-rule="evenodd" clip-rule="evenodd" d="M17.3154 13.6165C17.2077 13.567 17.3096 13.2642 17.4173 13.1709C17.525 13.0776 17.6619 12.97 17.901 12.9552C17.9881 12.9495 18.0726 13.0048 18.0582 13.0632C18.0379 13.1709 17.8864 13.3224 17.7495 13.4301C17.5602 13.5787 17.4377 13.6718 17.3154 13.6165Z" fill="#F7F7E7"/>
<path fill-rule="evenodd" clip-rule="evenodd" d="M11.4901 11.9651C11.5689 11.9593 11.6708 12.0227 11.6912 12.1079C11.7115 12.2011 11.6416 12.3875 11.4901 12.3875C11.3678 12.3875 11.3037 12.236 11.3037 12.1924C11.3051 12.1566 11.3151 12.1216 11.3329 12.0905C11.3387 12.0816 11.3532 11.9797 11.4901 11.9651Z" fill="#F8F6DE"/>
<path fill-rule="evenodd" clip-rule="evenodd" d="M10.354 12.032C10.354 12.032 10.1529 12.1252 10.0598 12.32C9.99327 12.4639 9.97314 12.625 10.0022 12.7808C10.0168 12.8536 10.0896 13.0341 10.1391 13.0982C10.1886 13.1623 10.2557 13.2061 10.3052 13.2002C10.3547 13.1942 10.4565 13.0633 10.4565 12.9847C10.4565 12.9062 10.4624 12.5741 10.5584 12.3934C10.6429 12.2129 10.3545 12.0322 10.3545 12.0322L10.354 12.032Z" fill="#D4C38B"/>
<path fill-rule="evenodd" clip-rule="evenodd" d="M10.3837 12.0175C10.3488 12.0378 10.2906 12.067 10.305 12.1048C10.3196 12.1398 10.4419 12.1624 10.4857 12.2477C10.5352 12.335 10.5352 12.4282 10.5206 12.4719C10.5586 12.4539 10.5932 12.4292 10.6225 12.399C10.6867 12.3262 10.7652 12.2273 10.8322 12.2273C10.876 12.2273 10.9196 12.2477 10.9605 12.2477C11.0246 12.2477 11.0885 12.2273 11.0974 12.1603C11.1118 12.073 10.9751 11.9942 10.8963 12.0088C10.9109 11.9512 10.9313 11.8662 10.8672 11.8078C10.803 11.7494 10.6022 11.8516 10.5584 11.8808C10.5146 11.91 10.3837 12.0177 10.3837 12.0177V12.0175Z" fill="#E2D59D"/>
<path fill-rule="evenodd" clip-rule="evenodd" d="M15.0123 18.1369L15.4433 18.0096L15.5656 18.097C15.5656 18.097 15.6528 18.2834 15.7899 18.3067C15.7461 18.3998 15.6324 18.4795 15.6384 18.5455C15.6443 18.6116 15.7025 18.6621 15.7025 18.6621C15.7025 18.6621 15.315 19.3028 16.0782 19.9485C15.8976 20.0212 15.6675 20.1213 15.5452 20.1789C15.6324 20.1992 15.8188 20.2365 15.8976 20.3071C15.9763 20.3778 15.9763 20.4002 16.0491 20.444C16.1218 20.4878 16.1654 20.546 16.151 20.5721C16.1015 20.5429 15.9354 20.4557 15.9064 20.5371C15.8774 20.6185 15.187 20.5867 15.187 20.5867L14.0219 20.8109C14.0219 20.8109 14.0655 20.6944 13.9432 20.5867C13.8005 20.4586 13.6258 20.5924 13.4394 20.4498C13.1948 20.2633 13.1859 20.0477 13.1074 19.9663C13.1859 19.9168 13.3463 19.844 13.7278 19.7935C13.7132 19.7643 13.6636 19.677 13.6928 19.5984C13.7278 19.4965 13.8733 19.4324 13.8297 19.3104C13.8939 19.2959 13.9228 19.2959 14.0832 19.0948C14.2347 18.8938 14.3278 18.8502 14.4443 18.8356C14.5609 18.821 14.6307 18.8356 14.8464 18.6346C14.9977 18.4919 14.9483 18.3696 14.9483 18.3696C14.9483 18.3696 15.0472 18.3376 15.0124 18.1366L15.0123 18.1369Z" fill="#CBAC5A"/>
<path fill-rule="evenodd" clip-rule="evenodd" d="M13.739 18.2016C13.7447 18.1724 13.7681 18.1579 13.9254 18.1724C14.0826 18.187 15.0787 18.0793 15.3496 18.0647C15.6234 18.0444 16.5875 18.0588 17.0565 18.1579C17.5256 18.2569 18.0002 18.3735 18.2302 18.4316C18.4606 18.4958 18.5332 18.5188 18.5244 18.548C18.5186 18.5772 18.4668 18.6056 18.437 18.5975C18.408 18.5918 17.6448 18.3587 17.409 18.3095C17.1733 18.2604 16.3575 18.1289 15.9114 18.1367C15.495 18.1427 15.3289 18.131 14.9766 18.1717C14.6241 18.2155 14.0415 18.2736 13.8668 18.2504C13.694 18.23 13.7297 18.23 13.7386 18.2009L13.739 18.2016Z" fill="#D6BC6F"/>
<path fill-rule="evenodd" clip-rule="evenodd" d="M16.0839 20.4845C16.0839 20.4845 16.681 20.8078 16.8966 21.2039C17.0538 21.498 16.8035 21.6438 16.8035 21.6438C16.8035 21.6438 17.1414 21.6438 17.0976 21.8302C17.0773 21.9465 16.5151 22.261 16.1393 22.4271C15.7578 22.5932 15.7724 22.5846 15.586 22.6136C15.4053 22.6427 14.9102 22.556 14.8082 22.7009C14.7063 22.8459 14.7506 22.9952 14.779 23.0185C14.8082 23.0388 15.0442 23.068 15.0442 23.068C15.0442 23.068 14.9946 23.2049 14.5054 23.2195C14.0162 23.2341 13.8937 23.2688 13.8645 23.3215C13.8353 23.3708 13.9576 23.3418 14.1821 23.3791C14.4063 23.414 14.7208 23.4367 14.7208 23.4367C14.7208 23.4367 14.6189 23.524 14.3539 23.5939C14.051 23.6724 13.5761 23.7454 13.4335 23.8328C13.5063 23.8823 13.6142 23.9551 13.6639 23.9608C13.5416 23.99 13.3695 24.0541 13.3406 24.0774C13.3841 24.1065 13.4425 24.1415 13.4425 24.1415C13.4425 24.1415 13.1977 24.4356 13.0551 24.5086C12.9124 24.5816 12.091 24.9629 11.8084 24.8901C11.1036 24.7037 11.0162 23.9318 10.8444 23.8736C10.5852 23.7863 10.4629 23.9608 10.2327 23.8385C10.3346 23.7657 10.3901 23.7222 10.4978 23.6726C10.3813 23.615 9.77838 23.2328 9.77838 23.2328C9.71534 23.0953 9.64536 22.9612 9.56872 22.8309C9.45217 22.6299 9.28072 22.3618 9.15208 22.1259C8.87252 21.6075 8.85793 21.3686 8.60449 21.0745C8.64827 21.0169 8.79956 21.0249 8.79956 21.0249L10.9231 21.724L14.6884 21.8331L15.6676 20.4351L16.084 20.4847L16.0839 20.4845Z" fill="#DFC677"/>
<path fill-rule="evenodd" clip-rule="evenodd" d="M10.5059 22.6165C10.5286 22.6418 10.5551 22.6634 10.5844 22.6806C10.6573 22.7301 10.7651 22.7885 10.8378 22.8757C10.867 22.8321 10.9398 22.7534 11.0682 22.8757C11.1967 22.998 11.3562 22.9108 11.4555 22.9398C11.5574 22.9749 11.5632 22.9893 11.5632 22.9893C11.5632 22.9893 11.6208 22.9398 11.7496 22.8874C11.8284 22.8582 11.9215 22.8378 12.0234 22.8088C12.1165 22.7885 12.2185 22.7593 12.2886 22.7593C12.3527 22.8029 12.5827 23.0473 13.5061 22.6865C14.377 22.3486 14.5778 22.3108 14.7235 22.363C14.7381 22.3281 14.7527 22.2611 14.977 22.2699C14.977 22.1768 14.7905 21.8592 14.7905 21.8592L13.7624 21.5069H13.2L11.5137 21.8156L10.5792 22.3488L10.5064 22.6176L10.5059 22.6165Z" fill="#C4A859"/>
<path fill-rule="evenodd" clip-rule="evenodd" d="M9.94336 22.0253C9.94336 22.0253 9.96371 22.1825 10.1968 22.3486C10.4272 22.5145 10.4996 22.6136 10.4996 22.6136C10.4996 22.6136 10.5434 22.556 10.5783 22.4972C10.6132 22.4331 10.6424 22.3603 10.7006 22.34C10.8172 22.2904 11.0821 22.3836 11.1405 22.369C11.19 22.3546 11.1754 22.2526 11.2278 22.2526C11.3501 22.2467 11.4287 22.3311 11.4724 22.3311C11.5162 22.3311 11.6237 22.3254 11.6383 22.3022C11.6529 22.2789 11.6587 22.037 11.8248 21.9205C12.0054 21.7924 12.2268 21.8477 12.2856 21.8769C12.2856 21.9205 12.2913 22.0284 12.4079 22.0341C12.5244 22.0399 12.5359 22.0195 12.6383 22.0545C12.7406 22.0894 12.8625 22.0487 12.9178 22.2204C12.9674 22.206 13.0839 22.1914 13.0547 22.0253C13.1123 21.9817 13.1626 21.9525 13.2851 21.7807C13.3143 21.7371 13.3636 21.6876 13.4017 21.6234C13.5036 21.6234 13.6259 21.6031 13.7889 21.7457C13.7394 21.7807 13.7102 21.8033 13.6958 21.8389C13.7384 21.8811 13.7774 21.9269 13.8122 21.9758C13.8559 22.0334 13.8851 22.104 13.9404 22.1186C14.0627 22.1535 14.2637 22.104 14.488 22.1186C14.7036 22.1332 14.8841 22.2117 14.9628 22.2613C14.992 22.2469 14.992 22.2409 15.0648 22.2555C15.1375 22.2701 15.1928 22.2759 15.1143 22.1827C15.1579 22.2031 15.2074 22.2469 15.2512 22.2031C15.295 22.1593 15.3297 22.0954 15.452 22.0808C15.5743 22.0662 15.6181 22.0865 15.6676 21.9585C15.7318 21.8012 15.5104 21.8012 15.5104 21.8012C15.5104 21.8012 15.6124 21.7079 15.726 21.5856C15.8629 21.4575 16.0202 21.2915 16.058 21.0876C16.1221 20.7118 15.7552 20.6625 15.7552 20.6625L13.9756 21.2101L11.7998 21.1022L9.94451 22.0255L9.94336 22.0253Z" fill="#927D49"/>
<path fill-rule="evenodd" clip-rule="evenodd" d="M8.34489 16.8845C8.34489 16.8845 8.28729 16.9572 8.25177 17.1291C8.21625 17.3009 8.23142 17.2806 8.20223 17.4029C8.17305 17.5252 7.81458 18.7427 7.94898 19.1533C8.08338 19.564 8.31609 19.7155 8.46162 20.0475C8.49081 20.1203 8.51922 20.164 8.53439 20.2282C8.58393 20.4436 8.54034 20.6097 8.59852 20.8253C8.61887 20.898 8.67148 20.9825 8.75001 21.0699C8.92281 21.2504 9.20447 21.4222 9.32601 21.5445C9.49766 21.7252 9.74246 22.0923 10.0541 22.127C10.2202 22.1474 10.4561 22.0775 10.6512 21.9612C10.824 21.8533 10.9307 21.702 11.112 21.6156C11.2401 21.5514 11.377 21.5282 11.4993 21.499C11.7527 21.4495 11.9829 21.4414 12.1198 21.4698C12.3295 21.5136 12.8246 21.6651 13.099 21.6651C13.3134 21.6616 13.5266 21.6323 13.7339 21.5777C14.1504 21.4554 14.6542 21.2456 14.9864 21.1524C15.1814 21.0948 15.3387 21.0797 15.499 21.0447C15.7728 20.9806 16.0028 20.8933 16.1339 20.7272C16.0466 20.6252 15.9389 20.468 15.3562 20.4737C14.6951 20.4883 13.9319 20.8552 13.5562 20.9136C13.1804 20.972 13.0174 21.0213 12.5979 20.8698C12.1866 20.7168 12.173 20.6156 12.173 20.6156C12.173 20.6156 11.7412 20.3136 11.5605 19.5437C11.3798 18.7738 11.5605 18.2127 12.0296 17.6796C12.1519 17.5427 12.1227 17.4204 12.1227 17.4204C12.1227 17.4204 12.4314 17.0039 12.3469 16.614C12.2538 16.2265 11.6567 16.3052 11.6567 16.3052L8.34508 16.8845H8.34489Z" fill="#6E6342"/>
<path fill-rule="evenodd" clip-rule="evenodd" d="M8.84296 18.1807C8.81728 18.2289 8.8052 18.2833 8.80802 18.3379C8.81378 18.4164 8.8372 18.5184 9.07298 18.7486C9.274 18.9494 9.23023 19.1737 9.23023 19.1737C9.23023 19.1737 9.33141 19.194 9.60597 19.0656C9.82158 18.9636 9.89397 19.1443 9.89397 19.1443C9.95673 19.1114 10.0248 19.0897 10.095 19.0802C10.1586 19.0743 10.2202 19.0547 10.2755 19.0226C10.2755 19.0226 10.5289 19.2818 10.7503 19.4041C10.9513 19.512 11.0679 19.5848 11.1669 19.512C11.26 19.4479 11.26 19.3167 11.2541 19.2586C11.231 19.2049 11.2017 19.154 11.1669 19.1071C11.1028 19.0139 11.0008 18.906 10.9941 18.8191C10.9795 18.6182 11.1456 18.3792 11.1105 18.321C11.0753 18.2628 10.9446 18.2482 10.6213 18.3648C10.2864 18.4754 8.84162 18.1812 8.84162 18.1812L8.84296 18.1807Z" fill="#39331F"/>
<path fill-rule="evenodd" clip-rule="evenodd" d="M9.60641 19.4826C9.60641 19.4826 9.44052 19.3254 9.4987 18.5622C9.56913 18.5611 9.63945 18.568 9.70836 18.5825C9.70836 18.5825 9.7988 19.1739 9.60641 19.4826Z" fill="#292311"/>
<path fill-rule="evenodd" clip-rule="evenodd" d="M8.42365 16.3019C8.4468 16.2848 8.46827 16.2655 8.48778 16.2443C8.43018 16.352 8.16426 16.7831 8.37988 17.4618C8.59549 18.1374 9.13713 18.6412 9.80413 18.6647C10.4711 18.6881 10.8217 18.3617 11.2226 17.8725C11.3799 17.6774 11.5606 17.4326 11.7207 17.2667C11.9595 17.0073 12.146 16.9346 12.146 16.6842C12.146 16.1715 11.6216 15.9413 10.8498 15.7113C10.0779 15.4813 9.38173 15.5097 9.02058 15.6672C8.66826 15.8388 8.51677 16.0195 8.42346 16.3021L8.42365 16.3019Z" fill="#252211"/>
<path fill-rule="evenodd" clip-rule="evenodd" d="M10.9019 19.7127L10.9595 19.6835C10.9595 19.6835 10.9739 19.4531 11.0673 19.4592C11.1604 19.4738 11.2042 19.5963 11.1953 19.6399C11.1896 19.6835 11.1663 19.7564 11.073 19.7476C10.9507 19.7505 10.9014 19.7127 10.9014 19.7127H10.9019Z" fill="#3F3824"/>
<path fill-rule="evenodd" clip-rule="evenodd" d="M10.6426 18.734C10.6426 18.734 10.7002 18.7137 10.7706 18.7836C10.8282 18.7836 11.0794 18.7544 11.1581 18.8039C11.2368 18.8534 11.26 18.897 11.26 18.897C11.26 18.897 10.9659 18.9612 10.8056 18.897C10.6426 18.8417 10.6426 18.734 10.6426 18.734Z" fill="#2D2815"/>
<path fill-rule="evenodd" clip-rule="evenodd" d="M11.9392 18.7777C11.9392 18.7631 11.7819 18.6553 11.6158 18.6202C11.5866 18.6145 11.5807 18.6348 11.5582 18.6348C11.5436 18.629 11.5379 18.5853 11.5379 18.5853L11.4434 18.635C11.4434 18.635 11.4288 18.6553 11.4784 18.6926C11.5219 18.7275 11.5949 18.7567 11.6153 18.8149C11.6356 18.8731 11.6356 18.8934 11.6444 18.9023C11.6502 18.908 11.7521 18.9023 11.8017 18.8731C11.8512 18.8439 11.9445 18.7963 11.9386 18.7771L11.9392 18.7777Z" fill="#82764F"/>
<path fill-rule="evenodd" clip-rule="evenodd" d="M10.4678 19.369C10.4678 19.369 10.4968 19.1681 10.692 19.1593C10.8929 19.1447 10.9309 19.3398 10.9309 19.3398L10.8143 19.4563C10.8143 19.4534 10.727 19.3311 10.4687 19.369H10.4678Z" fill="#2D2816"/>
<path fill-rule="evenodd" clip-rule="evenodd" d="M11.7356 18.5038C11.7356 18.5038 11.6277 18.6203 11.3891 18.6553C11.3687 18.6261 11.3249 18.5679 11.3891 18.4748C11.4532 18.3817 11.5259 18.3525 11.5987 18.3815C11.6308 18.3867 11.6608 18.401 11.685 18.4226C11.7093 18.4443 11.7268 18.4725 11.7356 18.5038Z" fill="#574F35"/>
<path fill-rule="evenodd" clip-rule="evenodd" d="M12.1743 18.6467C12.1803 18.6175 12.1599 18.6117 12.1743 18.5971C12.1887 18.5825 12.2677 18.5535 12.2822 18.5679C12.288 18.5739 12.2822 18.5971 12.2822 18.6255C12.2822 18.654 12.2822 18.6831 12.2677 18.7041C12.2473 18.7333 12.1891 18.7478 12.1599 18.7392C12.1308 18.7306 12.125 18.6897 12.125 18.6816C12.1394 18.6758 12.1743 18.6613 12.1743 18.6467ZM12.6716 18.3322C12.6716 18.3176 12.7212 18.2884 12.7503 18.2884C12.7939 18.2884 12.7939 18.3233 12.7999 18.3322C12.8143 18.3379 12.8143 18.3262 12.8289 18.3525C12.8435 18.3788 12.864 18.4253 12.8492 18.4545C12.8344 18.4837 12.7765 18.5038 12.7621 18.4981C12.7417 18.4835 12.6776 18.3525 12.6716 18.3322Z" fill="#82764F"/>
<path fill-rule="evenodd" clip-rule="evenodd" d="M11.6709 18.7136C11.6709 18.7136 11.735 18.728 11.8224 18.801C11.7932 18.8213 11.7494 18.8446 11.7494 18.8446C11.7494 18.8446 11.7437 18.7776 11.6709 18.7134V18.7136Z" fill="#6E6342"/>
<path fill-rule="evenodd" clip-rule="evenodd" d="M11.5287 18.0728C11.5141 18.0584 11.5723 18.0234 11.6072 18.0292C11.6421 18.0349 11.6567 18.0584 11.6946 18.0641C11.7324 18.0699 11.7383 18.0495 11.7522 18.0349C11.766 18.0204 11.8163 18.0292 11.8249 18.0349C11.8303 18.0413 11.8352 18.0481 11.8395 18.0553C11.8401 18.0442 11.843 18.0334 11.848 18.0235C11.853 18.0136 11.86 18.0048 11.8685 17.9977C11.8797 17.9895 11.8926 17.9839 11.9062 17.9814C11.9198 17.9789 11.9339 17.9794 11.9472 17.9831C11.953 18.0035 11.9822 18.0762 11.9764 18.0908C11.9707 18.1054 11.8833 18.126 11.8685 18.1112C11.8831 18.1463 11.9472 18.2191 11.9559 18.2335C11.9645 18.2479 11.8917 18.283 11.8628 18.2772C11.822 18.2744 11.5715 18.1286 11.5279 18.0733L11.5287 18.0728ZM11.9102 17.5893C11.9048 17.5746 11.8945 17.5623 11.881 17.5544C11.8606 17.5486 11.7936 17.5544 11.7936 17.5893C11.7936 17.6243 11.8512 17.8197 11.9159 17.9215C11.9889 18.0234 12.0382 18.1077 12.0878 18.1311C12.1033 18.1382 12.121 18.1391 12.1372 18.1337C12.1534 18.1283 12.167 18.117 12.1751 18.102C12.1809 18.0874 12.1955 17.9796 12.1897 17.7262C12.184 17.4728 12.1751 17.2282 12.1605 17.2136C12.146 17.199 12.0878 17.1992 12.0674 17.2282C12.0471 17.2572 11.9159 17.5457 11.91 17.5893H11.9102Z" fill="#585136"/>
<path fill-rule="evenodd" clip-rule="evenodd" d="M11.6498 19.0806C11.6498 19.0806 11.5478 19.0164 11.4488 19.0602C11.3556 19.104 11.3614 19.2758 11.3614 19.2758C11.3823 19.284 11.405 19.287 11.4273 19.2844C11.4497 19.2819 11.4711 19.2739 11.4897 19.2612C11.5538 19.2177 11.6352 19.1449 11.6498 19.0808V19.0806Z" fill="#574F35"/>
<path fill-rule="evenodd" clip-rule="evenodd" d="M11.8428 19.3108C11.837 19.2532 11.7852 19.2532 11.7852 19.2235C11.7887 19.2092 11.797 19.1966 11.8086 19.1876C11.8202 19.1786 11.8344 19.1738 11.8491 19.1739C11.8783 19.1739 11.9067 19.2089 11.9424 19.2315C11.9773 19.2519 12.0298 19.2891 12.0355 19.3335C12.0413 19.3778 11.9779 19.4994 11.9075 19.4994C11.837 19.4994 11.8579 19.3682 11.8433 19.31L11.8428 19.3108ZM12.4049 19.2321C12.4049 19.2321 12.2884 19.267 12.297 19.2321C12.3057 19.1971 12.3322 19.1885 12.37 19.1885C12.3892 19.1684 12.4151 19.1559 12.4428 19.1534C12.4586 19.1526 12.4742 19.1578 12.4863 19.168C12.4863 19.168 12.5651 19.133 12.5883 19.1534C12.6115 19.1737 12.5942 19.1737 12.6086 19.1971C12.627 19.2231 12.639 19.2531 12.6438 19.2845C12.6438 19.3077 12.5564 19.3573 12.4863 19.3486C12.4049 19.3312 12.4193 19.2467 12.4049 19.2321ZM13.0835 19.101C13.0835 19.101 13.1184 19.1213 13.0894 19.1447C13.0691 19.1651 12.9671 19.2023 12.8796 19.2089C12.7922 19.2089 12.7137 19.2233 12.7137 19.1943C12.7137 19.1653 12.7864 19.1069 12.83 19.0923C12.8388 19.0814 12.8499 19.0725 12.8625 19.0665C12.8751 19.0604 12.889 19.0573 12.903 19.0574C12.9379 19.0574 13.0746 19.0428 13.1126 19.037C13.1476 19.0311 13.1768 19.0514 13.1562 19.0806C13.1476 19.101 13.0835 19.101 13.0835 19.101ZM13.2845 18.2016C13.2845 18.2016 13.2407 18.2947 13.1914 18.2947C13.1418 18.289 13.1418 18.2744 13.1418 18.2598C13.1418 18.2395 13.1914 18.187 13.1854 18.1724C13.171 18.1724 13.1359 18.1724 13.1418 18.1375C13.1418 18.1083 13.1914 18.0734 13.2349 18.0799C13.2679 18.0528 13.3089 18.0375 13.3515 18.0363C13.401 18.0363 13.4446 18.0507 13.4446 18.0799C13.4446 18.1091 13.387 18.173 13.3659 18.1878C13.3427 18.211 13.3135 18.2262 13.2845 18.2022V18.2016ZM12.6204 19.9229C12.6204 19.9229 12.5628 19.9289 12.5628 19.9579C12.5628 19.9724 12.5772 19.9724 12.5977 19.9638C12.6095 19.9631 12.6213 19.9611 12.6326 19.9579C12.6384 19.9638 12.6384 19.9928 12.6822 19.9928C12.7181 19.9879 12.7528 19.9761 12.7841 19.9579C12.8191 19.9435 12.8483 19.9287 12.8483 19.9003C12.8337 19.8507 12.8045 19.8273 12.7609 19.8273C12.7386 19.8259 12.7163 19.8309 12.6968 19.8419C12.6968 19.8419 12.6822 19.8127 12.6326 19.8419C12.5831 19.8711 12.5889 19.8711 12.6035 19.8857C12.6296 19.9089 12.6209 19.9241 12.6209 19.9241L12.6204 19.9229ZM12.2913 20.2259C12.2913 20.2113 12.364 20.1821 12.3844 20.1909C12.4047 20.1967 12.4629 20.3073 12.4629 20.319C12.4629 20.3336 12.3901 20.3685 12.361 20.3685C12.3318 20.3685 12.2824 20.319 12.2824 20.3109C12.2824 20.3052 12.3174 20.2965 12.3174 20.2906C12.326 20.2762 12.2913 20.2411 12.2913 20.2265V20.2259ZM12.0609 19.8006C12.0755 19.7948 12.0755 19.7803 12.0958 19.7657C12.1022 19.7614 12.1094 19.7587 12.117 19.7577C12.1246 19.7567 12.1323 19.7575 12.1396 19.7599C12.1447 19.7507 12.1518 19.7428 12.1604 19.7368C12.169 19.7307 12.1788 19.7266 12.1891 19.7248C12.2241 19.719 12.2533 19.7248 12.2467 19.7394C12.2467 19.7831 12.2759 19.8121 12.2759 19.8471C12.2759 19.882 12.2556 19.9258 12.1828 19.955C12.11 19.9753 12.0109 19.9753 11.9964 19.9696C11.9818 19.9638 11.9672 19.9054 11.9818 19.8763C11.9964 19.8471 12.0371 19.8152 12.0605 19.8006H12.0609Z" fill="#82764F"/>
<path fill-rule="evenodd" clip-rule="evenodd" d="M12.1531 19.8204C12.1531 19.8204 12.1035 19.8496 12.1035 19.8641C12.0991 19.8782 12.0972 19.893 12.0978 19.9077C12.0978 19.9164 12.1619 19.902 12.1705 19.8931C12.1734 19.8874 12.1531 19.8355 12.1531 19.8204Z" fill="#6E6342"/>
<path fill-rule="evenodd" clip-rule="evenodd" d="M11.7204 19.6834C11.7494 19.6894 11.7989 19.6834 11.8367 19.698C11.8659 19.7126 11.8862 19.7418 11.8571 19.7768C11.8279 19.8117 11.7995 19.8641 11.7348 19.8553C11.662 19.8495 11.5921 19.8117 11.5921 19.7825C11.5909 19.7641 11.5933 19.7455 11.5993 19.728C11.6053 19.7105 11.6148 19.6944 11.627 19.6806C11.6562 19.6573 11.6706 19.6719 11.7202 19.6834H11.7204Z" fill="#585136"/>
<path fill-rule="evenodd" clip-rule="evenodd" d="M11.6849 19.7126C11.6849 19.7126 11.5917 19.7854 11.5683 19.8206C11.5391 19.8555 11.3965 20.036 11.3529 20.0738C11.3674 20.0483 11.3839 20.0239 11.4022 20.001C11.3446 20.0379 11.3014 20.0934 11.2799 20.1583C11.245 20.2662 11.4752 20.3244 11.6265 20.3681C11.7778 20.4119 11.8363 20.4257 11.8363 20.4257C11.7806 20.342 11.7328 20.2533 11.6935 20.1608C11.6359 20.0239 11.6061 20.0093 11.644 19.9452C11.6731 19.881 11.7169 19.8374 11.7169 19.7879C11.6994 19.7418 11.6849 19.7126 11.6849 19.7126Z" fill="#574F35"/>
<path fill-rule="evenodd" clip-rule="evenodd" d="M8.36464 19.9429C8.38584 19.9468 8.40757 19.9468 8.42877 19.9429C8.47235 19.9369 8.92682 19.7701 9.40163 19.8C9.75709 19.8215 10.1094 19.8794 10.453 19.9728C11.0501 20.1301 11.7928 20.4417 12.2734 20.6195C12.4014 20.6688 12.5268 20.7564 12.619 20.7911C12.9861 20.934 13.0005 20.934 13.2161 20.9718C13.4695 21.0068 13.7287 20.9223 13.9996 20.8641C14.3316 20.7911 14.8996 20.7562 15.3976 20.6834C15.5587 20.6611 15.7175 20.6251 15.8724 20.5757C15.8724 20.5757 15.4763 20.9718 14.5267 21.1145C14.1428 21.1728 13.7528 21.1777 13.3676 21.1291C13.0646 21.0999 12.8638 21.0561 12.7123 21.0125C12.5404 20.963 12.1879 20.8319 11.754 20.7245C11.451 20.6458 11.1131 20.5876 10.7259 20.5149C9.77047 20.3399 8.73367 20.1391 8.36426 19.944L8.36464 19.9429Z" fill="#252211"/>
<path fill-rule="evenodd" clip-rule="evenodd" d="M7.29276 18.1428C7.06236 18.3379 6.81795 18.5243 6.57929 18.7048L5.85987 19.2576C5.61526 19.4381 5.37641 19.6245 5.13161 19.8052C4.88681 19.9858 4.6424 20.1575 4.38281 20.3236C4.61321 20.1285 4.85763 19.9478 5.10224 19.7702C5.34684 19.5926 5.60048 19.4185 5.83644 19.2384L6.55587 18.6848C6.80336 18.5044 7.0422 18.3179 7.29276 18.1432V18.1428ZM6.02 20.1817C6.02 20.1817 6.2792 19.9661 6.60252 19.6633C7.00438 19.2877 7.49667 18.8069 7.65392 18.7198L6.0198 20.1819L6.02 20.1817Z" fill="#CFB66C"/>
<path fill-rule="evenodd" clip-rule="evenodd" d="M6.02051 20.1815C6.14876 20.0534 6.28566 19.9282 6.42256 19.8057L6.63222 19.6252C6.69635 19.5676 6.76931 19.5029 6.83324 19.4388C6.96131 19.3108 7.08668 19.1737 7.21475 19.0427C7.27822 18.9769 7.34534 18.9146 7.41577 18.8563C7.45099 18.8251 7.4901 18.7987 7.53212 18.7776C7.56726 18.7572 7.60508 18.72 7.65443 18.7134C7.62544 18.7572 7.59049 18.7776 7.56131 18.8154C7.52636 18.8446 7.49718 18.8795 7.46819 18.9085C7.40406 18.9726 7.33129 19.0308 7.26716 19.0892C7.13027 19.2057 6.98761 19.3196 6.85072 19.4415C6.71382 19.5634 6.58576 19.6949 6.44867 19.8172C6.30025 19.9426 6.16336 20.0649 6.02051 20.182V20.1815ZM7.76233 19.0164C7.76233 19.0164 6.81289 19.9457 6.61763 20.097L7.76233 19.0164Z" fill="#CFB66C"/>
<path fill-rule="evenodd" clip-rule="evenodd" d="M7.76189 19.0165C7.67648 19.1153 7.58491 19.2087 7.48772 19.296L7.19972 19.5698C7.1066 19.6629 7.01904 19.7563 6.92016 19.8494C6.81821 19.9367 6.72509 20.0222 6.61719 20.1028L6.89674 19.829C6.99005 19.7359 7.092 19.6574 7.19108 19.5641L7.47063 19.2903C7.56663 19.1943 7.65994 19.101 7.76189 19.0165ZM7.80548 19.5203C7.71796 19.7645 7.61484 20.0029 7.49674 20.234C7.25213 20.7234 6.88522 21.3349 6.7249 21.6467L7.80548 19.5203Z" fill="#CFB66C"/>
<path fill-rule="evenodd" clip-rule="evenodd" d="M7.80621 19.5204C7.80621 19.6282 7.77703 19.7215 7.74208 19.8146C7.70802 19.9078 7.66919 19.9992 7.62573 20.0884C7.58196 20.1757 7.53242 20.2691 7.48288 20.3535C7.43335 20.438 7.37517 20.5252 7.3314 20.6127L7.03725 21.1311C6.9353 21.3039 6.83623 21.4777 6.72852 21.6438C6.80128 21.4573 6.90036 21.2826 6.99367 21.1108C7.09562 20.938 7.18874 20.7652 7.28167 20.5864C7.32704 20.4974 7.36786 20.406 7.40397 20.3128C7.44756 20.2195 7.49114 20.1322 7.52628 20.0477C7.56986 19.9546 7.6048 19.867 7.64858 19.7827C7.69792 19.6923 7.73882 19.6049 7.80583 19.5204H7.80621Z" fill="#CFB66C"/>
<path fill-rule="evenodd" clip-rule="evenodd" d="M8.84326 21.9087C8.84326 21.9087 8.55526 22.2902 8.58406 22.7737C8.66258 22.5204 8.76166 22.1329 8.84326 21.9087ZM9.11705 22.2912C9.11705 22.2912 9.0151 23.328 8.93062 23.8377C9.05004 23.2485 9.07327 23.298 9.11705 22.2912ZM11.0248 23.899C11.0248 23.899 10.5937 25.1662 10.5849 25.5183C10.6782 25.1562 10.8587 24.4164 11.0248 23.898V23.899Z" fill="#DEC270"/>
<path fill-rule="evenodd" clip-rule="evenodd" d="M12.0322 21.8304C12.0322 21.8304 12.7313 22.9837 13.2557 23.9681C13.1138 23.4728 12.7874 22.5642 12.0322 21.8304Z" fill="#CBAF59"/>
<path fill-rule="evenodd" clip-rule="evenodd" d="M13.9102 23.5283C14.294 24.2067 14.6401 24.9058 14.947 25.6224C14.8888 25.1272 14.7313 24.2797 13.9102 23.5283Z" fill="#E3C677"/>
<path fill-rule="evenodd" clip-rule="evenodd" d="M19.4331 25.2288C19.5495 25.156 19.7797 24.7598 19.9807 24.6609C20.1815 24.5589 20.333 24.5386 20.5137 24.3376C20.6942 24.1277 20.7441 23.9996 21.1398 23.8337C21.6933 23.5947 21.3126 23.286 21.3126 23.286C21.3736 23.2261 21.4388 23.1706 21.5077 23.1201C21.6505 23.0124 21.8164 22.8812 21.802 22.651C21.7817 22.2638 21.7089 21.7016 21.3913 21.3754C21.7001 21.3112 22.2912 21.2677 22.6585 21.1745C23.0836 21.0666 23.2789 20.9152 23.2789 20.9152C23.2789 20.9152 23.0343 20.4987 23.4304 20.0794C23.8265 19.66 24.1498 19.4095 24.3886 18.9404C24.1148 18.9055 23.6974 18.76 22.6322 19.1647C22.6897 19.1917 22.7452 19.2229 22.7983 19.2578C22.7983 19.2578 22.143 19.4385 21.9041 19.6395C21.4875 19.9918 21.4351 20.2802 20.9837 20.4958C20.5323 20.7114 20.0778 20.6531 19.7023 20.8278C19.3267 21.0025 19.2713 21.1511 19.1342 21.2152C19.1634 21.2502 19.1284 21.3084 19.1837 21.3579C19.1488 21.4074 18.9449 21.7394 18.7381 21.7394C18.7584 21.8181 18.9331 21.8763 18.9331 21.8763C18.9331 21.8763 18.8051 21.9696 18.4789 21.9928C18.6448 22.1656 18.8022 22.354 19.2361 22.6278C19.2012 22.7006 19.0554 22.8085 19.1138 22.9454C19.1779 23.0823 19.3442 23.2687 20.008 23.4202C19.67 23.4346 19.2741 23.5133 18.7408 23.4405C18.2078 23.3764 18.1204 23.3386 17.7913 23.4202C17.8263 23.4551 17.9194 23.4551 18.001 23.5482C17.9136 23.554 17.366 23.4841 17.1796 23.7289C16.9845 23.9822 16.9001 24.3988 16.9146 24.6783C16.8127 24.7279 16.7136 24.8152 16.7632 24.9959C16.8127 25.1766 17.0719 25.2348 17.238 25.3482C17.4039 25.4705 17.4185 25.5141 17.5759 25.4851C17.7418 25.4502 17.9864 25.2843 18.1292 25.2843C18.2721 25.2843 18.3738 25.392 18.3738 25.392C18.3738 25.392 18.7613 25.2056 18.7991 25.2405C18.8341 25.2755 18.8049 25.4997 18.8427 25.5347C18.8811 25.561 19.3175 25.3018 19.4341 25.2288H19.4331Z" fill="#ECD592"/>
<path fill-rule="evenodd" clip-rule="evenodd" d="M27.8997 13.5729C26.0794 8.87195 21.5793 8.00104 21.5793 8.00104H8.74043L8.78996 12.7893H11.3468V23.4816H8.74023V28.2613H21.2239C24.2325 28.2613 26.6442 25.2378 26.6442 25.2378C30.5063 19.7564 27.8995 13.5729 27.8995 13.5729H27.8997ZM21.2909 22.0165C21.2909 22.0165 20.3117 23.4292 19.2463 23.4292H17.1151L17.0646 12.801H19.7996C19.7996 12.801 21.0668 13.066 21.9521 15.5737C21.9521 15.5737 23.1258 19.1641 21.2909 22.0165Z" fill="white" fill-opacity="0.8"/>
</svg>
