<svg width="70" height="70" viewBox="0 0 70 70" fill="none" xmlns="http://www.w3.org/2000/svg">
<path d="M35 70C54.33 70 70 54.33 70 35C70 15.67 54.33 0 35 0C15.67 0 0 15.67 0 35C0 54.33 15.67 70 35 70Z" fill="url(#paint0_linear_9805_1075)"/>
<path d="M17.7727 45.5001V29.0267L30.2653 38.4289V45.5001H33.4538V37.7651C33.4533 37.4777 33.3861 37.1943 33.2575 36.9372C33.129 36.6801 32.9426 36.4563 32.713 36.2834L17.5627 24.8769C17.2856 24.6711 16.9568 24.5461 16.613 24.5159C16.2691 24.4857 15.9236 24.5515 15.6149 24.7059C15.3061 24.8602 15.0462 25.0972 14.8641 25.3904C14.6819 25.6836 14.5846 26.0216 14.583 26.3667V45.5001H17.7727ZM52.3223 45.5001V29.0267L39.8297 38.4289V45.5001H36.6412V37.7651C36.6418 37.4777 36.709 37.1943 36.8375 36.9372C36.966 36.6801 37.1524 36.4563 37.382 36.2834L52.5323 24.8816C52.8091 24.676 53.1375 24.5511 53.4809 24.5207C53.8244 24.4903 54.1695 24.5557 54.4781 24.7095C54.7867 24.8633 55.0466 25.0995 55.2291 25.3921C55.4116 25.6846 55.5095 26.022 55.512 26.3667V45.5001H52.3223Z" fill="white"/>
<defs>
<linearGradient id="paint0_linear_9805_1075" x1="35" y1="0" x2="35" y2="70" gradientUnits="userSpaceOnUse">
<stop stop-color="#4FA89B"/>
<stop offset="1" stop-color="#6ACEBB"/>
</linearGradient>
</defs>
</svg>
