<svg width="70" height="70" viewBox="0 0 70 70" fill="none" xmlns="http://www.w3.org/2000/svg">
<path d="M35 70C30.2759 70 25.6925 69.074 21.3759 67.249C17.2074 65.4858 13.4661 62.962 10.2508 59.7492C7.03803 56.5364 4.51422 52.7926 2.75101 48.6241C0.926057 44.3075 0 39.7241 0 35C0 30.2759 0.926057 25.6925 2.75101 21.3759C4.51422 17.2074 7.03803 13.4661 10.2508 10.2508C13.4661 7.03803 17.2074 4.51422 21.3759 2.75101C25.6925 0.926057 30.2759 0 35 0C39.7241 0 44.3075 0.926057 48.6241 2.75101C52.7926 4.51422 56.5339 7.03803 59.7492 10.2508C62.962 13.4636 65.4858 17.2074 67.249 21.3759C69.074 25.6925 70 30.2759 70 35C70 39.7241 69.074 44.3075 67.249 48.6241C65.4858 52.7926 62.962 56.5339 59.7492 59.7492C56.5364 62.962 52.7926 65.4858 48.6241 67.249C44.3075 69.0764 39.7241 70 35 70Z" fill="white"/>
<path d="M34.9999 68.1453C53.3056 68.1453 68.1453 53.3056 68.1453 34.9999C68.1453 16.6942 53.3056 1.85449 34.9999 1.85449C16.6942 1.85449 1.85449 16.6942 1.85449 34.9999C1.85449 53.3056 16.6942 68.1453 34.9999 68.1453Z" fill="black"/>
<path d="M48.4611 43.0434C48.4611 39.9788 47.1868 37.4624 44.6754 35.5584C42.8183 34.1508 40.2229 32.9975 36.0124 31.7035C28.4336 29.3748 28.4336 28.0339 28.4336 26.9547C28.4336 25.4631 30.6413 23.3962 34.7826 23.3962C37.2348 23.3962 41.349 24.0135 41.349 28.1524H48.2438C48.2438 26.2015 47.8067 24.3815 46.9794 22.7936L52.511 17.262L47.6363 12.3872L41.9984 18.0275C39.9537 17.0249 37.5064 16.5038 34.7851 16.5038C32.2489 16.5038 29.9177 16.9928 27.9076 17.9337L22.3636 12.3897L17.4888 17.2644L22.7488 22.5244C21.9635 23.8975 21.5412 25.4137 21.5412 26.9572C21.5412 30.0218 22.8155 32.5382 25.3269 34.4422C27.184 35.8498 29.772 37.0006 33.9825 38.2946C41.5613 40.6208 41.5663 41.9667 41.5663 43.0459C41.5663 44.5374 39.3586 46.6044 35.2172 46.6044C32.765 46.6044 28.6509 45.987 28.6509 41.8482H21.7561C21.7561 43.8065 22.1956 45.6314 23.0279 47.2242L17.4863 52.7657L22.3611 57.6405L28.0187 51.9829C30.0609 52.9806 32.5008 53.4992 35.2148 53.4992C37.7435 53.4992 40.0673 53.0127 42.0725 52.0792L47.6363 57.643L52.511 52.7682L47.2411 47.4983C48.0339 46.1154 48.4611 44.5967 48.4611 43.0434Z" fill="white"/>
</svg>
