<svg width="36" height="36" viewBox="0 0 36 36" fill="none" xmlns="http://www.w3.org/2000/svg">
<path d="M26.0539 3.1691C25.1276 4.09536 24.279 5.09927 23.5247 6.16974L23.2862 6.09208C21.9107 5.64282 20.4852 5.3655 19.0487 5.27121C18.6161 5.23793 17.0021 5.23793 16.4751 5.27121C14.8833 5.37659 13.6631 5.61509 12.2765 6.09763C12.221 6.11982 12.1711 6.13646 12.1212 6.1531C11.3391 5.08817 10.4683 4.08981 9.50879 3.17465C14.1124 0.8174 19.498 0.53453 24.3178 2.39259C24.8337 2.58672 25.3384 2.81413 25.832 3.05817L26.0539 3.1691Z" fill="#F00500"/>
<path d="M34.6393 24.2068C33.9405 26.198 32.8922 28.045 31.5333 29.6535C30.7956 30.5187 29.9803 31.3119 29.104 32.0329C27.0518 33.6857 24.6557 34.8671 22.0988 35.4883C19.2701 36.1706 16.3194 36.1706 13.4907 35.4883C10.9282 34.8671 8.53768 33.6857 6.48549 32.0329C5.60915 31.3119 4.79382 30.5187 4.05614 29.6535C0.145883 25.0333 -1.04106 18.6881 0.95012 12.9697C1.32728 11.9103 1.79873 10.8898 2.36447 9.91915C2.62515 9.47544 2.94685 8.97626 3.10215 8.77104C3.63461 11.0617 4.28909 13.0751 4.53313 13.8017C4.51649 13.8405 4.49431 13.8849 4.47212 13.9237C3.1798 16.5416 2.48095 19.0653 2.31455 21.7498C2.31455 21.783 2.309 21.8219 2.309 21.8551C2.26463 22.6594 2.28682 23.0421 2.41993 23.5468C2.83592 25.1276 4.11715 26.8691 6.12497 28.5775C9.41402 31.3729 13.8734 33.3918 17.2512 33.6247C20.7732 33.8632 25.9702 31.8055 29.4312 28.7993C29.9748 28.3168 30.485 27.8065 30.962 27.2629C31.3059 26.8636 31.8162 26.1758 31.7774 26.1758C31.7663 26.1758 31.7774 26.1647 31.7995 26.1536C31.8162 26.1426 31.8328 26.1259 31.8217 26.1148C31.8162 26.1093 31.8273 26.0926 31.8439 26.0871C31.8606 26.0815 31.8716 26.0705 31.8661 26.0594C31.8606 26.0483 31.8661 26.0372 31.8883 26.0316C31.9049 26.0261 31.9105 26.0094 31.9049 25.9983C31.8994 25.9873 31.9049 25.9762 31.916 25.9762C31.9271 25.9762 31.9382 25.9595 31.9382 25.9484C31.9382 25.9373 31.9493 25.9207 31.9604 25.9207C31.9715 25.9207 31.9826 25.9096 31.9826 25.8985C31.9992 25.8541 32.0269 25.8098 32.0547 25.7709C32.1379 25.6434 32.4707 25.0499 32.515 24.9501C32.8312 24.2346 33.0309 23.5967 33.1251 22.9589C33.1695 22.6538 33.1972 22.0936 33.1751 21.9605C33.1695 21.9383 33.1695 21.8995 33.164 21.8385C33.1529 21.7276 33.1473 21.5612 33.1362 21.3948C33.1251 21.1452 33.103 20.7958 33.0863 20.6238C32.8478 18.1057 32.2044 16.048 30.9842 13.8682C30.9343 13.785 30.8899 13.7018 30.8622 13.6353C30.8511 13.6186 30.8456 13.602 30.84 13.5909C31.0119 13.0751 31.7163 10.9175 32.2765 8.44934L32.2876 8.46043L32.3708 8.57136C32.515 8.76549 32.8977 9.34232 33.0697 9.61964C33.8517 10.8953 34.4618 12.2653 34.8945 13.6963C35.8984 17.1406 35.8152 20.8124 34.6393 24.2068Z" fill="#F00500"/>
<path d="M27.4403 17.5788C27.4237 17.6676 27.163 17.9338 26.9023 18.1279C26.1369 18.6881 24.7669 19.2095 23.3748 19.4591C22.5816 19.6033 21.7885 19.6255 21.55 19.509C21.3947 19.4313 21.3725 19.3703 21.428 19.1706C21.5444 18.7547 21.9216 18.2998 22.5095 17.8728C22.809 17.6565 24.0237 16.9188 24.5894 16.6082C25.5213 16.0979 26.2756 15.7928 26.7858 15.7207C26.9467 15.6986 27.1408 15.693 27.2018 15.7207C27.3017 15.7596 27.4126 16.0535 27.457 16.4085C27.4792 16.5971 27.4681 17.4291 27.4403 17.5788Z" fill="black"/>
<path d="M14.373 19.4147C14.3397 19.4813 14.1733 19.5534 13.9848 19.5811C13.7962 19.6088 13.2194 19.5922 12.8921 19.5534C11.7163 19.3981 10.4683 19.0375 9.55869 18.5938C9.04842 18.3442 8.68235 18.0946 8.41057 17.8229L8.25527 17.662L8.23863 17.4513C8.2109 17.0852 8.21645 16.5084 8.26082 16.3031C8.28855 16.1312 8.34956 15.9648 8.43276 15.815C8.47713 15.7596 8.47713 15.7596 8.6768 15.7596C8.92085 15.7596 9.12606 15.7984 9.45885 15.9038C10.1411 16.1146 11.1561 16.6248 12.3929 17.3681C13.4135 17.9782 13.7962 18.2777 14.0901 18.6881C14.2898 18.9433 14.4229 19.3038 14.373 19.4147Z" fill="black"/>
<path d="M22.2258 27.1354C22.2258 27.152 22.1592 27.4182 22.076 27.7344C21.9928 28.0505 21.9263 28.3057 21.9263 28.3168C21.8652 28.3223 21.8098 28.3279 21.7488 28.3223H21.5713L21.3272 28.8991C21.1941 29.2153 21.0721 29.5093 21.0555 29.5536L21.0222 29.6313L20.9057 29.4427L20.7892 29.2541V27.7178L20.7449 27.7288C20.6506 27.751 19.9795 27.8398 19.6855 27.8675C18.4708 27.9895 17.2506 27.9618 16.0415 27.7899C15.8473 27.7621 15.6809 27.7399 15.6754 27.7455C15.6698 27.751 15.6754 28.106 15.6865 28.5442L15.7031 29.3318L15.6088 29.476C15.5589 29.5536 15.509 29.6202 15.509 29.6257C15.4924 29.6424 15.4369 29.5536 15.3093 29.2985C15.1707 29.0323 15.0708 28.7494 14.9987 28.4554L14.9599 28.2946L14.788 28.3057L14.616 28.3223L14.5716 28.1171C14.5495 28.0062 14.5217 27.8342 14.5106 27.7399L14.494 27.5625L14.3498 27.4349C14.2666 27.3628 14.1834 27.2907 14.1668 27.2796C14.139 27.2574 14.1279 27.2186 14.1279 27.1853V27.1187L14.8212 27.1243L15.5145 27.1298L15.5367 27.2019L15.5589 27.274L15.7974 27.2851C15.9305 27.2907 16.3521 27.3018 16.7292 27.3129L17.4225 27.3295L17.6 27.0522L17.783 26.7749H18.016L18.0105 26.198L18.0049 25.6212L17.6999 25.4881C16.7181 25.0555 16.1413 24.5618 15.925 23.9628C15.8806 23.8408 15.8806 23.7964 15.8695 23.2418C15.864 22.6927 15.864 22.6427 15.9028 22.5207C15.9804 22.2434 16.1968 22.0271 16.4741 21.955C16.5684 21.9272 16.818 21.9272 18.1269 21.9272L19.6688 21.9328L19.8408 22.016C20.046 22.1158 20.1403 22.1879 20.2568 22.3432C20.3899 22.5207 20.4287 22.6594 20.4287 22.9977C20.4287 23.4803 20.3954 23.8962 20.3455 24.0626C20.2734 24.29 20.1625 24.5064 20.0238 24.7005C19.7465 25.0555 19.2418 25.4104 18.7814 25.5713L18.6483 25.6212L18.6538 26.2036L18.6594 26.7859L18.7814 26.797L18.9034 26.8081L19.0698 27.0577L19.2307 27.3073H19.9739C20.3843 27.3073 20.7449 27.3129 20.7781 27.3184C20.8336 27.3295 20.8447 27.324 20.9002 27.2297L20.9667 27.1298H21.6046C22.0816 27.1076 22.2258 27.1187 22.2258 27.1354Z" fill="black"/>
<path d="M19.2975 28.7272C19.1921 28.7882 19.12 28.8159 19.1034 28.8048C19.0868 28.7993 19.0091 28.7327 18.9259 28.6717L18.7762 28.5497L18.6209 28.7161C18.2825 29.0822 18.2714 29.0988 18.1716 29.1043C18.0163 29.121 17.983 29.0933 17.7944 28.8104C17.6946 28.6662 17.6169 28.5442 17.6169 28.5442C17.6169 28.5442 17.5448 28.5331 17.4617 28.5275L17.3063 28.5109L17.2342 28.6606L17.1621 28.8104L17.0346 28.7716C16.9347 28.7383 16.8349 28.6995 16.7406 28.6551L16.5742 28.5719V28.2557L18.0496 28.2613L19.5249 28.2668L19.5305 28.4166C19.536 28.5941 19.5416 28.5885 19.2975 28.7272Z" fill="black"/>
<path d="M33.1638 21.9605C33.1583 21.9383 33.1583 21.8995 33.1527 21.8385C31.8216 21.6943 28.0222 21.6056 24.4947 24.5174C24.4947 24.5174 23.3577 19.3038 18.0331 19.3038C12.7085 19.3038 10.7339 24.5174 10.7339 24.5174C7.74993 21.306 3.75648 21.539 2.3144 21.7498C2.3144 21.783 2.30885 21.8219 2.30885 21.8551C2.26448 22.6594 2.28667 23.0421 2.41978 23.5468C2.83577 25.1276 4.117 26.8691 6.12482 28.5775C9.41387 31.3729 13.8732 33.3918 17.251 33.6247C20.773 33.8632 25.9701 31.8055 29.4311 28.7993C29.9746 28.3168 30.4849 27.8065 30.9619 27.2629C31.3058 26.8636 31.816 26.1758 31.7772 26.1758C31.7661 26.1758 31.7772 26.1647 31.7994 26.1537C31.816 26.1426 31.8327 26.1259 31.8216 26.1148C31.816 26.1093 31.8271 26.0926 31.8438 26.0871C31.8604 26.0815 31.8715 26.0705 31.866 26.0594C31.8604 26.0483 31.866 26.0372 31.8881 26.0316C31.9048 26.0261 31.9103 26.0094 31.9048 25.9984C31.8992 25.9873 31.9048 25.9762 31.9159 25.9762C31.927 25.9762 31.9381 25.9595 31.9381 25.9484C31.9381 25.9373 31.9491 25.9207 31.9602 25.9207C31.9713 25.9207 31.9824 25.9096 31.9824 25.8985C31.9991 25.8541 32.0268 25.8098 32.0545 25.7709C32.1377 25.6434 32.4705 25.0499 32.5149 24.9501C32.831 24.2346 33.0307 23.5967 33.125 22.9589C33.1583 22.6538 33.186 22.0936 33.1638 21.9605ZM19.2977 28.7272C19.1923 28.7882 19.1202 28.816 19.1035 28.8049C19.0869 28.7993 19.0092 28.7328 18.9261 28.6717L18.7763 28.5497L18.621 28.7161C18.2827 29.0822 18.2716 29.0988 18.1717 29.1044C18.0164 29.121 17.9832 29.0933 17.7946 28.8104C17.6947 28.6662 17.6171 28.5442 17.6171 28.5442C17.6171 28.5442 17.545 28.5331 17.4618 28.5275L17.3065 28.5109L17.2344 28.6607L17.1623 28.8104L17.0347 28.7716C16.9349 28.7383 16.835 28.6995 16.7408 28.6551L16.5744 28.5719V28.2558L18.0497 28.2613L19.5251 28.2669L19.5306 28.4166C19.5362 28.5941 19.5417 28.5886 19.2977 28.7272ZM22.0709 27.7288C21.9877 28.045 21.9211 28.3001 21.9211 28.3112C21.8601 28.3168 21.8047 28.3223 21.7437 28.3168H21.5662L21.3277 28.8992C21.1946 29.2153 21.0725 29.5093 21.0559 29.5536L21.0226 29.6313L20.9061 29.4427L20.7897 29.2541V27.7178L20.7453 27.7288C20.651 27.751 19.9799 27.8398 19.6859 27.8675C18.4712 27.9895 17.251 27.9618 16.0419 27.7899C15.8478 27.7621 15.6814 27.7399 15.6758 27.7455C15.6703 27.751 15.6758 28.106 15.6869 28.5442L15.7036 29.3318L15.6093 29.476C15.5594 29.5536 15.5094 29.6202 15.5094 29.6257C15.4928 29.6424 15.4373 29.5536 15.3098 29.2985C15.1711 29.0323 15.0713 28.7494 14.9992 28.4554L14.9603 28.2946L14.7884 28.3057L14.6165 28.3223L14.5721 28.1171C14.5499 28.0062 14.5222 27.8342 14.5111 27.7399L14.4944 27.5625L14.3502 27.4349C14.267 27.3628 14.1838 27.2907 14.1672 27.2796C14.1395 27.2574 14.1284 27.2186 14.1284 27.1853V27.1187L14.8217 27.1243L15.515 27.1298L15.5372 27.2019L15.5594 27.274L15.7979 27.2851C15.931 27.2907 16.3525 27.3018 16.7297 27.3129L17.423 27.3295L17.6005 27.0522L17.7835 26.7749H18.0164L18.0109 26.198L18.0053 25.6212L17.7003 25.4881C16.7186 25.0555 16.1417 24.5618 15.9254 23.9628C15.881 23.8408 15.881 23.7964 15.87 23.2418C15.8644 22.6927 15.8644 22.6427 15.9032 22.5207C15.9809 22.2434 16.1972 22.0271 16.4745 21.955C16.5688 21.9272 16.8184 21.9272 18.1274 21.9272L19.6693 21.9328L19.8412 22.016C20.0464 22.1158 20.1407 22.1879 20.2572 22.3432C20.3903 22.5207 20.4291 22.6594 20.4291 22.9977C20.4291 23.4803 20.3959 23.8962 20.346 24.0626C20.2738 24.29 20.1629 24.5064 20.0243 24.7005C19.7469 25.0555 19.2422 25.4104 18.7818 25.5713L18.6487 25.6212L18.6543 26.2036L18.6598 26.786L18.7818 26.797L18.9039 26.8081L19.0703 27.0577L19.2311 27.3073H19.9743C20.3848 27.3073 20.7453 27.3129 20.7786 27.3184C20.834 27.3295 20.8451 27.324 20.9006 27.2297L20.9672 27.1298H21.605C22.0986 27.1298 22.2428 27.1354 22.2428 27.152C22.2262 27.1465 22.1541 27.4182 22.0709 27.7288Z" fill="white"/>
<path d="M33.1199 21.3948C33.1088 21.1452 33.0866 20.7958 33.0699 20.6238C32.8314 18.1057 32.1881 16.048 30.9678 13.8682C30.9179 13.785 30.8735 13.7018 30.8458 13.6353C30.8347 13.6186 30.8292 13.602 30.8236 13.5909C30.9956 13.0751 31.7 10.9175 32.2602 8.44934C33.02 5.09927 33.5026 1.18347 32.0272 0.00762219C32.0272 0.00762219 29.4758 -0.180958 26.0592 3.16911C25.133 4.09537 24.2843 5.09928 23.53 6.16974L23.2915 6.09209C21.916 5.64283 20.4906 5.3655 19.054 5.27121C18.6214 5.23794 17.0074 5.23794 16.4805 5.27121C14.8886 5.3766 13.6684 5.6151 12.2818 6.09764C12.2263 6.11982 12.1764 6.13646 12.1265 6.1531C11.3444 5.08818 10.4736 4.08982 9.51411 3.17465C5.95883 -0.19205 3.31317 0.00207539 3.31317 0.00207539C1.74907 1.21675 2.28153 5.31004 3.09131 8.77103C3.62377 11.0617 4.27825 13.0751 4.5223 13.8017C4.50566 13.8405 4.48347 13.8849 4.46129 13.9237C3.16896 16.5416 2.4701 19.0653 2.30371 21.7498C3.75134 21.539 7.73924 21.3005 10.7288 24.5174C10.7288 24.5174 12.7033 19.3038 18.0279 19.3038C23.3525 19.3038 24.4896 24.5174 24.4896 24.5174C28.0171 21.6055 31.8164 21.6998 33.1476 21.8385C33.142 21.7276 33.1309 21.5612 33.1199 21.3948ZM5.57058 11.7107C5.57058 11.7107 3.4962 6.52472 4.02866 3.5629C4.1174 3.06372 4.2838 2.62555 4.54448 2.29276C4.54448 2.29276 6.89618 2.52572 10.69 6.74103C10.69 6.74103 9.96892 7.09046 9.00384 7.83368C9.00384 7.83368 8.99829 7.83923 8.99274 7.83923C7.94446 8.64346 6.60222 9.91915 5.57058 11.7107ZM14.3728 19.4147C14.3395 19.4813 14.1731 19.5534 13.9846 19.5811C13.796 19.6088 13.2191 19.5922 12.8919 19.5534C11.7161 19.3981 10.4681 19.0375 9.55849 18.5938C9.04821 18.3442 8.68214 18.0946 8.41036 17.8229L8.25507 17.662L8.23843 17.4512C8.21069 17.0852 8.21624 16.5083 8.26061 16.3031C8.28834 16.1312 8.34935 15.9648 8.43255 15.815C8.47692 15.7596 8.47692 15.7596 8.6766 15.7596C8.92064 15.7596 9.12586 15.7984 9.45865 15.9038C10.1409 16.1145 11.1559 16.6248 12.3927 17.368C13.4133 17.9782 13.796 18.2777 14.0899 18.6881C14.2896 18.9432 14.4227 19.3038 14.3728 19.4147ZM27.4403 17.5788C27.4236 17.6676 27.163 17.9338 26.9023 18.1279C26.1369 18.6881 24.7669 19.2095 23.3747 19.4591C22.5816 19.6033 21.7884 19.6255 21.5499 19.509C21.3946 19.4313 21.3724 19.3703 21.4279 19.1706C21.5444 18.7547 21.9216 18.2999 22.5095 17.8728C22.809 17.6565 24.0237 16.9188 24.5894 16.6082C25.5212 16.0979 26.2755 15.7929 26.7858 15.7208C26.9466 15.6986 27.1408 15.693 27.2018 15.7208C27.3016 15.7596 27.4125 16.0535 27.4569 16.4085C27.4791 16.5971 27.468 17.4291 27.4403 17.5788ZM26.5196 7.83368L26.5085 7.82813C25.5767 7.08491 24.8778 6.73548 24.8778 6.73548C28.544 2.52017 30.8125 2.28722 30.8125 2.28722C31.0621 2.62555 31.223 3.05818 31.3117 3.55736C31.8275 6.51917 29.8253 11.7107 29.8253 11.7107C28.9877 10.2187 27.8618 8.8986 26.5196 7.83368Z" fill="#FFA409"/>
<path d="M31.3164 3.55737C30.8838 3.50191 28.8371 3.49081 26.5187 7.83369L26.5076 7.82815C25.5758 7.08492 24.877 6.73549 24.877 6.73549C28.5432 2.52018 30.8117 2.28723 30.8117 2.28723C31.0668 2.62557 31.2277 3.05819 31.3164 3.55737Z" fill="#FF9300"/>
<path d="M29.8298 11.7106C28.9867 10.2131 27.8663 8.89859 26.5186 7.83367C28.837 3.49079 30.8781 3.50188 31.3162 3.55734C31.8321 6.5247 29.8298 11.7106 29.8298 11.7106Z" fill="#FF8300"/>
<path d="M31.3996 3.57401C31.3719 3.56847 31.3441 3.56292 31.3164 3.55737L31.3996 3.57401Z" fill="#FF8300"/>
<path d="M10.6893 6.73549C10.6893 6.73549 9.96827 7.08492 9.00319 7.82815C9.00319 7.82815 8.99764 7.83369 8.99209 7.83369C6.59047 3.48527 4.47727 3.50191 4.02246 3.55737C4.1112 3.05819 4.2776 2.62002 4.53828 2.28723C4.54383 2.28723 6.89553 2.52018 10.6893 6.73549Z" fill="#FF9300"/>
<path d="M8.99844 7.83367C7.94461 8.64345 6.60237 9.91359 5.57073 11.7106C5.57073 11.7106 3.49635 6.5247 4.02881 3.55734C4.47807 3.50188 6.59682 3.49079 8.99844 7.83367Z" fill="#FF8300"/>
<path d="M4.0282 3.55737C4.00046 3.56292 3.96719 3.56847 3.93945 3.57401L4.0282 3.55737Z" fill="#FF8300"/>
<path d="M24.2177 14.5893C24.2177 14.5893 22.4428 14.7002 22.6647 13.3136C22.8866 11.927 24.2732 11.7606 24.6614 11.8161C25.0497 11.8715 26.6027 12.4262 26.3254 13.5909C26.048 14.7557 25.6598 14.5338 25.4379 14.5893C25.2161 14.6448 24.2177 14.5893 24.2177 14.5893Z" fill="white"/>
<path d="M11.1279 14.5893C11.1279 14.5893 9.353 14.7002 9.57486 13.3136C9.79671 11.927 11.1833 11.7606 11.5716 11.8161C11.9598 11.8715 13.5128 12.4262 13.2355 13.5909C12.9582 14.7557 12.5699 14.5338 12.3481 14.5893C12.1262 14.6448 11.1279 14.5893 11.1279 14.5893Z" fill="white"/>
</svg>
